M48
METRIC,LZ,000.000
;FILE_FORMAT=3:3
;TYPE=PLATED
;Layer: PTH_Through
;EasyEDA v6.5.44, 2024-07-23 11:26:01
;fa6d6c6f67624019b56d640f781358e2,6e2a8d9c20784516b523f05fecaed983,10
;Gerber Generator version 0.2
;Holesize 1 = 0.310 mm
T01C0.310
;Holesize 2 = 1.101 mm
T02C1.101
%
G05
G90
T01
X034163Y-036195
X001143Y-028575
X004445Y-028575
X012192Y-028956
X014478Y-028829
X044196Y-006477
X013081Y-033147
X017272Y-028575
X053721Y-015240
X053213Y-016002
X042037Y-025019
X050165Y-028575
X052959Y-032766
X058674Y-026543
X051435Y-017145
X005969Y-018542
X025527Y-008636
X015113Y-019050
X044323Y-035941
X039370Y-034290
X039497Y-033020
X056007Y-030734
X051308Y-031623
X022987Y-033274
X027559Y-028702
X060706Y-032258
X036449Y-025654
X038227Y-036830
X013208Y-025019
X030099Y-019050
X041656Y-037338
X051816Y-013208
X045974Y-036830
X064770Y-033401
X062738Y-029845
X067945Y-030861
X063180Y-030858
X003175Y-028956
T02
X066167Y-025273
X066167Y-022733
X066167Y-020193
X066167Y-017653
M30
