G04 Layer: BottomSilkscreenLayer*
G04 EasyEDA v6.5.44, 2024-07-23 11:26:01*
G04 fa6d6c6f67624019b56d640f781358e2,6e2a8d9c20784516b523f05fecaed983,10*
G04 Gerber Generator version 0.2*
G04 Scale: 100 percent, Rotated: No, Reflected: No *
G04 Dimensions in millimeters *
G04 leading zeros omitted , absolute positions ,4 integer and 5 decimal *
%FSLAX45Y45*%
%MOMM*%

%ADD10C,0.2032*%
%ADD11C,0.1500*%
%ADD12C,0.1000*%
%ADD13C,0.1524*%
%ADD14C,0.2540*%
%ADD15C,0.2000*%
%ADD16C,0.0194*%

%LPD*%
G36*
X5993079Y-355600D02*
G01*
X5993079Y-541578D01*
X6024321Y-541578D01*
X6024321Y-386892D01*
X6178804Y-386638D01*
X6179261Y-387807D01*
X6179058Y-541578D01*
X5993079Y-541578D01*
X5993079Y-572820D01*
X6210300Y-572820D01*
X6210300Y-355600D01*
G37*
G36*
X5868924Y-355600D02*
G01*
X5868670Y-417423D01*
X5837885Y-417677D01*
X5837885Y-448462D01*
X5900216Y-448462D01*
X5900216Y-417880D01*
X5930544Y-417626D01*
X5931001Y-418846D01*
X5930747Y-448462D01*
X5837885Y-448462D01*
X5837885Y-479755D01*
X5868924Y-479755D01*
X5869178Y-448919D01*
X5899708Y-448919D01*
X5899962Y-479755D01*
X5962040Y-479755D01*
X5962040Y-355600D01*
G37*
G36*
X5806846Y-355600D02*
G01*
X5806846Y-386638D01*
X5837885Y-386638D01*
X5837885Y-355600D01*
G37*
G36*
X5620664Y-355600D02*
G01*
X5620410Y-386384D01*
X5589625Y-386638D01*
X5589371Y-417423D01*
X5558586Y-417677D01*
X5558586Y-448716D01*
X5589625Y-448716D01*
X5589828Y-417880D01*
X5620613Y-417626D01*
X5620867Y-386892D01*
X5651449Y-386892D01*
X5651449Y-448462D01*
X5682945Y-448462D01*
X5682945Y-417880D01*
X5713323Y-417626D01*
X5713780Y-418846D01*
X5713526Y-448462D01*
X5651449Y-448462D01*
X5620664Y-448716D01*
X5620410Y-510540D01*
X5558586Y-510793D01*
X5558586Y-541578D01*
X5620867Y-541578D01*
X5620867Y-510997D01*
X5651652Y-510743D01*
X5651906Y-479958D01*
X5682081Y-479704D01*
X5682742Y-480364D01*
X5682742Y-510793D01*
X5775604Y-510997D01*
X5775604Y-541578D01*
X5744819Y-541832D01*
X5744565Y-572617D01*
X5713984Y-572617D01*
X5713730Y-541782D01*
X5682742Y-541782D01*
X5682488Y-572617D01*
X5651906Y-572617D01*
X5651652Y-541832D01*
X5620867Y-541578D01*
X5558586Y-541578D01*
X5558586Y-572820D01*
X5589625Y-572820D01*
X5589828Y-542036D01*
X5620410Y-542036D01*
X5620664Y-572820D01*
X5651449Y-573074D01*
X5651449Y-634695D01*
X5713984Y-634695D01*
X5713984Y-604113D01*
X5744768Y-603859D01*
X5745022Y-573074D01*
X5775807Y-572820D01*
X5776061Y-542036D01*
X5806236Y-541782D01*
X5806846Y-542442D01*
X5806846Y-603859D01*
X5837682Y-604113D01*
X5837682Y-634695D01*
X5806846Y-634949D01*
X5806592Y-665683D01*
X5838139Y-665683D01*
X5838139Y-635152D01*
X5868466Y-634898D01*
X5868924Y-636117D01*
X5868670Y-665683D01*
X5776061Y-665683D01*
X5775807Y-634898D01*
X5620867Y-634695D01*
X5620613Y-603859D01*
X5589625Y-603859D01*
X5589625Y-634898D01*
X5620410Y-635152D01*
X5620410Y-696772D01*
X5651906Y-696772D01*
X5651906Y-666191D01*
X5713120Y-665937D01*
X5713780Y-666597D01*
X5713780Y-696772D01*
X5869178Y-696772D01*
X5869178Y-666191D01*
X5930341Y-665937D01*
X5931001Y-666597D01*
X5931001Y-696772D01*
X5962243Y-696772D01*
X5962243Y-666191D01*
X5992622Y-665937D01*
X5993079Y-667105D01*
X5992825Y-696772D01*
X5931001Y-696772D01*
X5931001Y-696976D01*
X5961786Y-697230D01*
X5961786Y-727811D01*
X5931001Y-728014D01*
X5930747Y-758799D01*
X5900216Y-758799D01*
X5899962Y-696976D01*
X5869178Y-696772D01*
X5713780Y-696772D01*
X5713780Y-696976D01*
X5744565Y-697230D01*
X5744565Y-727811D01*
X5713780Y-728014D01*
X5713526Y-758799D01*
X5682945Y-758799D01*
X5682691Y-696976D01*
X5589828Y-696772D01*
X5589625Y-665937D01*
X5558790Y-665683D01*
X5558586Y-634898D01*
X5496763Y-634695D01*
X5496509Y-603859D01*
X5465470Y-603859D01*
X5465267Y-634695D01*
X5434685Y-634695D01*
X5434431Y-603859D01*
X5310327Y-603859D01*
X5310327Y-696772D01*
X5341569Y-696772D01*
X5341569Y-666191D01*
X5465013Y-665937D01*
X5465470Y-667105D01*
X5465267Y-696772D01*
X5403392Y-696976D01*
X5403392Y-727811D01*
X5527751Y-727811D01*
X5527751Y-666191D01*
X5558129Y-665937D01*
X5558586Y-667105D01*
X5558332Y-727811D01*
X5403392Y-727811D01*
X5403392Y-728014D01*
X5527294Y-728268D01*
X5527294Y-758799D01*
X5372608Y-758799D01*
X5372354Y-696976D01*
X5310327Y-696772D01*
X5310327Y-728014D01*
X5341112Y-728268D01*
X5341112Y-758799D01*
X5310327Y-759053D01*
X5310327Y-789838D01*
X5527751Y-789838D01*
X5527751Y-759307D01*
X5589168Y-759053D01*
X5589625Y-760222D01*
X5589371Y-789838D01*
X5310327Y-789838D01*
X5310327Y-820877D01*
X5341569Y-820877D01*
X5341569Y-790295D01*
X5371947Y-790092D01*
X5372404Y-791260D01*
X5372150Y-820877D01*
X5310327Y-820877D01*
X5310327Y-852119D01*
X5341112Y-852373D01*
X5341112Y-882954D01*
X5310327Y-883208D01*
X5310327Y-945032D01*
X5341569Y-945032D01*
X5341569Y-914450D01*
X5371947Y-914196D01*
X5372404Y-915416D01*
X5372150Y-945032D01*
X5310327Y-945032D01*
X5310327Y-1069187D01*
X5341569Y-1069187D01*
X5341569Y-976528D01*
X5372354Y-976274D01*
X5372608Y-945489D01*
X5403392Y-945235D01*
X5403646Y-914450D01*
X5527548Y-914196D01*
X5527548Y-883208D01*
X5496763Y-882954D01*
X5496509Y-852169D01*
X5465470Y-852169D01*
X5465267Y-882954D01*
X5403443Y-883208D01*
X5403189Y-913993D01*
X5372608Y-913993D01*
X5372608Y-821334D01*
X5434431Y-821131D01*
X5434685Y-790295D01*
X5464860Y-790092D01*
X5465470Y-790702D01*
X5465470Y-820877D01*
X5589828Y-820877D01*
X5589828Y-790295D01*
X5620664Y-790092D01*
X5620664Y-759053D01*
X5589828Y-758799D01*
X5589828Y-728268D01*
X5651042Y-728014D01*
X5651703Y-728624D01*
X5651703Y-759053D01*
X5682488Y-759307D01*
X5682739Y-789838D01*
X5713984Y-789838D01*
X5713984Y-759307D01*
X5744768Y-759053D01*
X5745022Y-728268D01*
X5775807Y-728014D01*
X5776061Y-697230D01*
X5837428Y-696976D01*
X5837885Y-698144D01*
X5837682Y-727811D01*
X5806846Y-728014D01*
X5806592Y-758799D01*
X5775807Y-759053D01*
X5775604Y-820877D01*
X5807100Y-820877D01*
X5807100Y-759307D01*
X5837885Y-759053D01*
X5838139Y-728268D01*
X5868263Y-728014D01*
X5868924Y-728624D01*
X5868924Y-759053D01*
X5899708Y-759307D01*
X5899708Y-789838D01*
X5962243Y-789838D01*
X5962243Y-759307D01*
X6023660Y-759053D01*
X6024118Y-760222D01*
X6023864Y-789838D01*
X5899708Y-789838D01*
X5899708Y-820877D01*
X6024321Y-820877D01*
X6024321Y-790295D01*
X6054699Y-790092D01*
X6055156Y-791260D01*
X6054902Y-820877D01*
X5899708Y-820877D01*
X5868924Y-821131D01*
X5868670Y-851916D01*
X5962243Y-851916D01*
X5962243Y-821334D01*
X6023660Y-821131D01*
X6024118Y-822299D01*
X6023864Y-851916D01*
X5838139Y-851916D01*
X5837885Y-821131D01*
X5807100Y-820877D01*
X5745022Y-820877D01*
X5744768Y-790092D01*
X5713984Y-789838D01*
X5682739Y-789838D01*
X5682742Y-790092D01*
X5713526Y-790295D01*
X5713780Y-821131D01*
X5744565Y-821334D01*
X5744565Y-851916D01*
X5713780Y-852169D01*
X5713526Y-913993D01*
X5682945Y-913993D01*
X5682742Y-821131D01*
X5589828Y-820877D01*
X5465470Y-820877D01*
X5465470Y-821131D01*
X5527294Y-821334D01*
X5527548Y-852119D01*
X5558332Y-852373D01*
X5558332Y-945032D01*
X5527548Y-945286D01*
X5527294Y-976071D01*
X5496763Y-976071D01*
X5496509Y-945235D01*
X5434431Y-945235D01*
X5434228Y-976071D01*
X5403392Y-976325D01*
X5403392Y-1007110D01*
X5589828Y-1007110D01*
X5589828Y-852373D01*
X5651246Y-852169D01*
X5651703Y-853338D01*
X5651449Y-882954D01*
X5620664Y-883208D01*
X5620664Y-914196D01*
X5651449Y-914450D01*
X5651449Y-945032D01*
X5620664Y-945286D01*
X5620664Y-976274D01*
X5651449Y-976528D01*
X5651449Y-1007110D01*
X5403392Y-1007110D01*
X5403392Y-1007313D01*
X5434228Y-1007567D01*
X5434228Y-1038148D01*
X5372404Y-1038352D01*
X5372150Y-1069187D01*
X5310327Y-1069187D01*
X5310327Y-1069390D01*
X5341112Y-1069644D01*
X5341112Y-1100175D01*
X5310327Y-1100429D01*
X5310327Y-1162253D01*
X5341569Y-1162253D01*
X5341569Y-1131671D01*
X5372354Y-1131468D01*
X5372608Y-1069644D01*
X5433974Y-1069390D01*
X5434431Y-1070610D01*
X5434228Y-1100175D01*
X5465724Y-1100175D01*
X5465724Y-1007567D01*
X5558129Y-1007313D01*
X5558586Y-1008481D01*
X5558332Y-1100175D01*
X5434228Y-1100175D01*
X5403392Y-1100429D01*
X5403392Y-1131214D01*
X5620867Y-1131214D01*
X5620867Y-1100683D01*
X5651246Y-1100429D01*
X5651703Y-1101598D01*
X5651449Y-1131214D01*
X5682945Y-1131214D01*
X5682945Y-1038606D01*
X5713526Y-1038606D01*
X5713780Y-1100429D01*
X5775807Y-1100429D01*
X5775807Y-1007313D01*
X5713984Y-1007110D01*
X5713984Y-945489D01*
X5744565Y-945489D01*
X5744819Y-976274D01*
X5775807Y-976274D01*
X5775807Y-945286D01*
X5745022Y-945032D01*
X5745022Y-914450D01*
X5775807Y-914196D01*
X5775807Y-883208D01*
X5745022Y-882954D01*
X5745022Y-852373D01*
X5775807Y-852119D01*
X5776061Y-821334D01*
X5806236Y-821131D01*
X5806846Y-821740D01*
X5806846Y-913993D01*
X5838139Y-913993D01*
X5838139Y-883412D01*
X5868466Y-883158D01*
X5868924Y-884377D01*
X5868670Y-913993D01*
X5806846Y-913993D01*
X5806846Y-914196D01*
X5837682Y-914450D01*
X5837885Y-945235D01*
X5868670Y-945489D01*
X5868670Y-1007110D01*
X5837885Y-1007313D01*
X5837682Y-1038148D01*
X5806846Y-1038352D01*
X5806694Y-1100175D01*
X5869178Y-1100175D01*
X5869178Y-1007567D01*
X5899505Y-1007313D01*
X5899962Y-1008481D01*
X5899708Y-1100175D01*
X5806694Y-1100175D01*
X5806592Y-1131214D01*
X5838139Y-1131214D01*
X5838139Y-1100683D01*
X5868466Y-1100429D01*
X5868924Y-1101598D01*
X5868670Y-1131214D01*
X5403392Y-1131214D01*
X5403392Y-1131468D01*
X5527294Y-1131671D01*
X5527294Y-1162253D01*
X5558790Y-1162253D01*
X5558790Y-1131671D01*
X5620207Y-1131468D01*
X5620664Y-1132636D01*
X5620410Y-1162253D01*
X5651906Y-1162253D01*
X5651906Y-1131671D01*
X5682284Y-1131468D01*
X5682742Y-1132636D01*
X5682488Y-1162253D01*
X5527294Y-1162253D01*
X5527294Y-1193292D01*
X5496509Y-1193546D01*
X5496255Y-1224330D01*
X5465724Y-1224330D01*
X5465470Y-1193546D01*
X5434685Y-1193292D01*
X5434431Y-1162507D01*
X5310327Y-1162253D01*
X5310327Y-1224534D01*
X5341112Y-1224788D01*
X5341366Y-1255623D01*
X5372354Y-1255623D01*
X5372608Y-1193749D01*
X5403189Y-1193749D01*
X5403443Y-1255623D01*
X5589625Y-1255623D01*
X5589828Y-1193749D01*
X5620410Y-1193749D01*
X5620663Y-1224330D01*
X5682945Y-1224330D01*
X5682945Y-1193749D01*
X5713323Y-1193546D01*
X5713780Y-1194714D01*
X5713526Y-1224330D01*
X5620663Y-1224330D01*
X5620664Y-1224534D01*
X5651449Y-1224788D01*
X5651703Y-1255623D01*
X5713730Y-1255623D01*
X5713984Y-1224788D01*
X5775807Y-1224534D01*
X5776061Y-1162761D01*
X5806846Y-1162507D01*
X5807100Y-1131671D01*
X5837682Y-1131671D01*
X5837682Y-1193292D01*
X5806846Y-1193546D01*
X5806846Y-1224584D01*
X5868924Y-1224584D01*
X5869178Y-1193749D01*
X5899708Y-1193749D01*
X5899962Y-1224534D01*
X5930747Y-1224788D01*
X5931001Y-1255623D01*
X5962040Y-1255623D01*
X5962040Y-1193546D01*
X5931204Y-1193292D01*
X5931001Y-1162507D01*
X5900216Y-1162253D01*
X5900216Y-1100683D01*
X5930747Y-1100683D01*
X5931001Y-1131468D01*
X5962040Y-1131468D01*
X5962040Y-1069390D01*
X5931204Y-1069187D01*
X5931204Y-1038606D01*
X5962040Y-1038352D01*
X5962040Y-1007313D01*
X5931204Y-1007110D01*
X5931001Y-976325D01*
X5900216Y-976071D01*
X5900216Y-852373D01*
X5930747Y-852373D01*
X5931000Y-882954D01*
X6055360Y-882954D01*
X6055360Y-852373D01*
X6085738Y-852119D01*
X6086195Y-853338D01*
X6085941Y-882954D01*
X5931000Y-882954D01*
X5931001Y-883158D01*
X5961786Y-883412D01*
X5962040Y-914196D01*
X5992825Y-914450D01*
X5993079Y-945235D01*
X6024118Y-945235D01*
X6024118Y-914247D01*
X5993282Y-913993D01*
X5993282Y-883412D01*
X6054902Y-883412D01*
X6055155Y-945032D01*
X6086398Y-945032D01*
X6086398Y-883412D01*
X6116777Y-883158D01*
X6117234Y-884377D01*
X6116980Y-945032D01*
X6055155Y-945032D01*
X6055156Y-945235D01*
X6085941Y-945489D01*
X6085941Y-976071D01*
X5993079Y-976274D01*
X5993079Y-1007313D01*
X6086144Y-1007313D01*
X6086398Y-976528D01*
X6116980Y-976528D01*
X6117234Y-1007313D01*
X6210300Y-1007313D01*
X6210300Y-976274D01*
X6148476Y-976071D01*
X6148222Y-883208D01*
X6117437Y-882954D01*
X6117183Y-852169D01*
X6086398Y-851916D01*
X6086398Y-790295D01*
X6117183Y-790092D01*
X6117437Y-759307D01*
X6148019Y-759307D01*
X6148222Y-790092D01*
X6179261Y-790092D01*
X6179515Y-759307D01*
X6210300Y-759053D01*
X6210300Y-728014D01*
X6148476Y-727811D01*
X6148222Y-696976D01*
X6117234Y-696976D01*
X6116980Y-758799D01*
X6024321Y-758799D01*
X6024067Y-728014D01*
X5993282Y-727811D01*
X5993282Y-697230D01*
X6024118Y-696976D01*
X6024118Y-665937D01*
X5993282Y-665683D01*
X5993282Y-635152D01*
X6054902Y-635152D01*
X6055156Y-728014D01*
X6086144Y-728014D01*
X6086398Y-666191D01*
X6210300Y-665937D01*
X6210300Y-603859D01*
X6148222Y-603859D01*
X6148019Y-634695D01*
X6086398Y-634695D01*
X6086144Y-603859D01*
X5993079Y-603859D01*
X5992825Y-634695D01*
X5962040Y-634949D01*
X5961786Y-665683D01*
X5931204Y-665683D01*
X5931001Y-634898D01*
X5869178Y-634695D01*
X5868924Y-603910D01*
X5838139Y-603656D01*
X5838139Y-542036D01*
X5868670Y-542036D01*
X5868924Y-572820D01*
X5899708Y-573074D01*
X5899962Y-603859D01*
X5931001Y-603859D01*
X5931204Y-573074D01*
X5962040Y-572820D01*
X5962040Y-510793D01*
X5931001Y-510793D01*
X5930747Y-572617D01*
X5900216Y-572617D01*
X5899962Y-541832D01*
X5869178Y-541578D01*
X5868924Y-510793D01*
X5807100Y-510540D01*
X5806846Y-479755D01*
X5776061Y-479501D01*
X5775807Y-448716D01*
X5745022Y-448462D01*
X5744768Y-417677D01*
X5713984Y-417423D01*
X5713984Y-386892D01*
X5775807Y-386638D01*
X5775807Y-355600D01*
G37*
G36*
X5310327Y-355600D02*
G01*
X5310327Y-541578D01*
X5341569Y-541578D01*
X5341569Y-386892D01*
X5496052Y-386638D01*
X5496509Y-387807D01*
X5496255Y-541578D01*
X5310327Y-541578D01*
X5310327Y-572820D01*
X5527548Y-572820D01*
X5527548Y-355600D01*
G37*
G36*
X6055156Y-417677D02*
G01*
X6055156Y-510793D01*
X6148222Y-510793D01*
X6148222Y-417677D01*
G37*
G36*
X5372354Y-417677D02*
G01*
X5372354Y-510793D01*
X5465470Y-510793D01*
X5465470Y-417677D01*
G37*
G36*
X6148222Y-821131D02*
G01*
X6148222Y-852169D01*
X6179261Y-852169D01*
X6179261Y-821131D01*
G37*
G36*
X6179261Y-883208D02*
G01*
X6179261Y-914196D01*
X6210300Y-914196D01*
X6210300Y-883208D01*
G37*
G36*
X5993079Y-1038352D02*
G01*
X5993079Y-1224330D01*
X6024321Y-1224330D01*
X6024321Y-1069644D01*
X6178804Y-1069390D01*
X6179261Y-1070559D01*
X6179058Y-1224330D01*
X5993079Y-1224330D01*
X5993079Y-1255623D01*
X6210300Y-1255623D01*
X6210300Y-1038352D01*
G37*
G36*
X5496509Y-1038352D02*
G01*
X5496509Y-1069390D01*
X5527548Y-1069390D01*
X5527548Y-1038352D01*
G37*
G36*
X6055156Y-1100429D02*
G01*
X6055156Y-1193546D01*
X6148222Y-1193546D01*
X6148222Y-1100429D01*
G37*
G36*
X5883148Y-2780588D02*
G01*
X5875324Y-2805938D01*
X5845708Y-2907080D01*
X5854192Y-2900984D01*
X5860288Y-2897632D01*
X5866892Y-2895092D01*
X5875070Y-2892958D01*
X5874918Y-2972612D01*
X5873242Y-2977032D01*
X5867908Y-2983534D01*
X5856071Y-2995269D01*
X5850788Y-3002330D01*
X5847689Y-3009239D01*
X5846216Y-3016961D01*
X5845911Y-3020110D01*
X5846521Y-3025851D01*
X5848908Y-3031845D01*
X5852718Y-3037027D01*
X5855106Y-3039719D01*
X5858002Y-3042361D01*
X5861608Y-3045104D01*
X5866028Y-3048101D01*
X5878322Y-3055366D01*
X5895238Y-3064764D01*
X5908548Y-3072993D01*
X5913374Y-3076448D01*
X5916980Y-3079496D01*
X5919571Y-3082239D01*
X5921044Y-3084626D01*
X5921502Y-3087471D01*
X5920232Y-3088640D01*
X5914644Y-3092348D01*
X5906160Y-3095802D01*
X5898337Y-3098444D01*
X5888126Y-3101289D01*
X5836970Y-3113786D01*
X5825083Y-3117138D01*
X5816193Y-3120237D01*
X5808116Y-3123539D01*
X5799023Y-3129026D01*
X5796127Y-3131820D01*
X5791555Y-3137509D01*
X5790438Y-3140354D01*
X5789168Y-3145434D01*
X5789168Y-3150870D01*
X5790742Y-3156051D01*
X5792114Y-3158693D01*
X5793943Y-3161233D01*
X5796280Y-3163570D01*
X5799175Y-3165805D01*
X5802731Y-3167938D01*
X5807049Y-3169970D01*
X5812129Y-3171952D01*
X5818073Y-3173933D01*
X5832754Y-3177895D01*
X5851753Y-3182061D01*
X5875477Y-3186633D01*
X5918454Y-3194354D01*
X5933694Y-3197301D01*
X5946038Y-3199942D01*
X5955944Y-3202330D01*
X5963716Y-3204565D01*
X5969762Y-3206699D01*
X5974486Y-3208934D01*
X5978093Y-3211118D01*
X5975146Y-3212846D01*
X5969609Y-3215182D01*
X5961989Y-3217570D01*
X5951982Y-3220059D01*
X5939383Y-3222701D01*
X5905144Y-3228594D01*
X5850331Y-3236874D01*
X5817463Y-3242106D01*
X5792927Y-3246526D01*
X5774791Y-3250641D01*
X5767527Y-3252673D01*
X5761126Y-3254756D01*
X5750864Y-3258820D01*
X5744870Y-3262426D01*
X5742482Y-3264204D01*
X5740400Y-3266084D01*
X5736793Y-3270351D01*
X5734812Y-3275126D01*
X5734100Y-3279901D01*
X5734761Y-3284778D01*
X5736336Y-3288690D01*
X5738672Y-3291687D01*
X5740552Y-3293618D01*
X5743346Y-3296005D01*
X5749696Y-3299256D01*
X5756402Y-3301847D01*
X5764784Y-3304235D01*
X5775147Y-3306521D01*
X5787796Y-3308756D01*
X5802985Y-3310940D01*
X5821121Y-3313176D01*
X5898184Y-3321100D01*
X5923178Y-3323844D01*
X5941060Y-3326129D01*
X5957011Y-3328517D01*
X5970981Y-3330956D01*
X5983071Y-3333546D01*
X5993384Y-3336239D01*
X6001918Y-3339033D01*
X6008776Y-3342030D01*
X6014669Y-3345434D01*
X6017260Y-3348278D01*
X6015583Y-3350768D01*
X6013043Y-3352800D01*
X6009538Y-3355035D01*
X6005118Y-3357321D01*
X5999988Y-3359607D01*
X5994095Y-3361893D01*
X5980887Y-3366160D01*
X5966358Y-3369970D01*
X5949899Y-3373628D01*
X5929325Y-3377539D01*
X5902553Y-3382111D01*
X5822289Y-3395218D01*
X5804408Y-3398418D01*
X5789371Y-3401415D01*
X5776823Y-3404260D01*
X5766511Y-3407003D01*
X5758078Y-3409696D01*
X5751220Y-3412439D01*
X5745784Y-3415334D01*
X5738876Y-3420364D01*
X5735066Y-3425240D01*
X5733237Y-3430270D01*
X5732881Y-3436010D01*
X5734151Y-3441192D01*
X5736386Y-3445154D01*
X5738012Y-3447237D01*
X5739993Y-3449218D01*
X5742279Y-3451098D01*
X5745022Y-3452774D01*
X5748223Y-3454400D01*
X5756097Y-3457295D01*
X5766308Y-3459784D01*
X5779160Y-3462020D01*
X5795010Y-3464001D01*
X5814212Y-3465829D01*
X5837072Y-3467557D01*
X5887821Y-3470808D01*
X5907786Y-3472281D01*
X5924397Y-3473754D01*
X5937910Y-3475278D01*
X5948781Y-3476904D01*
X5957366Y-3478733D01*
X5964021Y-3480714D01*
X5970727Y-3483813D01*
X5970625Y-3484270D01*
X5969762Y-3485438D01*
X5967679Y-3486810D01*
X5964529Y-3488283D01*
X5954877Y-3491687D01*
X5941060Y-3495598D01*
X5923330Y-3499865D01*
X5901944Y-3504539D01*
X5856173Y-3513937D01*
X5838850Y-3518001D01*
X5825083Y-3521710D01*
X5814364Y-3525316D01*
X5809996Y-3527094D01*
X5806186Y-3528923D01*
X5802884Y-3530803D01*
X5800039Y-3532784D01*
X5797550Y-3534816D01*
X5793486Y-3539286D01*
X5791657Y-3541776D01*
X5789777Y-3546500D01*
X5789066Y-3551021D01*
X5789371Y-3557015D01*
X5791504Y-3562604D01*
X5793943Y-3566464D01*
X5798261Y-3570274D01*
X5800902Y-3572103D01*
X5803849Y-3573729D01*
X5807202Y-3575202D01*
X5815634Y-3577793D01*
X5826861Y-3579977D01*
X5841644Y-3581958D01*
X5874258Y-3585362D01*
X5885586Y-3586784D01*
X5894984Y-3588207D01*
X5902655Y-3589680D01*
X5908802Y-3591306D01*
X5913577Y-3593084D01*
X5917184Y-3595115D01*
X5919825Y-3597351D01*
X5920892Y-3598519D01*
X5920892Y-3601872D01*
X5919266Y-3606088D01*
X5914694Y-3611778D01*
X5906820Y-3617925D01*
X5901080Y-3621633D01*
X5869686Y-3638296D01*
X5860694Y-3643376D01*
X5853430Y-3647897D01*
X5847740Y-3652113D01*
X5843270Y-3656177D01*
X5839917Y-3660241D01*
X5837377Y-3664559D01*
X5834430Y-3672078D01*
X5833719Y-3677716D01*
X5834075Y-3685590D01*
X5834684Y-3688384D01*
X5836513Y-3694226D01*
X5839358Y-3699611D01*
X5843422Y-3704793D01*
X5858662Y-3719169D01*
X5863793Y-3725824D01*
X5867654Y-3733444D01*
X5869432Y-3737965D01*
X5871006Y-3742893D01*
X5872276Y-3748227D01*
X5873292Y-3753967D01*
X5874105Y-3760165D01*
X5874664Y-3766820D01*
X5875172Y-3780586D01*
X5890869Y-3780586D01*
X5890717Y-3773322D01*
X5889955Y-3760978D01*
X5888431Y-3749446D01*
X5886246Y-3738778D01*
X5883351Y-3729126D01*
X5879846Y-3720642D01*
X5875832Y-3713327D01*
X5869432Y-3705148D01*
X5854192Y-3690721D01*
X5851499Y-3687724D01*
X5849924Y-3684066D01*
X5849264Y-3679037D01*
X5850077Y-3676091D01*
X5851042Y-3673906D01*
X5853836Y-3670757D01*
X5856325Y-3668420D01*
X5860338Y-3665118D01*
X5871870Y-3658057D01*
X5894527Y-3646373D01*
X5907887Y-3639058D01*
X5912815Y-3636010D01*
X5916930Y-3633165D01*
X5920384Y-3630422D01*
X5923534Y-3627577D01*
X5928868Y-3621887D01*
X5932728Y-3615893D01*
X5935472Y-3609086D01*
X5936437Y-3604615D01*
X5936742Y-3597503D01*
X5935776Y-3592423D01*
X5933592Y-3586987D01*
X5928664Y-3580993D01*
X5923534Y-3577437D01*
X5917438Y-3574338D01*
X5913882Y-3572967D01*
X5905449Y-3570579D01*
X5894781Y-3568547D01*
X5881217Y-3566668D01*
X5841390Y-3562400D01*
X5824524Y-3559962D01*
X5818225Y-3558692D01*
X5813145Y-3557371D01*
X5809335Y-3556050D01*
X5806643Y-3554679D01*
X5805170Y-3553663D01*
X5804611Y-3551834D01*
X5805068Y-3550970D01*
X5806287Y-3549599D01*
X5808472Y-3548075D01*
X5811570Y-3546500D01*
X5820765Y-3543046D01*
X5833719Y-3539236D01*
X5850432Y-3535019D01*
X5870905Y-3530549D01*
X5916320Y-3521252D01*
X5931966Y-3517798D01*
X5943600Y-3514953D01*
X5952540Y-3512362D01*
X5960059Y-3509670D01*
X5968695Y-3506165D01*
X5975604Y-3501999D01*
X5978144Y-3500120D01*
X5980328Y-3498138D01*
X5984290Y-3493465D01*
X5986373Y-3488080D01*
X5987084Y-3485083D01*
X5986780Y-3479546D01*
X5986424Y-3477564D01*
X5984595Y-3473246D01*
X5981649Y-3469741D01*
X5977788Y-3466541D01*
X5972708Y-3463696D01*
X5966104Y-3461258D01*
X5957722Y-3459073D01*
X5947206Y-3457143D01*
X5934354Y-3455415D01*
X5918758Y-3453790D01*
X5878372Y-3450742D01*
X5834938Y-3447999D01*
X5803239Y-3445459D01*
X5790946Y-3444189D01*
X5780684Y-3442817D01*
X5772150Y-3441395D01*
X5765038Y-3439769D01*
X5759043Y-3437991D01*
X5753912Y-3436010D01*
X5750864Y-3434486D01*
X5750763Y-3434079D01*
X5752947Y-3432657D01*
X5757519Y-3430371D01*
X5763056Y-3428136D01*
X5769813Y-3425951D01*
X5778042Y-3423716D01*
X5787847Y-3421430D01*
X5799531Y-3418992D01*
X5829350Y-3413556D01*
X5911342Y-3400196D01*
X5928969Y-3397148D01*
X5958281Y-3391458D01*
X5970270Y-3388817D01*
X5980684Y-3386226D01*
X5989777Y-3383635D01*
X5997651Y-3381044D01*
X6004509Y-3378403D01*
X6010554Y-3375609D01*
X6019698Y-3370529D01*
X6025540Y-3365703D01*
X6030163Y-3359607D01*
X6032296Y-3353765D01*
X6032754Y-3350869D01*
X6032855Y-3346653D01*
X6032347Y-3342640D01*
X6030061Y-3337001D01*
X6025438Y-3331210D01*
X6021019Y-3327806D01*
X6016040Y-3324707D01*
X6010046Y-3321812D01*
X6002985Y-3319119D01*
X5994654Y-3316579D01*
X5985002Y-3314141D01*
X5973775Y-3311855D01*
X5960922Y-3309620D01*
X5946241Y-3307435D01*
X5929680Y-3305251D01*
X5890056Y-3300831D01*
X5845251Y-3296310D01*
X5813602Y-3292805D01*
X5792266Y-3289960D01*
X5776417Y-3287115D01*
X5766257Y-3284728D01*
X5760262Y-3283000D01*
X5755386Y-3281273D01*
X5751982Y-3279495D01*
X5756198Y-3277158D01*
X5761380Y-3274872D01*
X5767628Y-3272637D01*
X5775045Y-3270402D01*
X5783935Y-3268217D01*
X5794400Y-3265932D01*
X5820816Y-3261106D01*
X5855614Y-3255619D01*
X5900521Y-3248914D01*
X5935472Y-3243072D01*
X5948781Y-3240430D01*
X5959703Y-3237992D01*
X5968644Y-3235553D01*
X5975807Y-3233064D01*
X5981547Y-3230524D01*
X5986170Y-3227832D01*
X5990488Y-3224580D01*
X5993638Y-3220770D01*
X5995568Y-3216148D01*
X5996076Y-3211779D01*
X5995619Y-3206953D01*
X5993739Y-3202228D01*
X5990742Y-3198215D01*
X5986322Y-3194558D01*
X5983833Y-3192830D01*
X5977991Y-3189732D01*
X5970524Y-3186734D01*
X5960821Y-3183788D01*
X5948324Y-3180740D01*
X5932525Y-3177438D01*
X5912916Y-3173679D01*
X5868974Y-3165856D01*
X5852871Y-3162757D01*
X5840018Y-3160014D01*
X5829808Y-3157524D01*
X5821527Y-3155035D01*
X5810554Y-3150819D01*
X5805373Y-3147618D01*
X5805373Y-3146298D01*
X5808878Y-3143808D01*
X5814110Y-3141218D01*
X5821629Y-3138424D01*
X5831738Y-3135274D01*
X5844641Y-3131769D01*
X5878626Y-3123488D01*
X5893409Y-3119678D01*
X5905042Y-3116326D01*
X5914034Y-3113176D01*
X5920994Y-3109976D01*
X5926480Y-3106572D01*
X5931255Y-3102762D01*
X5934405Y-3098393D01*
X5935472Y-3096412D01*
X5936284Y-3094329D01*
X5937300Y-3089960D01*
X5937300Y-3084169D01*
X5935776Y-3078327D01*
X5932525Y-3071723D01*
X5929934Y-3068015D01*
X5926632Y-3064357D01*
X5922518Y-3060700D01*
X5917387Y-3056839D01*
X5911037Y-3052673D01*
X5880709Y-3035300D01*
X5868060Y-3027375D01*
X5863691Y-3023717D01*
X5861710Y-3021126D01*
X5861710Y-3018586D01*
X5862980Y-3014421D01*
X5865418Y-3010611D01*
X5880404Y-2995777D01*
X5885180Y-2989173D01*
X5887212Y-2985414D01*
X5888786Y-2981452D01*
X5890717Y-2974136D01*
X5890869Y-2893009D01*
X5899200Y-2894888D01*
X5907379Y-2898241D01*
X5916168Y-2903829D01*
X5920536Y-2907030D01*
G37*
D10*
X5565571Y-1510639D02*
G01*
X5579209Y-1517459D01*
X5592846Y-1531094D01*
X5599663Y-1544731D01*
X5599663Y-1572003D01*
X5592846Y-1585640D01*
X5579209Y-1599275D01*
X5565571Y-1606095D01*
X5545117Y-1612912D01*
X5511027Y-1612912D01*
X5490573Y-1606095D01*
X5476935Y-1599275D01*
X5463301Y-1585640D01*
X5456481Y-1572003D01*
X5456481Y-1544731D01*
X5463301Y-1531094D01*
X5476935Y-1517459D01*
X5490573Y-1510639D01*
X6272763Y-2675963D02*
G01*
X6129581Y-2730510D01*
X6272763Y-2675963D02*
G01*
X6129581Y-2621419D01*
X6177307Y-2710055D02*
G01*
X6177307Y-2641874D01*
D11*
X6704909Y-1153828D02*
G01*
X6700362Y-1162918D01*
X6691271Y-1172009D01*
X6682181Y-1176553D01*
X6668546Y-1181100D01*
X6645818Y-1181100D01*
X6632181Y-1176553D01*
X6623090Y-1172009D01*
X6613999Y-1162918D01*
X6609453Y-1153828D01*
X6609453Y-1135646D01*
X6613999Y-1126553D01*
X6623090Y-1117462D01*
X6632181Y-1112918D01*
X6645818Y-1108372D01*
X6668546Y-1108372D01*
X6682181Y-1112918D01*
X6691271Y-1117462D01*
X6700362Y-1126553D01*
X6704909Y-1135646D01*
X6704909Y-1153828D01*
X6673090Y-1078372D02*
G01*
X6577637Y-1078372D01*
X6659453Y-1078372D02*
G01*
X6668546Y-1069281D01*
X6673090Y-1060190D01*
X6673090Y-1046553D01*
X6668546Y-1037462D01*
X6659453Y-1028372D01*
X6645818Y-1023828D01*
X6636727Y-1023828D01*
X6623090Y-1028372D01*
X6613999Y-1037462D01*
X6609453Y-1046553D01*
X6609453Y-1060190D01*
X6613999Y-1069281D01*
X6623090Y-1078372D01*
X6645818Y-993828D02*
G01*
X6645818Y-939281D01*
X6654909Y-939281D01*
X6663999Y-943828D01*
X6668546Y-948372D01*
X6673090Y-957463D01*
X6673090Y-971100D01*
X6668546Y-980191D01*
X6659453Y-989281D01*
X6645818Y-993828D01*
X6636727Y-993828D01*
X6623090Y-989281D01*
X6613999Y-980191D01*
X6609453Y-971100D01*
X6609453Y-957463D01*
X6613999Y-948372D01*
X6623090Y-939281D01*
X6673090Y-909281D02*
G01*
X6609453Y-909281D01*
X6654909Y-909281D02*
G01*
X6668546Y-895647D01*
X6673090Y-886553D01*
X6673090Y-872919D01*
X6668546Y-863828D01*
X6654909Y-859281D01*
X6609453Y-859281D01*
X6463609Y-1181100D02*
G01*
X6368153Y-1181100D01*
X6463609Y-1181100D02*
G01*
X6463609Y-1149281D01*
X6459062Y-1135646D01*
X6449971Y-1126553D01*
X6440881Y-1122009D01*
X6427246Y-1117462D01*
X6404518Y-1117462D01*
X6390881Y-1122009D01*
X6381790Y-1126553D01*
X6372699Y-1135646D01*
X6368153Y-1149281D01*
X6368153Y-1181100D01*
X6431790Y-1064737D02*
G01*
X6427246Y-1073828D01*
X6418153Y-1082918D01*
X6404518Y-1087462D01*
X6395427Y-1087462D01*
X6381790Y-1082918D01*
X6372699Y-1073828D01*
X6368153Y-1064737D01*
X6368153Y-1051100D01*
X6372699Y-1042009D01*
X6381790Y-1032918D01*
X6395427Y-1028372D01*
X6404518Y-1028372D01*
X6418153Y-1032918D01*
X6427246Y-1042009D01*
X6431790Y-1051100D01*
X6431790Y-1064737D01*
X6418153Y-948372D02*
G01*
X6427246Y-952919D01*
X6431790Y-966553D01*
X6431790Y-980191D01*
X6427246Y-993828D01*
X6418153Y-998372D01*
X6409062Y-993828D01*
X6404518Y-984737D01*
X6399971Y-962009D01*
X6395427Y-952919D01*
X6386337Y-948372D01*
X6381790Y-948372D01*
X6372699Y-952919D01*
X6368153Y-966553D01*
X6368153Y-980191D01*
X6372699Y-993828D01*
X6381790Y-998372D01*
X6463609Y-918372D02*
G01*
X6459062Y-913828D01*
X6463609Y-909281D01*
X6468153Y-913828D01*
X6463609Y-918372D01*
X6431790Y-913828D02*
G01*
X6368153Y-913828D01*
X6431790Y-879281D02*
G01*
X6368153Y-879281D01*
X6413609Y-879281D02*
G01*
X6427246Y-865647D01*
X6431790Y-856554D01*
X6431790Y-842919D01*
X6427246Y-833828D01*
X6413609Y-829282D01*
X6368153Y-829282D01*
X6413609Y-829282D02*
G01*
X6427246Y-815647D01*
X6431790Y-806554D01*
X6431790Y-792919D01*
X6427246Y-783828D01*
X6413609Y-779282D01*
X6368153Y-779282D01*
X6404518Y-749282D02*
G01*
X6404518Y-694738D01*
X6413609Y-694738D01*
X6422699Y-699282D01*
X6427246Y-703828D01*
X6431790Y-712919D01*
X6431790Y-726554D01*
X6427246Y-735647D01*
X6418153Y-744738D01*
X6404518Y-749282D01*
X6395427Y-749282D01*
X6381790Y-744738D01*
X6372699Y-735647D01*
X6368153Y-726554D01*
X6368153Y-712919D01*
X6372699Y-703828D01*
X6381790Y-694738D01*
X6463609Y-651101D02*
G01*
X6386337Y-651101D01*
X6372699Y-646554D01*
X6368153Y-637463D01*
X6368153Y-628373D01*
X6431790Y-664738D02*
G01*
X6431790Y-632919D01*
X6404518Y-598373D02*
G01*
X6404518Y-543829D01*
X6413609Y-543829D01*
X6422699Y-548373D01*
X6427246Y-552919D01*
X6431790Y-562010D01*
X6431790Y-575647D01*
X6427246Y-584738D01*
X6418153Y-593829D01*
X6404518Y-598373D01*
X6395427Y-598373D01*
X6381790Y-593829D01*
X6372699Y-584738D01*
X6368153Y-575647D01*
X6368153Y-562010D01*
X6372699Y-552919D01*
X6381790Y-543829D01*
X6431790Y-513829D02*
G01*
X6368153Y-513829D01*
X6404518Y-513829D02*
G01*
X6418153Y-509282D01*
X6427246Y-500192D01*
X6431790Y-491101D01*
X6431790Y-477464D01*
D12*
X6710126Y-711200D02*
G01*
X6633763Y-711200D01*
X6710126Y-711200D02*
G01*
X6710126Y-678472D01*
X6706491Y-667562D01*
X6702854Y-663928D01*
X6695582Y-660290D01*
X6688310Y-660290D01*
X6681035Y-663928D01*
X6677400Y-667562D01*
X6673763Y-678472D01*
X6673763Y-711200D01*
X6673763Y-685746D02*
G01*
X6633763Y-660290D01*
X6662854Y-636290D02*
G01*
X6662854Y-592655D01*
X6670126Y-592655D01*
X6677400Y-596290D01*
X6681035Y-599927D01*
X6684672Y-607199D01*
X6684672Y-618109D01*
X6681035Y-625381D01*
X6673763Y-632655D01*
X6662854Y-636290D01*
X6655582Y-636290D01*
X6644673Y-632655D01*
X6637400Y-625381D01*
X6633763Y-618109D01*
X6633763Y-607199D01*
X6637400Y-599927D01*
X6644673Y-592655D01*
X6684672Y-568655D02*
G01*
X6633763Y-546836D01*
X6684672Y-525018D02*
G01*
X6633763Y-546836D01*
X6695582Y-445018D02*
G01*
X6699216Y-437746D01*
X6710126Y-426836D01*
X6633763Y-426836D01*
D13*
X-839215Y-1765300D02*
G01*
X-761237Y-1765300D01*
X-745744Y-1770379D01*
X-735329Y-1780794D01*
X-730250Y-1796542D01*
X-730250Y-1806955D01*
X-735329Y-1822450D01*
X-745744Y-1832863D01*
X-761237Y-1837944D01*
X-839215Y-1837944D01*
X-839215Y-1882647D02*
G01*
X-839215Y-1939797D01*
X-797560Y-1908810D01*
X-797560Y-1924304D01*
X-792479Y-1934718D01*
X-787400Y-1939797D01*
X-771652Y-1945131D01*
X-761237Y-1945131D01*
X-745744Y-1939797D01*
X-735329Y-1929384D01*
X-730250Y-1913889D01*
X-730250Y-1898395D01*
X-735329Y-1882647D01*
X-740410Y-1877568D01*
X-750823Y-1872234D01*
D12*
X1533903Y-2145537D02*
G01*
X1533903Y-2050034D01*
X1533903Y-2145537D02*
G01*
X1574797Y-2145537D01*
X1588513Y-2140965D01*
X1593085Y-2136394D01*
X1597657Y-2127504D01*
X1597657Y-2118360D01*
X1593085Y-2109215D01*
X1588513Y-2104644D01*
X1574797Y-2100071D01*
X1533903Y-2100071D01*
X1565653Y-2100071D02*
G01*
X1597657Y-2050034D01*
X1663951Y-2145537D02*
G01*
X1627629Y-2050034D01*
X1663951Y-2145537D02*
G01*
X1700273Y-2050034D01*
X1641091Y-2082037D02*
G01*
X1686557Y-2082037D01*
X1793999Y-2132076D02*
G01*
X1784855Y-2140965D01*
X1771139Y-2145537D01*
X1753105Y-2145537D01*
X1739389Y-2140965D01*
X1730245Y-2132076D01*
X1730245Y-2122931D01*
X1734817Y-2113787D01*
X1739389Y-2109215D01*
X1748533Y-2104644D01*
X1775711Y-2095500D01*
X1784855Y-2091181D01*
X1789427Y-2086610D01*
X1793999Y-2077465D01*
X1793999Y-2063750D01*
X1784855Y-2054605D01*
X1771139Y-2050034D01*
X1753105Y-2050034D01*
X1739389Y-2054605D01*
X1730245Y-2063750D01*
X1823971Y-2145537D02*
G01*
X1823971Y-2050034D01*
X1823971Y-2145537D02*
G01*
X1864865Y-2145537D01*
X1878327Y-2140965D01*
X1882899Y-2136394D01*
X1887471Y-2127504D01*
X1887471Y-2113787D01*
X1882899Y-2104644D01*
X1878327Y-2100071D01*
X1864865Y-2095500D01*
X1823971Y-2095500D01*
X1917443Y-2145537D02*
G01*
X1917443Y-2050034D01*
X1917443Y-2145537D02*
G01*
X1958337Y-2145537D01*
X1972053Y-2140965D01*
X1976625Y-2136394D01*
X1981197Y-2127504D01*
X1981197Y-2118360D01*
X1976625Y-2109215D01*
X1972053Y-2104644D01*
X1958337Y-2100071D01*
X1917443Y-2100071D02*
G01*
X1958337Y-2100071D01*
X1972053Y-2095500D01*
X1976625Y-2091181D01*
X1981197Y-2082037D01*
X1981197Y-2068321D01*
X1976625Y-2059178D01*
X1972053Y-2054605D01*
X1958337Y-2050034D01*
X1917443Y-2050034D01*
X2011169Y-2145537D02*
G01*
X2011169Y-2050034D01*
X2011169Y-2145537D02*
G01*
X2070351Y-2145537D01*
X2011169Y-2100071D02*
G01*
X2047491Y-2100071D01*
X2011169Y-2050034D02*
G01*
X2070351Y-2050034D01*
X2100323Y-2145537D02*
G01*
X2100323Y-2050034D01*
X2100323Y-2145537D02*
G01*
X2141217Y-2145537D01*
X2154933Y-2140965D01*
X2159251Y-2136394D01*
X2163823Y-2127504D01*
X2163823Y-2118360D01*
X2159251Y-2109215D01*
X2154933Y-2104644D01*
X2141217Y-2100071D01*
X2100323Y-2100071D01*
X2132073Y-2100071D02*
G01*
X2163823Y-2050034D01*
X2193795Y-2145537D02*
G01*
X2193795Y-2050034D01*
X2193795Y-2145537D02*
G01*
X2234689Y-2145537D01*
X2248405Y-2140965D01*
X2252977Y-2136394D01*
X2257549Y-2127504D01*
X2257549Y-2118360D01*
X2252977Y-2109215D01*
X2248405Y-2104644D01*
X2234689Y-2100071D01*
X2193795Y-2100071D01*
X2225799Y-2100071D02*
G01*
X2257549Y-2050034D01*
X2287521Y-2145537D02*
G01*
X2323843Y-2100071D01*
X2323843Y-2050034D01*
X2360165Y-2145537D02*
G01*
X2323843Y-2100071D01*
X2460241Y-2145537D02*
G01*
X2460241Y-2050034D01*
X2460241Y-2145537D02*
G01*
X2501135Y-2145537D01*
X2514851Y-2140965D01*
X2519423Y-2136394D01*
X2523995Y-2127504D01*
X2523995Y-2113787D01*
X2519423Y-2104644D01*
X2514851Y-2100071D01*
X2501135Y-2095500D01*
X2460241Y-2095500D01*
X2553967Y-2145537D02*
G01*
X2553967Y-2050034D01*
X2653789Y-2145537D02*
G01*
X2653789Y-2050034D01*
X2653789Y-2145537D02*
G01*
X2694683Y-2145537D01*
X2708399Y-2140965D01*
X2712971Y-2136394D01*
X2717543Y-2127504D01*
X2717543Y-2113787D01*
X2712971Y-2104644D01*
X2708399Y-2100071D01*
X2694683Y-2095500D01*
X2653789Y-2095500D01*
X2747515Y-2145537D02*
G01*
X2747515Y-2050034D01*
X2845813Y-2122931D02*
G01*
X2841241Y-2132076D01*
X2832097Y-2140965D01*
X2822953Y-2145537D01*
X2804919Y-2145537D01*
X2795775Y-2140965D01*
X2786631Y-2132076D01*
X2782059Y-2122931D01*
X2777487Y-2109215D01*
X2777487Y-2086610D01*
X2782059Y-2072894D01*
X2786631Y-2063750D01*
X2795775Y-2054605D01*
X2804919Y-2050034D01*
X2822953Y-2050034D01*
X2832097Y-2054605D01*
X2841241Y-2063750D01*
X2845813Y-2072894D01*
X2902963Y-2145537D02*
G01*
X2893819Y-2140965D01*
X2884929Y-2132076D01*
X2880357Y-2122931D01*
X2875785Y-2109215D01*
X2875785Y-2086610D01*
X2880357Y-2072894D01*
X2884929Y-2063750D01*
X2893819Y-2054605D01*
X2902963Y-2050034D01*
X2921251Y-2050034D01*
X2930141Y-2054605D01*
X2939285Y-2063750D01*
X2943857Y-2072894D01*
X2948429Y-2086610D01*
X2948429Y-2109215D01*
X2943857Y-2122931D01*
X2939285Y-2132076D01*
X2930141Y-2140965D01*
X2921251Y-2145537D01*
X2902963Y-2145537D01*
X5891202Y-2196919D02*
G01*
X5900346Y-2206063D01*
X5904918Y-2219779D01*
X5904918Y-2237813D01*
X5900346Y-2251529D01*
X5891202Y-2260673D01*
X5882058Y-2260673D01*
X5872914Y-2256101D01*
X5868342Y-2251529D01*
X5864024Y-2242385D01*
X5854880Y-2215207D01*
X5850308Y-2206063D01*
X5845736Y-2201491D01*
X5836592Y-2196919D01*
X5822876Y-2196919D01*
X5813986Y-2206063D01*
X5809414Y-2219779D01*
X5809414Y-2237813D01*
X5813986Y-2251529D01*
X5822876Y-2260673D01*
X5904918Y-2166947D02*
G01*
X5900346Y-2162375D01*
X5904918Y-2157803D01*
X5909236Y-2162375D01*
X5904918Y-2166947D01*
X5872914Y-2162375D02*
G01*
X5809414Y-2162375D01*
X5904918Y-2127831D02*
G01*
X5809414Y-2127831D01*
X5904918Y-2127831D02*
G01*
X5904918Y-2086937D01*
X5900346Y-2073221D01*
X5895774Y-2068903D01*
X5886630Y-2064331D01*
X5872914Y-2064331D01*
X5864024Y-2068903D01*
X5859452Y-2073221D01*
X5854880Y-2086937D01*
X5854880Y-2127831D01*
X5904918Y-2034359D02*
G01*
X5809414Y-2034359D01*
X5904918Y-2034359D02*
G01*
X5809414Y-1997783D01*
X5904918Y-1961461D02*
G01*
X5809414Y-1997783D01*
X5904918Y-1961461D02*
G01*
X5809414Y-1961461D01*
D14*
X-2Y-1096302D02*
G01*
X-2Y-3196374D01*
X5099809Y-3196374D01*
X5099809Y-1096302D01*
X-2Y-1096302D01*
X6067516Y-1770776D02*
G01*
X5667466Y-1770776D01*
X5517352Y-1920890D02*
G01*
X5517606Y-2320940D01*
X5667212Y-2471054D02*
G01*
X6067516Y-2470800D01*
X6217376Y-2320940D02*
G01*
X6217376Y-1920890D01*
D15*
G75*
G01
X6387389Y-2620899D02*
G03X6387389Y-2620899I-19990J0D01*
X6273800Y-355600D02*
G01*
X6781800Y-355600D01*
X6781800Y-1255598D01*
X6273800Y-1255598D01*
X6273800Y-355600D01*
X6565900Y-355600D02*
G01*
X6781800Y-355600D01*
X6781800Y-774700D01*
X6565900Y-774700D01*
X6565900Y-355600D01*
M02*
