G04 Layer: InnerLayer1*
G04 EasyEDA v6.5.44, 2024-07-23 11:26:01*
G04 fa6d6c6f67624019b56d640f781358e2,6e2a8d9c20784516b523f05fecaed983,10*
G04 Gerber Generator version 0.2*
G04 Scale: 100 percent, Rotated: No, Reflected: No *
G04 Dimensions in millimeters *
G04 leading zeros omitted , absolute positions ,4 integer and 5 decimal *
%FSLAX45Y45*%
%MOMM*%

%ADD10C,0.4000*%
%ADD11R,1.7000X1.7000*%
%ADD12C,1.7000*%
%ADD13C,0.6200*%

%LPD*%
G36*
X200863Y-4126484D02*
G01*
X182422Y-4125518D01*
X165557Y-4122978D01*
X148996Y-4118813D01*
X132943Y-4112971D01*
X117500Y-4105656D01*
X102870Y-4096816D01*
X89204Y-4086606D01*
X76606Y-4075125D01*
X65125Y-4062425D01*
X55016Y-4048658D01*
X46278Y-4033977D01*
X39014Y-4018534D01*
X33324Y-4002430D01*
X29209Y-3985869D01*
X26771Y-3968953D01*
X25908Y-3951528D01*
X25908Y-353263D01*
X26873Y-334822D01*
X29413Y-317957D01*
X33578Y-301396D01*
X39420Y-285343D01*
X46736Y-269900D01*
X55575Y-255270D01*
X65786Y-241604D01*
X77266Y-229006D01*
X89966Y-217525D01*
X103733Y-207416D01*
X118414Y-198678D01*
X133858Y-191414D01*
X149961Y-185724D01*
X166522Y-181610D01*
X183438Y-179171D01*
X200863Y-178308D01*
X6799122Y-178308D01*
X6817563Y-179273D01*
X6834428Y-181813D01*
X6850989Y-185978D01*
X6867042Y-191820D01*
X6882485Y-199136D01*
X6897116Y-207975D01*
X6910781Y-218186D01*
X6923379Y-229666D01*
X6934860Y-242366D01*
X6944969Y-256133D01*
X6953707Y-270814D01*
X6960971Y-286258D01*
X6966661Y-302361D01*
X6970775Y-318922D01*
X6973214Y-335838D01*
X6974078Y-353263D01*
X6974078Y-3951528D01*
X6973112Y-3969969D01*
X6970572Y-3986834D01*
X6966407Y-4003395D01*
X6960565Y-4019448D01*
X6953250Y-4034891D01*
X6944410Y-4049522D01*
X6934200Y-4063187D01*
X6922719Y-4075785D01*
X6910019Y-4087266D01*
X6896252Y-4097375D01*
X6881571Y-4106113D01*
X6866128Y-4113377D01*
X6850024Y-4119067D01*
X6833463Y-4123182D01*
X6816547Y-4125620D01*
X6799122Y-4126484D01*
G37*

%LPC*%
G36*
X202336Y-3774135D02*
G01*
X214172Y-3773728D01*
X225755Y-3771544D01*
X236931Y-3767734D01*
X247446Y-3762349D01*
X257048Y-3755491D01*
X265531Y-3747262D01*
X272745Y-3737965D01*
X278536Y-3727653D01*
X282752Y-3716629D01*
X285343Y-3705098D01*
X286207Y-3693312D01*
X285343Y-3681526D01*
X282752Y-3669995D01*
X278536Y-3658971D01*
X272745Y-3648659D01*
X265531Y-3639362D01*
X257048Y-3631133D01*
X247446Y-3624275D01*
X236931Y-3618890D01*
X225755Y-3615080D01*
X214172Y-3612896D01*
X202336Y-3612489D01*
X190601Y-3613759D01*
X179171Y-3616756D01*
X168300Y-3621379D01*
X158242Y-3627526D01*
X149148Y-3635095D01*
X141274Y-3643884D01*
X134772Y-3653739D01*
X129743Y-3664407D01*
X126339Y-3675735D01*
X124663Y-3687419D01*
X124663Y-3699205D01*
X126339Y-3710889D01*
X129743Y-3722217D01*
X134772Y-3732885D01*
X141274Y-3742740D01*
X149148Y-3751529D01*
X158242Y-3759098D01*
X168300Y-3765245D01*
X179171Y-3769868D01*
X190601Y-3772865D01*
G37*
G36*
X3825138Y-3739845D02*
G01*
X3834688Y-3738575D01*
X3843883Y-3735781D01*
X3852519Y-3731412D01*
X3860292Y-3725672D01*
X3866946Y-3718712D01*
X3872331Y-3710736D01*
X3876344Y-3701948D01*
X3878732Y-3692601D01*
X3879596Y-3683000D01*
X3878732Y-3673398D01*
X3876344Y-3664051D01*
X3872331Y-3655263D01*
X3870350Y-3652316D01*
X3869029Y-3649573D01*
X3868623Y-3646627D01*
X3868623Y-3461765D01*
X3869588Y-3457448D01*
X3872280Y-3453993D01*
X3876192Y-3451961D01*
X3880612Y-3451809D01*
X3884676Y-3453536D01*
X3887622Y-3456838D01*
X3889857Y-3460851D01*
X3895953Y-3468370D01*
X3903167Y-3474720D01*
X3911396Y-3479800D01*
X3920337Y-3483356D01*
X3929786Y-3485387D01*
X3939438Y-3485845D01*
X3948988Y-3484575D01*
X3958183Y-3481781D01*
X3966819Y-3477412D01*
X3974592Y-3471672D01*
X3981246Y-3464712D01*
X3986631Y-3456736D01*
X3990644Y-3447948D01*
X3993032Y-3438601D01*
X3993896Y-3429000D01*
X3993032Y-3419398D01*
X3990644Y-3410051D01*
X3986631Y-3401263D01*
X3981246Y-3393287D01*
X3974592Y-3386328D01*
X3966768Y-3380536D01*
X3959148Y-3376574D01*
X3956050Y-3374085D01*
X3954119Y-3370579D01*
X3953713Y-3366617D01*
X3954830Y-3362807D01*
X3957370Y-3359759D01*
X3960876Y-3357829D01*
X3970883Y-3354781D01*
X3979519Y-3350412D01*
X3987292Y-3344672D01*
X3993946Y-3337712D01*
X3999331Y-3329736D01*
X4003344Y-3320948D01*
X4005732Y-3311601D01*
X4006596Y-3302000D01*
X4005732Y-3292398D01*
X4003344Y-3283051D01*
X3999331Y-3274263D01*
X3993946Y-3266287D01*
X3987292Y-3259328D01*
X3979519Y-3253587D01*
X3970883Y-3249218D01*
X3961688Y-3246424D01*
X3952138Y-3245154D01*
X3942486Y-3245612D01*
X3933037Y-3247644D01*
X3924096Y-3251200D01*
X3915867Y-3256279D01*
X3908653Y-3262629D01*
X3902557Y-3270148D01*
X3897884Y-3278581D01*
X3894683Y-3287674D01*
X3893058Y-3297174D01*
X3893058Y-3306826D01*
X3894683Y-3316325D01*
X3897884Y-3325418D01*
X3902557Y-3333851D01*
X3908653Y-3341370D01*
X3915867Y-3347720D01*
X3924096Y-3352800D01*
X3927398Y-3354120D01*
X3930904Y-3356508D01*
X3933190Y-3360165D01*
X3933698Y-3364382D01*
X3932478Y-3368497D01*
X3929634Y-3371697D01*
X3925722Y-3373475D01*
X3920337Y-3374644D01*
X3911396Y-3378200D01*
X3903167Y-3383279D01*
X3895953Y-3389629D01*
X3889857Y-3397148D01*
X3887622Y-3401161D01*
X3884676Y-3404463D01*
X3880612Y-3406190D01*
X3876192Y-3406038D01*
X3872280Y-3404006D01*
X3869588Y-3400551D01*
X3868623Y-3396234D01*
X3868572Y-2741422D01*
X3867353Y-2732684D01*
X3864660Y-2724658D01*
X3860546Y-2717292D01*
X3854805Y-2710383D01*
X3703167Y-2558745D01*
X3701542Y-2556611D01*
X3700526Y-2554122D01*
X3698544Y-2546451D01*
X3694531Y-2537663D01*
X3689146Y-2529687D01*
X3682492Y-2522728D01*
X3674719Y-2516987D01*
X3666083Y-2512618D01*
X3656888Y-2509824D01*
X3647338Y-2508554D01*
X3637686Y-2509012D01*
X3628237Y-2511044D01*
X3619296Y-2514600D01*
X3611067Y-2519680D01*
X3603853Y-2526030D01*
X3597757Y-2533548D01*
X3593084Y-2541981D01*
X3589883Y-2551074D01*
X3588258Y-2560574D01*
X3588258Y-2570226D01*
X3589883Y-2579725D01*
X3593084Y-2588818D01*
X3597757Y-2597251D01*
X3603853Y-2604770D01*
X3611067Y-2611120D01*
X3619296Y-2616200D01*
X3628237Y-2619756D01*
X3633114Y-2620822D01*
X3635806Y-2621838D01*
X3638143Y-2623566D01*
X3773830Y-2759252D01*
X3776014Y-2762554D01*
X3776776Y-2766415D01*
X3776776Y-3646322D01*
X3776472Y-3648913D01*
X3775506Y-3651300D01*
X3770884Y-3659581D01*
X3767683Y-3668674D01*
X3766058Y-3678174D01*
X3766058Y-3687826D01*
X3767683Y-3697325D01*
X3770884Y-3706418D01*
X3775557Y-3714851D01*
X3781653Y-3722370D01*
X3788867Y-3728720D01*
X3797096Y-3733800D01*
X3806037Y-3737356D01*
X3815486Y-3739387D01*
G37*
G36*
X3418738Y-3676345D02*
G01*
X3428288Y-3675075D01*
X3437483Y-3672281D01*
X3446119Y-3667912D01*
X3453892Y-3662172D01*
X3460546Y-3655212D01*
X3465931Y-3647236D01*
X3469944Y-3638448D01*
X3472332Y-3629101D01*
X3473196Y-3619500D01*
X3472332Y-3609898D01*
X3469944Y-3600551D01*
X3465931Y-3591763D01*
X3460546Y-3583787D01*
X3453892Y-3576828D01*
X3446119Y-3571087D01*
X3437483Y-3566718D01*
X3428288Y-3563924D01*
X3418738Y-3562654D01*
X3409086Y-3563112D01*
X3399637Y-3565144D01*
X3390696Y-3568700D01*
X3382467Y-3573779D01*
X3375253Y-3580129D01*
X3369157Y-3587648D01*
X3364484Y-3596081D01*
X3361283Y-3605174D01*
X3359658Y-3614674D01*
X3359658Y-3624326D01*
X3361283Y-3633825D01*
X3364484Y-3642918D01*
X3369157Y-3651351D01*
X3375253Y-3658870D01*
X3382467Y-3665220D01*
X3390696Y-3670300D01*
X3399637Y-3673856D01*
X3409086Y-3675887D01*
G37*
G36*
X4434738Y-3650945D02*
G01*
X4444288Y-3649675D01*
X4453483Y-3646881D01*
X4462119Y-3642512D01*
X4469892Y-3636772D01*
X4476546Y-3629812D01*
X4481931Y-3621836D01*
X4485944Y-3613048D01*
X4488332Y-3603701D01*
X4489196Y-3594100D01*
X4488332Y-3584498D01*
X4485944Y-3575151D01*
X4481931Y-3566363D01*
X4476546Y-3558387D01*
X4469892Y-3551428D01*
X4462119Y-3545687D01*
X4453483Y-3541318D01*
X4444288Y-3538524D01*
X4434738Y-3537254D01*
X4425086Y-3537712D01*
X4415637Y-3539744D01*
X4406696Y-3543300D01*
X4398467Y-3548379D01*
X4391253Y-3554729D01*
X4385157Y-3562248D01*
X4380484Y-3570681D01*
X4377283Y-3579774D01*
X4375658Y-3589274D01*
X4375658Y-3598926D01*
X4377283Y-3608425D01*
X4380484Y-3617518D01*
X4385157Y-3625951D01*
X4391253Y-3633470D01*
X4398467Y-3639820D01*
X4406696Y-3644900D01*
X4415637Y-3648456D01*
X4425086Y-3650487D01*
G37*
G36*
X202336Y-3474161D02*
G01*
X214172Y-3473704D01*
X225755Y-3471570D01*
X236931Y-3467760D01*
X247446Y-3462375D01*
X257048Y-3455466D01*
X265531Y-3447287D01*
X272745Y-3437940D01*
X278536Y-3427628D01*
X282752Y-3416604D01*
X285343Y-3405073D01*
X286207Y-3393338D01*
X285343Y-3381552D01*
X282752Y-3370021D01*
X278536Y-3358997D01*
X272745Y-3348685D01*
X265531Y-3339337D01*
X257048Y-3331159D01*
X247446Y-3324250D01*
X236931Y-3318865D01*
X225755Y-3315055D01*
X214172Y-3312922D01*
X202336Y-3312464D01*
X190601Y-3313785D01*
X179171Y-3316782D01*
X168300Y-3321405D01*
X158242Y-3327552D01*
X149148Y-3335070D01*
X141274Y-3343859D01*
X134772Y-3353714D01*
X129743Y-3364433D01*
X126339Y-3375710D01*
X124663Y-3387394D01*
X124663Y-3399231D01*
X126339Y-3410915D01*
X129743Y-3422192D01*
X134772Y-3432911D01*
X141274Y-3442766D01*
X149148Y-3451555D01*
X158242Y-3459073D01*
X168300Y-3465220D01*
X179171Y-3469843D01*
X190601Y-3472840D01*
G37*
G36*
X6479438Y-3396945D02*
G01*
X6488988Y-3395675D01*
X6498183Y-3392881D01*
X6506819Y-3388512D01*
X6514592Y-3382772D01*
X6521246Y-3375812D01*
X6526631Y-3367836D01*
X6530644Y-3359048D01*
X6533032Y-3349701D01*
X6533896Y-3340100D01*
X6533032Y-3330498D01*
X6530644Y-3321151D01*
X6526631Y-3312363D01*
X6521246Y-3304387D01*
X6514592Y-3297428D01*
X6506819Y-3291687D01*
X6498183Y-3287318D01*
X6488988Y-3284524D01*
X6479438Y-3283254D01*
X6469786Y-3283712D01*
X6460337Y-3285744D01*
X6451396Y-3289300D01*
X6443167Y-3294379D01*
X6435953Y-3300729D01*
X6429857Y-3308248D01*
X6425184Y-3316681D01*
X6421983Y-3325774D01*
X6420358Y-3335274D01*
X6420358Y-3344926D01*
X6421983Y-3354425D01*
X6425184Y-3363518D01*
X6429857Y-3371951D01*
X6435953Y-3379470D01*
X6443167Y-3385820D01*
X6451396Y-3390900D01*
X6460337Y-3394456D01*
X6469786Y-3396487D01*
G37*
G36*
X2301138Y-3384245D02*
G01*
X2310688Y-3382975D01*
X2319883Y-3380181D01*
X2328519Y-3375812D01*
X2336292Y-3370072D01*
X2342946Y-3363112D01*
X2348331Y-3355136D01*
X2352344Y-3346348D01*
X2354732Y-3337001D01*
X2355596Y-3327400D01*
X2354732Y-3317798D01*
X2352344Y-3308451D01*
X2348331Y-3299663D01*
X2342946Y-3291687D01*
X2336292Y-3284728D01*
X2328519Y-3278987D01*
X2319883Y-3274618D01*
X2310688Y-3271824D01*
X2301138Y-3270554D01*
X2291486Y-3271012D01*
X2282037Y-3273044D01*
X2273096Y-3276600D01*
X2264867Y-3281679D01*
X2257653Y-3288029D01*
X2251557Y-3295548D01*
X2246884Y-3303981D01*
X2243683Y-3313074D01*
X2242058Y-3322574D01*
X2242058Y-3332226D01*
X2243683Y-3341725D01*
X2246884Y-3350818D01*
X2251557Y-3359251D01*
X2257653Y-3366770D01*
X2264867Y-3373120D01*
X2273096Y-3378200D01*
X2282037Y-3381756D01*
X2291486Y-3383787D01*
G37*
G36*
X1310538Y-3371545D02*
G01*
X1320088Y-3370275D01*
X1329283Y-3367481D01*
X1337919Y-3363112D01*
X1345692Y-3357372D01*
X1352346Y-3350412D01*
X1357731Y-3342436D01*
X1361744Y-3333648D01*
X1364132Y-3324301D01*
X1364996Y-3314700D01*
X1364132Y-3305098D01*
X1361744Y-3295751D01*
X1357731Y-3286963D01*
X1352346Y-3278987D01*
X1345692Y-3272028D01*
X1337919Y-3266287D01*
X1329283Y-3261918D01*
X1320088Y-3259124D01*
X1310538Y-3257854D01*
X1300886Y-3258312D01*
X1291437Y-3260344D01*
X1282496Y-3263900D01*
X1274267Y-3268979D01*
X1267053Y-3275329D01*
X1260957Y-3282848D01*
X1256284Y-3291281D01*
X1253083Y-3300374D01*
X1251458Y-3309874D01*
X1251458Y-3319526D01*
X1253083Y-3329025D01*
X1256284Y-3338118D01*
X1260957Y-3346551D01*
X1267053Y-3354070D01*
X1274267Y-3360420D01*
X1282496Y-3365500D01*
X1291437Y-3369056D01*
X1300886Y-3371087D01*
G37*
G36*
X5298338Y-3333445D02*
G01*
X5307888Y-3332175D01*
X5317083Y-3329381D01*
X5325719Y-3325012D01*
X5333492Y-3319272D01*
X5340146Y-3312312D01*
X5345531Y-3304336D01*
X5349544Y-3295548D01*
X5351932Y-3286201D01*
X5352796Y-3276600D01*
X5351932Y-3266998D01*
X5349544Y-3257651D01*
X5345531Y-3248863D01*
X5340146Y-3240887D01*
X5333492Y-3233928D01*
X5325719Y-3228187D01*
X5317083Y-3223818D01*
X5307888Y-3221024D01*
X5298338Y-3219754D01*
X5288686Y-3220212D01*
X5279237Y-3222244D01*
X5270296Y-3225800D01*
X5262067Y-3230880D01*
X5254853Y-3237230D01*
X5248757Y-3244748D01*
X5244084Y-3253181D01*
X5240883Y-3262274D01*
X5239258Y-3271774D01*
X5239258Y-3281426D01*
X5240883Y-3290925D01*
X5244084Y-3300018D01*
X5248757Y-3308451D01*
X5254853Y-3315970D01*
X5262067Y-3322320D01*
X5270296Y-3327400D01*
X5279237Y-3330956D01*
X5288686Y-3332987D01*
G37*
G36*
X6073038Y-3282645D02*
G01*
X6082588Y-3281375D01*
X6091783Y-3278581D01*
X6100419Y-3274212D01*
X6108192Y-3268472D01*
X6114846Y-3261512D01*
X6120231Y-3253536D01*
X6124244Y-3244748D01*
X6126632Y-3235401D01*
X6127496Y-3225800D01*
X6126632Y-3216198D01*
X6124244Y-3206851D01*
X6120231Y-3198063D01*
X6114846Y-3190087D01*
X6108192Y-3183128D01*
X6100419Y-3177387D01*
X6091783Y-3173018D01*
X6082588Y-3170224D01*
X6073038Y-3168954D01*
X6063386Y-3169412D01*
X6053937Y-3171444D01*
X6044996Y-3175000D01*
X6036767Y-3180080D01*
X6029553Y-3186430D01*
X6023457Y-3193948D01*
X6018784Y-3202381D01*
X6015583Y-3211474D01*
X6013958Y-3220974D01*
X6013958Y-3230626D01*
X6015583Y-3240125D01*
X6018784Y-3249218D01*
X6023457Y-3257651D01*
X6029553Y-3265170D01*
X6036767Y-3271520D01*
X6044996Y-3276600D01*
X6053937Y-3280156D01*
X6063386Y-3282187D01*
G37*
G36*
X5133238Y-3219145D02*
G01*
X5142788Y-3217875D01*
X5151983Y-3215081D01*
X5160619Y-3210712D01*
X5168392Y-3204972D01*
X5175046Y-3198012D01*
X5180431Y-3190036D01*
X5184444Y-3181248D01*
X5186832Y-3171901D01*
X5187696Y-3162300D01*
X5186832Y-3152698D01*
X5184444Y-3143351D01*
X5180431Y-3134563D01*
X5175046Y-3126587D01*
X5168392Y-3119628D01*
X5160619Y-3113887D01*
X5151983Y-3109518D01*
X5142788Y-3106724D01*
X5133238Y-3105454D01*
X5123586Y-3105912D01*
X5114137Y-3107944D01*
X5105196Y-3111500D01*
X5096967Y-3116580D01*
X5089753Y-3122930D01*
X5083657Y-3130448D01*
X5078984Y-3138881D01*
X5075783Y-3147974D01*
X5074158Y-3157474D01*
X5074158Y-3167126D01*
X5075783Y-3176625D01*
X5078984Y-3185718D01*
X5083657Y-3194151D01*
X5089753Y-3201670D01*
X5096967Y-3208020D01*
X5105196Y-3213100D01*
X5114137Y-3216656D01*
X5123586Y-3218688D01*
G37*
G36*
X6320434Y-3142640D02*
G01*
X6329984Y-3141370D01*
X6339179Y-3138576D01*
X6347815Y-3134207D01*
X6355588Y-3128467D01*
X6362242Y-3121507D01*
X6367627Y-3113532D01*
X6371640Y-3104743D01*
X6374028Y-3095396D01*
X6374892Y-3085795D01*
X6374028Y-3076194D01*
X6371640Y-3066846D01*
X6367627Y-3058058D01*
X6362242Y-3050082D01*
X6355588Y-3043123D01*
X6347815Y-3037382D01*
X6339179Y-3033014D01*
X6329984Y-3030220D01*
X6320434Y-3028950D01*
X6310782Y-3029407D01*
X6301333Y-3031439D01*
X6292392Y-3034995D01*
X6284163Y-3040075D01*
X6276949Y-3046425D01*
X6270853Y-3053943D01*
X6266180Y-3062376D01*
X6262979Y-3071469D01*
X6261354Y-3080969D01*
X6261354Y-3090621D01*
X6262979Y-3100120D01*
X6266180Y-3109214D01*
X6270853Y-3117646D01*
X6276949Y-3125165D01*
X6284163Y-3131515D01*
X6292392Y-3136595D01*
X6301333Y-3140151D01*
X6310782Y-3142183D01*
G37*
G36*
X5603138Y-3130245D02*
G01*
X5612688Y-3128975D01*
X5621883Y-3126181D01*
X5630519Y-3121812D01*
X5638292Y-3116072D01*
X5644946Y-3109112D01*
X5650331Y-3101136D01*
X5654344Y-3092348D01*
X5656732Y-3083001D01*
X5657596Y-3073400D01*
X5656732Y-3063798D01*
X5654344Y-3054451D01*
X5650331Y-3045663D01*
X5644946Y-3037687D01*
X5638292Y-3030728D01*
X5630519Y-3024987D01*
X5621883Y-3020618D01*
X5612688Y-3017824D01*
X5603138Y-3016554D01*
X5593486Y-3017012D01*
X5584037Y-3019044D01*
X5575096Y-3022600D01*
X5566867Y-3027680D01*
X5559653Y-3034030D01*
X5553557Y-3041548D01*
X5548884Y-3049981D01*
X5545683Y-3059074D01*
X5544058Y-3068574D01*
X5544058Y-3078226D01*
X5545683Y-3087725D01*
X5548884Y-3096818D01*
X5553557Y-3105251D01*
X5559653Y-3112770D01*
X5566867Y-3119120D01*
X5575096Y-3124200D01*
X5584037Y-3127756D01*
X5593486Y-3129788D01*
G37*
G36*
X1221638Y-2952445D02*
G01*
X1231188Y-2951175D01*
X1240383Y-2948381D01*
X1249019Y-2944012D01*
X1256792Y-2938272D01*
X1263446Y-2931312D01*
X1268831Y-2923336D01*
X1272844Y-2914548D01*
X1275232Y-2905201D01*
X1276096Y-2895600D01*
X1275232Y-2885998D01*
X1272844Y-2876651D01*
X1268831Y-2867863D01*
X1263446Y-2859887D01*
X1256792Y-2852928D01*
X1249019Y-2847187D01*
X1240383Y-2842818D01*
X1231188Y-2840024D01*
X1221638Y-2838754D01*
X1211986Y-2839212D01*
X1202537Y-2841244D01*
X1193596Y-2844800D01*
X1185367Y-2849880D01*
X1178153Y-2856230D01*
X1172057Y-2863748D01*
X1167384Y-2872181D01*
X1164183Y-2881274D01*
X1162558Y-2890774D01*
X1162558Y-2900426D01*
X1164183Y-2909925D01*
X1167384Y-2919018D01*
X1172057Y-2927451D01*
X1178153Y-2934970D01*
X1185367Y-2941320D01*
X1193596Y-2946400D01*
X1202537Y-2949956D01*
X1211986Y-2951988D01*
G37*
G36*
X1450238Y-2939745D02*
G01*
X1459788Y-2938475D01*
X1468983Y-2935681D01*
X1477619Y-2931312D01*
X1485392Y-2925572D01*
X1492046Y-2918612D01*
X1497431Y-2910636D01*
X1501444Y-2901848D01*
X1503832Y-2892501D01*
X1504696Y-2882900D01*
X1503832Y-2873298D01*
X1501444Y-2863951D01*
X1497431Y-2855163D01*
X1492046Y-2847187D01*
X1485392Y-2840228D01*
X1477619Y-2834487D01*
X1468983Y-2830118D01*
X1459788Y-2827324D01*
X1450238Y-2826054D01*
X1440586Y-2826512D01*
X1431137Y-2828544D01*
X1422196Y-2832100D01*
X1413967Y-2837180D01*
X1406753Y-2843530D01*
X1400657Y-2851048D01*
X1395984Y-2859481D01*
X1392783Y-2868574D01*
X1391158Y-2878074D01*
X1391158Y-2887726D01*
X1392783Y-2897225D01*
X1395984Y-2906318D01*
X1400657Y-2914751D01*
X1406753Y-2922270D01*
X1413967Y-2928620D01*
X1422196Y-2933700D01*
X1431137Y-2937256D01*
X1440586Y-2939288D01*
G37*
G36*
X2758338Y-2927045D02*
G01*
X2767888Y-2925775D01*
X2777083Y-2922981D01*
X2785719Y-2918612D01*
X2793492Y-2912872D01*
X2800146Y-2905912D01*
X2805531Y-2897936D01*
X2809544Y-2889148D01*
X2811932Y-2879801D01*
X2812796Y-2870200D01*
X2811932Y-2860598D01*
X2809544Y-2851251D01*
X2805531Y-2842463D01*
X2800146Y-2834487D01*
X2793492Y-2827528D01*
X2785719Y-2821787D01*
X2777083Y-2817418D01*
X2767888Y-2814624D01*
X2758338Y-2813354D01*
X2748686Y-2813812D01*
X2739237Y-2815844D01*
X2730296Y-2819400D01*
X2722067Y-2824480D01*
X2714853Y-2830830D01*
X2708757Y-2838348D01*
X2704084Y-2846781D01*
X2700883Y-2855874D01*
X2699258Y-2865374D01*
X2699258Y-2875026D01*
X2700883Y-2884525D01*
X2704084Y-2893618D01*
X2708757Y-2902051D01*
X2714853Y-2909570D01*
X2722067Y-2915920D01*
X2730296Y-2921000D01*
X2739237Y-2924556D01*
X2748686Y-2926588D01*
G37*
G36*
X1729638Y-2914345D02*
G01*
X1739188Y-2913075D01*
X1748383Y-2910281D01*
X1757019Y-2905912D01*
X1764792Y-2900172D01*
X1771446Y-2893212D01*
X1776831Y-2885236D01*
X1780844Y-2876448D01*
X1783232Y-2867101D01*
X1784096Y-2857500D01*
X1783232Y-2847898D01*
X1780844Y-2838551D01*
X1776831Y-2829763D01*
X1771446Y-2821787D01*
X1764792Y-2814828D01*
X1757019Y-2809087D01*
X1748383Y-2804718D01*
X1739188Y-2801924D01*
X1729638Y-2800654D01*
X1719986Y-2801112D01*
X1710537Y-2803144D01*
X1701596Y-2806700D01*
X1693367Y-2811780D01*
X1686153Y-2818130D01*
X1680057Y-2825648D01*
X1675384Y-2834081D01*
X1672183Y-2843174D01*
X1670557Y-2852674D01*
X1670557Y-2862326D01*
X1672183Y-2871825D01*
X1675384Y-2880918D01*
X1680057Y-2889351D01*
X1686153Y-2896870D01*
X1693367Y-2903220D01*
X1701596Y-2908300D01*
X1710537Y-2911856D01*
X1719986Y-2913888D01*
G37*
G36*
X446938Y-2914345D02*
G01*
X456488Y-2913075D01*
X465683Y-2910281D01*
X474319Y-2905912D01*
X482092Y-2900172D01*
X488746Y-2893212D01*
X494131Y-2885236D01*
X498144Y-2876448D01*
X500532Y-2867101D01*
X501396Y-2857500D01*
X500532Y-2847898D01*
X498144Y-2838551D01*
X494131Y-2829763D01*
X488746Y-2821787D01*
X482092Y-2814828D01*
X474319Y-2809087D01*
X465683Y-2804718D01*
X456488Y-2801924D01*
X446938Y-2800654D01*
X437286Y-2801112D01*
X427837Y-2803144D01*
X418896Y-2806700D01*
X410667Y-2811780D01*
X403453Y-2818130D01*
X397357Y-2825648D01*
X392684Y-2834081D01*
X389483Y-2843174D01*
X387858Y-2852674D01*
X387858Y-2862326D01*
X389483Y-2871825D01*
X392684Y-2880918D01*
X397357Y-2889351D01*
X403453Y-2896870D01*
X410667Y-2903220D01*
X418896Y-2908300D01*
X427837Y-2911856D01*
X437286Y-2913888D01*
G37*
G36*
X116738Y-2914345D02*
G01*
X126288Y-2913075D01*
X135483Y-2910281D01*
X144119Y-2905912D01*
X151892Y-2900172D01*
X158546Y-2893212D01*
X163931Y-2885236D01*
X167944Y-2876448D01*
X170332Y-2867101D01*
X171196Y-2857500D01*
X170332Y-2847898D01*
X167944Y-2838551D01*
X163931Y-2829763D01*
X158546Y-2821787D01*
X151892Y-2814828D01*
X144119Y-2809087D01*
X135483Y-2804718D01*
X126288Y-2801924D01*
X116738Y-2800654D01*
X107086Y-2801112D01*
X97637Y-2803144D01*
X88696Y-2806700D01*
X80467Y-2811780D01*
X73253Y-2818130D01*
X67157Y-2825648D01*
X62484Y-2834081D01*
X59283Y-2843174D01*
X57658Y-2852674D01*
X57658Y-2862326D01*
X59283Y-2871825D01*
X62484Y-2880918D01*
X67157Y-2889351D01*
X73253Y-2896870D01*
X80467Y-2903220D01*
X88696Y-2908300D01*
X97637Y-2911856D01*
X107086Y-2913888D01*
G37*
G36*
X5018938Y-2914345D02*
G01*
X5028488Y-2913075D01*
X5037683Y-2910281D01*
X5046319Y-2905912D01*
X5054092Y-2900172D01*
X5060746Y-2893212D01*
X5066131Y-2885236D01*
X5070144Y-2876448D01*
X5072532Y-2867101D01*
X5073396Y-2857500D01*
X5072532Y-2847898D01*
X5070144Y-2838551D01*
X5066131Y-2829763D01*
X5060746Y-2821787D01*
X5054092Y-2814828D01*
X5046319Y-2809087D01*
X5037683Y-2804718D01*
X5028488Y-2801924D01*
X5018938Y-2800654D01*
X5009286Y-2801112D01*
X4999837Y-2803144D01*
X4990896Y-2806700D01*
X4982667Y-2811780D01*
X4975453Y-2818130D01*
X4969357Y-2825648D01*
X4964684Y-2834081D01*
X4961483Y-2843174D01*
X4959858Y-2852674D01*
X4959858Y-2862326D01*
X4961483Y-2871825D01*
X4964684Y-2880918D01*
X4969357Y-2889351D01*
X4975453Y-2896870D01*
X4982667Y-2903220D01*
X4990896Y-2908300D01*
X4999837Y-2911856D01*
X5009286Y-2913888D01*
G37*
G36*
X5869838Y-2711145D02*
G01*
X5879388Y-2709875D01*
X5888583Y-2707081D01*
X5897219Y-2702712D01*
X5904992Y-2696972D01*
X5911646Y-2690012D01*
X5917031Y-2682036D01*
X5921044Y-2673248D01*
X5923432Y-2663901D01*
X5924296Y-2654300D01*
X5923432Y-2644698D01*
X5921044Y-2635351D01*
X5917031Y-2626563D01*
X5911646Y-2618587D01*
X5904992Y-2611628D01*
X5897219Y-2605887D01*
X5888583Y-2601518D01*
X5879388Y-2598724D01*
X5869838Y-2597454D01*
X5860186Y-2597912D01*
X5850737Y-2599944D01*
X5841796Y-2603500D01*
X5833567Y-2608580D01*
X5826353Y-2614930D01*
X5820257Y-2622448D01*
X5815584Y-2630881D01*
X5812383Y-2639974D01*
X5810758Y-2649474D01*
X5810758Y-2659126D01*
X5812383Y-2668625D01*
X5815584Y-2677718D01*
X5820257Y-2686151D01*
X5826353Y-2693670D01*
X5833567Y-2700020D01*
X5841796Y-2705100D01*
X5850737Y-2708656D01*
X5860186Y-2710688D01*
G37*
G36*
X6532270Y-2638196D02*
G01*
X6701129Y-2638196D01*
X6707428Y-2637485D01*
X6712915Y-2635605D01*
X6717792Y-2632506D01*
X6721906Y-2628392D01*
X6725005Y-2623515D01*
X6726885Y-2618028D01*
X6727596Y-2611729D01*
X6727596Y-2442870D01*
X6726885Y-2436571D01*
X6725005Y-2431084D01*
X6721906Y-2426208D01*
X6717792Y-2422093D01*
X6712915Y-2418994D01*
X6707428Y-2417114D01*
X6701129Y-2416403D01*
X6532270Y-2416403D01*
X6525971Y-2417114D01*
X6520484Y-2418994D01*
X6515607Y-2422093D01*
X6511493Y-2426208D01*
X6508394Y-2431084D01*
X6506514Y-2436571D01*
X6505803Y-2442870D01*
X6505803Y-2611729D01*
X6506514Y-2618028D01*
X6508394Y-2623515D01*
X6511493Y-2628392D01*
X6515607Y-2632506D01*
X6520484Y-2635605D01*
X6525971Y-2637485D01*
G37*
G36*
X4206138Y-2558745D02*
G01*
X4215688Y-2557475D01*
X4224883Y-2554681D01*
X4233519Y-2550312D01*
X4241292Y-2544572D01*
X4247946Y-2537612D01*
X4253331Y-2529636D01*
X4257344Y-2520848D01*
X4259732Y-2511501D01*
X4260596Y-2501900D01*
X4259732Y-2492298D01*
X4257344Y-2482951D01*
X4253331Y-2474163D01*
X4247946Y-2466187D01*
X4241292Y-2459228D01*
X4233519Y-2453487D01*
X4224883Y-2449118D01*
X4215688Y-2446324D01*
X4206138Y-2445054D01*
X4196486Y-2445512D01*
X4187037Y-2447544D01*
X4178096Y-2451100D01*
X4169867Y-2456180D01*
X4162653Y-2462530D01*
X4156557Y-2470048D01*
X4151884Y-2478481D01*
X4148683Y-2487574D01*
X4147058Y-2497074D01*
X4147058Y-2506726D01*
X4148683Y-2516225D01*
X4151884Y-2525318D01*
X4156557Y-2533751D01*
X4162653Y-2541270D01*
X4169867Y-2547620D01*
X4178096Y-2552700D01*
X4187037Y-2556256D01*
X4196486Y-2558288D01*
G37*
G36*
X1323238Y-2558745D02*
G01*
X1332788Y-2557475D01*
X1341983Y-2554681D01*
X1354175Y-2548331D01*
X1357376Y-2547823D01*
X2414778Y-2547772D01*
X2423515Y-2546553D01*
X2431542Y-2543860D01*
X2438908Y-2539746D01*
X2445816Y-2534005D01*
X3016402Y-1963420D01*
X3018383Y-1961896D01*
X3020669Y-1960880D01*
X3031134Y-1957730D01*
X3039719Y-1953412D01*
X3047492Y-1947672D01*
X3054146Y-1940712D01*
X3059531Y-1932736D01*
X3063544Y-1923948D01*
X3065526Y-1916277D01*
X3066542Y-1913788D01*
X3068167Y-1911654D01*
X3610152Y-1369669D01*
X3613454Y-1367485D01*
X3617315Y-1366723D01*
X5145227Y-1366723D01*
X5147970Y-1367078D01*
X5150510Y-1368196D01*
X5155996Y-1371600D01*
X5164937Y-1375156D01*
X5174386Y-1377188D01*
X5184038Y-1377645D01*
X5193588Y-1376375D01*
X5202783Y-1373581D01*
X5211419Y-1369212D01*
X5219192Y-1363472D01*
X5225846Y-1356512D01*
X5231231Y-1348536D01*
X5235244Y-1339748D01*
X5237632Y-1330401D01*
X5238496Y-1320800D01*
X5237632Y-1311198D01*
X5235244Y-1301851D01*
X5231231Y-1293063D01*
X5225846Y-1285087D01*
X5219192Y-1278128D01*
X5211419Y-1272387D01*
X5202783Y-1268018D01*
X5193588Y-1265224D01*
X5184038Y-1263954D01*
X5174386Y-1264412D01*
X5164937Y-1266444D01*
X5155996Y-1270000D01*
X5150510Y-1273403D01*
X5147970Y-1274521D01*
X5145227Y-1274876D01*
X3592322Y-1274927D01*
X3583584Y-1276146D01*
X3575558Y-1278839D01*
X3568192Y-1282954D01*
X3561283Y-1288694D01*
X3003143Y-1846834D01*
X3000806Y-1848561D01*
X2998114Y-1849577D01*
X2993237Y-1850643D01*
X2984296Y-1854200D01*
X2976067Y-1859280D01*
X2968853Y-1865630D01*
X2962757Y-1873148D01*
X2958084Y-1881581D01*
X2954883Y-1890674D01*
X2953512Y-1895805D01*
X2951683Y-1898294D01*
X2396947Y-2453030D01*
X2393645Y-2455214D01*
X2389784Y-2455976D01*
X1357376Y-2455976D01*
X1354175Y-2455468D01*
X1341983Y-2449118D01*
X1332788Y-2446324D01*
X1323238Y-2445054D01*
X1313586Y-2445512D01*
X1304137Y-2447544D01*
X1295196Y-2451100D01*
X1286967Y-2456180D01*
X1279753Y-2462530D01*
X1273657Y-2470048D01*
X1268984Y-2478481D01*
X1265783Y-2487574D01*
X1264158Y-2497074D01*
X1264158Y-2506726D01*
X1265783Y-2516225D01*
X1268984Y-2525318D01*
X1273657Y-2533751D01*
X1279753Y-2541270D01*
X1286967Y-2547620D01*
X1295196Y-2552700D01*
X1304137Y-2556256D01*
X1313586Y-2558288D01*
G37*
G36*
X6609588Y-2383942D02*
G01*
X6623812Y-2383942D01*
X6637883Y-2382164D01*
X6651650Y-2378557D01*
X6664807Y-2373223D01*
X6677202Y-2366213D01*
X6688581Y-2357729D01*
X6698792Y-2347874D01*
X6707631Y-2336749D01*
X6714998Y-2324608D01*
X6720789Y-2311603D01*
X6724802Y-2297988D01*
X6727088Y-2283968D01*
X6727545Y-2269744D01*
X6726174Y-2255621D01*
X6723024Y-2241753D01*
X6718096Y-2228392D01*
X6711543Y-2215794D01*
X6703415Y-2204161D01*
X6693865Y-2193645D01*
X6683044Y-2184450D01*
X6671106Y-2176678D01*
X6658305Y-2170531D01*
X6644843Y-2166061D01*
X6630873Y-2163318D01*
X6616700Y-2162403D01*
X6602526Y-2163318D01*
X6588556Y-2166061D01*
X6575094Y-2170531D01*
X6562293Y-2176678D01*
X6550355Y-2184450D01*
X6539534Y-2193645D01*
X6529984Y-2204161D01*
X6521856Y-2215794D01*
X6515303Y-2228392D01*
X6510375Y-2241753D01*
X6507226Y-2255621D01*
X6505854Y-2269744D01*
X6506311Y-2283968D01*
X6508597Y-2297988D01*
X6512661Y-2311603D01*
X6518402Y-2324608D01*
X6525768Y-2336749D01*
X6534607Y-2347874D01*
X6544818Y-2357729D01*
X6556197Y-2366213D01*
X6568592Y-2373223D01*
X6581749Y-2378557D01*
X6595516Y-2382164D01*
G37*
G36*
X6609588Y-2129942D02*
G01*
X6623812Y-2129942D01*
X6637883Y-2128164D01*
X6651650Y-2124557D01*
X6664807Y-2119223D01*
X6677202Y-2112213D01*
X6688581Y-2103729D01*
X6698792Y-2093874D01*
X6707631Y-2082749D01*
X6714998Y-2070607D01*
X6720789Y-2057603D01*
X6724802Y-2043988D01*
X6727088Y-2029968D01*
X6727545Y-2015743D01*
X6726174Y-2001621D01*
X6723024Y-1987753D01*
X6718096Y-1974392D01*
X6711543Y-1961794D01*
X6703415Y-1950161D01*
X6693865Y-1939645D01*
X6683044Y-1930450D01*
X6671106Y-1922678D01*
X6658305Y-1916531D01*
X6644843Y-1912061D01*
X6630873Y-1909318D01*
X6616700Y-1908403D01*
X6602526Y-1909318D01*
X6588556Y-1912061D01*
X6575094Y-1916531D01*
X6562293Y-1922678D01*
X6550355Y-1930450D01*
X6539534Y-1939645D01*
X6529984Y-1950161D01*
X6521856Y-1961794D01*
X6515303Y-1974392D01*
X6510375Y-1987753D01*
X6507226Y-2001621D01*
X6505854Y-2015743D01*
X6506311Y-2029968D01*
X6508597Y-2043988D01*
X6512661Y-2057603D01*
X6518402Y-2070607D01*
X6525768Y-2082749D01*
X6534607Y-2093874D01*
X6544818Y-2103729D01*
X6556197Y-2112213D01*
X6568592Y-2119223D01*
X6581749Y-2124557D01*
X6595516Y-2128164D01*
G37*
G36*
X1513738Y-1961845D02*
G01*
X1523288Y-1960575D01*
X1532483Y-1957781D01*
X1541119Y-1953412D01*
X1548892Y-1947672D01*
X1555546Y-1940712D01*
X1560931Y-1932736D01*
X1564944Y-1923948D01*
X1567332Y-1914601D01*
X1568196Y-1905000D01*
X1567332Y-1895398D01*
X1564944Y-1886051D01*
X1560931Y-1877263D01*
X1555546Y-1869287D01*
X1548892Y-1862328D01*
X1541119Y-1856587D01*
X1532483Y-1852218D01*
X1523288Y-1849424D01*
X1513738Y-1848154D01*
X1504086Y-1848612D01*
X1494637Y-1850643D01*
X1485696Y-1854200D01*
X1477467Y-1859280D01*
X1470253Y-1865630D01*
X1464157Y-1873148D01*
X1459484Y-1881581D01*
X1456283Y-1890674D01*
X1454658Y-1900174D01*
X1454658Y-1909825D01*
X1456283Y-1919325D01*
X1459484Y-1928418D01*
X1464157Y-1936851D01*
X1470253Y-1944370D01*
X1477467Y-1950720D01*
X1485696Y-1955800D01*
X1494637Y-1959356D01*
X1504086Y-1961388D01*
G37*
G36*
X599338Y-1911045D02*
G01*
X608888Y-1909775D01*
X618083Y-1906981D01*
X626719Y-1902612D01*
X634492Y-1896872D01*
X641146Y-1889912D01*
X646531Y-1881936D01*
X650544Y-1873148D01*
X652932Y-1863801D01*
X653796Y-1854200D01*
X652932Y-1844598D01*
X650544Y-1835251D01*
X646531Y-1826463D01*
X641146Y-1818487D01*
X634492Y-1811528D01*
X626719Y-1805787D01*
X618083Y-1801418D01*
X608888Y-1798624D01*
X599338Y-1797354D01*
X589686Y-1797812D01*
X580237Y-1799843D01*
X571296Y-1803400D01*
X563067Y-1808480D01*
X555853Y-1814830D01*
X549757Y-1822348D01*
X545084Y-1830781D01*
X541883Y-1839874D01*
X540258Y-1849374D01*
X540258Y-1859025D01*
X541883Y-1868525D01*
X545084Y-1877618D01*
X549757Y-1886051D01*
X555853Y-1893570D01*
X563067Y-1899920D01*
X571296Y-1905000D01*
X580237Y-1908556D01*
X589686Y-1910588D01*
G37*
G36*
X6567830Y-1864766D02*
G01*
X6567830Y-1814169D01*
X6517284Y-1814169D01*
X6518402Y-1816607D01*
X6525768Y-1828749D01*
X6534607Y-1839874D01*
X6544818Y-1849729D01*
X6556197Y-1858213D01*
G37*
G36*
X6665569Y-1864766D02*
G01*
X6677202Y-1858213D01*
X6688581Y-1849729D01*
X6698792Y-1839874D01*
X6707631Y-1828749D01*
X6714998Y-1816607D01*
X6716115Y-1814169D01*
X6665569Y-1814169D01*
G37*
G36*
X5145938Y-1771345D02*
G01*
X5155488Y-1770075D01*
X5164683Y-1767281D01*
X5173319Y-1762912D01*
X5181092Y-1757172D01*
X5187746Y-1750212D01*
X5193131Y-1742236D01*
X5197144Y-1733448D01*
X5199532Y-1724101D01*
X5200396Y-1714500D01*
X5199532Y-1704898D01*
X5197144Y-1695551D01*
X5193131Y-1686763D01*
X5187746Y-1678787D01*
X5181092Y-1671828D01*
X5173319Y-1666087D01*
X5164683Y-1661718D01*
X5155488Y-1658924D01*
X5145938Y-1657654D01*
X5136286Y-1658112D01*
X5126837Y-1660143D01*
X5117896Y-1663700D01*
X5109667Y-1668780D01*
X5102453Y-1675130D01*
X5096357Y-1682648D01*
X5091684Y-1691081D01*
X5088483Y-1700174D01*
X5086858Y-1709674D01*
X5086858Y-1719325D01*
X5088483Y-1728825D01*
X5091684Y-1737918D01*
X5096357Y-1746351D01*
X5102453Y-1753870D01*
X5109667Y-1760220D01*
X5117896Y-1765300D01*
X5126837Y-1768856D01*
X5136286Y-1770888D01*
G37*
G36*
X6517385Y-1716430D02*
G01*
X6567830Y-1716430D01*
X6567830Y-1665986D01*
X6562293Y-1668678D01*
X6550355Y-1676450D01*
X6539534Y-1685645D01*
X6529984Y-1696161D01*
X6521856Y-1707794D01*
G37*
G36*
X6665569Y-1716430D02*
G01*
X6716014Y-1716430D01*
X6711543Y-1707794D01*
X6703415Y-1696161D01*
X6693865Y-1685645D01*
X6683044Y-1676450D01*
X6671106Y-1668678D01*
X6665569Y-1665986D01*
G37*
G36*
X5323738Y-1657045D02*
G01*
X5333288Y-1655775D01*
X5342483Y-1652981D01*
X5351119Y-1648612D01*
X5358892Y-1642872D01*
X5365546Y-1635912D01*
X5370931Y-1627936D01*
X5374944Y-1619148D01*
X5377332Y-1609801D01*
X5378196Y-1600200D01*
X5377332Y-1590040D01*
X5377586Y-1586636D01*
X5379008Y-1583486D01*
X5381396Y-1581048D01*
X5384444Y-1579473D01*
X5393283Y-1576781D01*
X5401919Y-1572412D01*
X5409692Y-1566672D01*
X5416346Y-1559712D01*
X5421731Y-1551736D01*
X5425744Y-1542948D01*
X5428132Y-1533601D01*
X5428996Y-1524000D01*
X5428132Y-1514398D01*
X5425744Y-1505051D01*
X5421731Y-1496263D01*
X5416346Y-1488287D01*
X5409692Y-1481328D01*
X5401919Y-1475587D01*
X5393283Y-1471218D01*
X5384088Y-1468424D01*
X5374538Y-1467154D01*
X5364886Y-1467612D01*
X5355437Y-1469644D01*
X5346496Y-1473200D01*
X5338267Y-1478280D01*
X5331053Y-1484630D01*
X5324957Y-1492148D01*
X5320284Y-1500581D01*
X5317083Y-1509674D01*
X5315458Y-1519174D01*
X5315458Y-1528826D01*
X5316220Y-1533398D01*
X5316118Y-1537258D01*
X5314594Y-1540764D01*
X5311902Y-1543507D01*
X5308346Y-1545031D01*
X5304637Y-1545844D01*
X5295696Y-1549400D01*
X5287467Y-1554480D01*
X5280253Y-1560830D01*
X5274157Y-1568348D01*
X5269484Y-1576781D01*
X5266283Y-1585874D01*
X5264658Y-1595374D01*
X5264658Y-1605026D01*
X5266283Y-1614525D01*
X5269484Y-1623618D01*
X5274157Y-1632051D01*
X5280253Y-1639570D01*
X5287467Y-1645920D01*
X5295696Y-1651000D01*
X5304637Y-1654556D01*
X5314086Y-1656588D01*
G37*
G36*
X2555138Y-920445D02*
G01*
X2564688Y-919175D01*
X2573883Y-916381D01*
X2582519Y-912012D01*
X2590292Y-906271D01*
X2596946Y-899312D01*
X2602331Y-891336D01*
X2606344Y-882548D01*
X2608732Y-873201D01*
X2609596Y-863600D01*
X2608732Y-853998D01*
X2606344Y-844651D01*
X2602331Y-835863D01*
X2596946Y-827887D01*
X2590292Y-820928D01*
X2582519Y-815187D01*
X2573883Y-810818D01*
X2564688Y-808024D01*
X2555138Y-806754D01*
X2545486Y-807212D01*
X2536037Y-809244D01*
X2527096Y-812800D01*
X2518867Y-817880D01*
X2511653Y-824230D01*
X2505557Y-831748D01*
X2500884Y-840181D01*
X2497683Y-849274D01*
X2496058Y-858774D01*
X2496058Y-868426D01*
X2497683Y-877925D01*
X2500884Y-887018D01*
X2505557Y-895451D01*
X2511653Y-902969D01*
X2518867Y-909319D01*
X2527096Y-914400D01*
X2536037Y-917956D01*
X2545486Y-919987D01*
G37*
G36*
X4422038Y-704545D02*
G01*
X4431588Y-703275D01*
X4440783Y-700481D01*
X4449419Y-696112D01*
X4457192Y-690372D01*
X4463846Y-683412D01*
X4469231Y-675436D01*
X4473244Y-666648D01*
X4475632Y-657301D01*
X4476496Y-647700D01*
X4475632Y-638098D01*
X4473244Y-628751D01*
X4469231Y-619963D01*
X4463846Y-611987D01*
X4457192Y-605028D01*
X4449419Y-599287D01*
X4440783Y-594918D01*
X4431588Y-592124D01*
X4422038Y-590854D01*
X4412386Y-591312D01*
X4402937Y-593344D01*
X4393996Y-596900D01*
X4385767Y-601980D01*
X4378553Y-608330D01*
X4372457Y-615848D01*
X4367784Y-624281D01*
X4364583Y-633374D01*
X4362958Y-642874D01*
X4362958Y-652526D01*
X4364583Y-662025D01*
X4367784Y-671118D01*
X4372457Y-679551D01*
X4378553Y-687070D01*
X4385767Y-693420D01*
X4393996Y-698500D01*
X4402937Y-702056D01*
X4412386Y-704088D01*
G37*
G36*
X3886962Y-364845D02*
G01*
X3898036Y-363982D01*
X3908856Y-361340D01*
X3919118Y-357124D01*
X3928618Y-351282D01*
X3937050Y-344068D01*
X3944264Y-335635D01*
X3950106Y-326136D01*
X3954322Y-315874D01*
X3956964Y-305054D01*
X3957828Y-293979D01*
X3956964Y-282854D01*
X3954322Y-272034D01*
X3950106Y-261772D01*
X3944264Y-252272D01*
X3937050Y-243840D01*
X3928618Y-236626D01*
X3919118Y-230784D01*
X3908856Y-226567D01*
X3898036Y-223926D01*
X3886962Y-223062D01*
X3875836Y-223926D01*
X3865016Y-226567D01*
X3854754Y-230784D01*
X3845255Y-236626D01*
X3836822Y-243840D01*
X3829608Y-252272D01*
X3823766Y-261772D01*
X3819550Y-272034D01*
X3816908Y-282854D01*
X3816045Y-293979D01*
X3816908Y-305054D01*
X3819550Y-315874D01*
X3823766Y-326136D01*
X3829608Y-335635D01*
X3836822Y-344068D01*
X3845255Y-351282D01*
X3854754Y-357124D01*
X3865016Y-361340D01*
X3875836Y-363982D01*
G37*
G36*
X3656939Y-364845D02*
G01*
X3668014Y-363982D01*
X3678834Y-361340D01*
X3689096Y-357124D01*
X3698595Y-351282D01*
X3707028Y-344068D01*
X3714242Y-335635D01*
X3720084Y-326136D01*
X3724300Y-315874D01*
X3726942Y-305054D01*
X3727805Y-293979D01*
X3726942Y-282854D01*
X3724300Y-272034D01*
X3720084Y-261772D01*
X3714242Y-252272D01*
X3707028Y-243840D01*
X3698595Y-236626D01*
X3689096Y-230784D01*
X3678834Y-226567D01*
X3668014Y-223926D01*
X3656939Y-223062D01*
X3645814Y-223926D01*
X3634994Y-226567D01*
X3624732Y-230784D01*
X3615232Y-236626D01*
X3606800Y-243840D01*
X3599586Y-252272D01*
X3593744Y-261772D01*
X3589528Y-272034D01*
X3586886Y-282854D01*
X3586022Y-293979D01*
X3586886Y-305054D01*
X3589528Y-315874D01*
X3593744Y-326136D01*
X3599586Y-335635D01*
X3606800Y-344068D01*
X3615232Y-351282D01*
X3624732Y-357124D01*
X3634994Y-361340D01*
X3645814Y-363982D01*
G37*

%LPD*%
D10*
X1320800Y-2501900D02*
G01*
X2413000Y-2501900D01*
X3009900Y-1905000D01*
X3822700Y-3683000D02*
G01*
X3822700Y-2743200D01*
X3644900Y-2565400D01*
X3009900Y-1905000D02*
G01*
X3594100Y-1320800D01*
X5181600Y-1320800D01*
D11*
G01*
X6616700Y-2527300D03*
D12*
G01*
X6616700Y-2273300D03*
G01*
X6616700Y-2019300D03*
G01*
X6616700Y-1765300D03*
D13*
G01*
X3416300Y-3619500D03*
G01*
X114300Y-2857500D03*
G01*
X444500Y-2857500D03*
G01*
X1219200Y-2895600D03*
G01*
X1447800Y-2882900D03*
G01*
X4419600Y-647700D03*
G01*
X1308100Y-3314700D03*
G01*
X1727200Y-2857500D03*
G01*
X5372100Y-1524000D03*
G01*
X5321300Y-1600200D03*
G01*
X4203700Y-2501900D03*
G01*
X5016500Y-2857500D03*
G01*
X5295900Y-3276600D03*
G01*
X5867400Y-2654300D03*
G01*
X5143500Y-1714500D03*
G01*
X596900Y-1854200D03*
G01*
X2552700Y-863600D03*
G01*
X1511300Y-1905000D03*
G01*
X4432300Y-3594100D03*
G01*
X3937000Y-3429000D03*
G01*
X3949700Y-3302000D03*
G01*
X5600700Y-3073400D03*
G01*
X5130800Y-3162300D03*
G01*
X2298700Y-3327400D03*
G01*
X2755900Y-2870200D03*
G01*
X6070600Y-3225800D03*
G01*
X3644900Y-2565400D03*
G01*
X3822700Y-3683000D03*
G01*
X1320800Y-2501900D03*
G01*
X3009900Y-1905000D03*
G01*
X4165600Y-3733800D03*
G01*
X5181600Y-1320800D03*
G01*
X4597400Y-3683000D03*
G01*
X6477000Y-3340100D03*
G01*
X6273800Y-2984500D03*
G01*
X6794500Y-3086100D03*
G01*
X6317995Y-3085795D03*
G01*
X317500Y-2895600D03*
M02*
