G04 Layer: BottomLayer*
G04 EasyEDA v6.5.44, 2024-07-23 11:26:01*
G04 fa6d6c6f67624019b56d640f781358e2,6e2a8d9c20784516b523f05fecaed983,10*
G04 Gerber Generator version 0.2*
G04 Scale: 100 percent, Rotated: No, Reflected: No *
G04 Dimensions in millimeters *
G04 leading zeros omitted , absolute positions ,4 integer and 5 decimal *
%FSLAX45Y45*%
%MOMM*%

%AMMACRO1*21,1,$1,$2,0,0,$3*%
%ADD10C,0.2540*%
%ADD11C,0.4000*%
%ADD12MACRO1,2.8X1.6X-90.0000*%
%ADD13MACRO1,2.8X1.6X0.0000*%
%ADD14MACRO1,2X2X0.0000*%
%ADD15R,1.7000X1.7000*%
%ADD16C,1.7000*%
%ADD17C,0.6200*%
%ADD18C,0.0117*%

%LPD*%
G36*
X200863Y-4126484D02*
G01*
X182422Y-4125518D01*
X165557Y-4122978D01*
X148996Y-4118813D01*
X132943Y-4112971D01*
X117500Y-4105656D01*
X102870Y-4096816D01*
X89204Y-4086606D01*
X76606Y-4075125D01*
X65125Y-4062425D01*
X55016Y-4048658D01*
X46278Y-4033977D01*
X39014Y-4018534D01*
X33324Y-4002430D01*
X29209Y-3985869D01*
X26771Y-3968953D01*
X25908Y-3951528D01*
X25908Y-3265525D01*
X26822Y-3261309D01*
X29362Y-3257905D01*
X33121Y-3255822D01*
X37439Y-3255467D01*
X41452Y-3256940D01*
X45669Y-3259582D01*
X51155Y-3261512D01*
X57454Y-3262223D01*
X216357Y-3262223D01*
X222656Y-3261512D01*
X228092Y-3259582D01*
X233019Y-3256483D01*
X237083Y-3252419D01*
X240182Y-3247491D01*
X242112Y-3242056D01*
X242824Y-3235706D01*
X242824Y-2956864D01*
X242112Y-2950565D01*
X240182Y-2945079D01*
X237083Y-2940202D01*
X233019Y-2936087D01*
X228092Y-2932988D01*
X222656Y-2931109D01*
X216357Y-2930398D01*
X170383Y-2930398D01*
X166471Y-2929636D01*
X163169Y-2927400D01*
X160985Y-2924098D01*
X160223Y-2920238D01*
X160223Y-2893872D01*
X160629Y-2890926D01*
X161950Y-2888183D01*
X163931Y-2885236D01*
X167944Y-2876448D01*
X170332Y-2867101D01*
X171196Y-2857500D01*
X170332Y-2847898D01*
X167944Y-2838551D01*
X163931Y-2829763D01*
X158546Y-2821787D01*
X151892Y-2814828D01*
X144119Y-2809087D01*
X135483Y-2804718D01*
X126288Y-2801924D01*
X116738Y-2800654D01*
X107086Y-2801112D01*
X97637Y-2803144D01*
X88696Y-2806700D01*
X80467Y-2811780D01*
X73253Y-2818130D01*
X67157Y-2825648D01*
X62484Y-2834081D01*
X59283Y-2843174D01*
X57658Y-2852674D01*
X57658Y-2862326D01*
X59283Y-2871825D01*
X62484Y-2880918D01*
X67106Y-2889199D01*
X68072Y-2891586D01*
X68376Y-2894177D01*
X68376Y-2920238D01*
X67716Y-2923895D01*
X65735Y-2927045D01*
X62788Y-2929331D01*
X59232Y-2930347D01*
X51054Y-2931109D01*
X45669Y-2932988D01*
X41452Y-2935681D01*
X37439Y-2937154D01*
X33121Y-2936798D01*
X29362Y-2934716D01*
X26822Y-2931261D01*
X25908Y-2927045D01*
X25908Y-1365554D01*
X26822Y-1361338D01*
X29362Y-1357884D01*
X33121Y-1355801D01*
X37439Y-1355496D01*
X41452Y-1356918D01*
X45669Y-1359611D01*
X51155Y-1361490D01*
X57454Y-1362202D01*
X109626Y-1362202D01*
X113487Y-1362964D01*
X116789Y-1365199D01*
X302564Y-1550924D01*
X308762Y-1556054D01*
X315468Y-1559610D01*
X322681Y-1561795D01*
X330708Y-1562608D01*
X5224881Y-1562608D01*
X5228793Y-1563370D01*
X5232095Y-1565605D01*
X5261660Y-1595170D01*
X5263845Y-1598472D01*
X5264658Y-1602333D01*
X5264658Y-1605026D01*
X5266283Y-1614525D01*
X5269484Y-1623618D01*
X5274157Y-1632051D01*
X5280253Y-1639570D01*
X5287467Y-1645920D01*
X5293766Y-1649780D01*
X5296865Y-1652778D01*
X5298440Y-1656842D01*
X5298186Y-1661210D01*
X5296154Y-1665020D01*
X5292648Y-1667662D01*
X5288432Y-1668576D01*
X5180076Y-1668576D01*
X5176875Y-1668068D01*
X5164683Y-1661718D01*
X5155488Y-1658924D01*
X5145938Y-1657654D01*
X5136286Y-1658112D01*
X5126837Y-1660143D01*
X5117896Y-1663700D01*
X5109667Y-1668780D01*
X5102453Y-1675130D01*
X5096357Y-1682648D01*
X5091684Y-1691081D01*
X5088483Y-1700174D01*
X5086858Y-1709674D01*
X5086858Y-1719325D01*
X5088483Y-1728825D01*
X5091684Y-1737918D01*
X5096357Y-1746351D01*
X5102453Y-1753870D01*
X5109667Y-1760220D01*
X5117896Y-1765300D01*
X5121706Y-1766824D01*
X5125008Y-1769008D01*
X5127244Y-1772259D01*
X5128056Y-1776171D01*
X5127294Y-1780082D01*
X5125110Y-1783384D01*
X5121808Y-1785620D01*
X5117896Y-1786382D01*
X4860493Y-1786382D01*
X4854143Y-1787093D01*
X4848707Y-1789023D01*
X4843780Y-1792071D01*
X4839716Y-1796186D01*
X4836617Y-1801063D01*
X4834686Y-1806549D01*
X4833975Y-1812848D01*
X4833975Y-1971751D01*
X4834686Y-1978050D01*
X4836617Y-1983536D01*
X4839716Y-1988413D01*
X4843780Y-1992528D01*
X4848707Y-1995576D01*
X4854143Y-1997506D01*
X4860493Y-1998218D01*
X5139334Y-1998218D01*
X5145633Y-1997506D01*
X5151120Y-1995576D01*
X5155996Y-1992528D01*
X5160111Y-1988413D01*
X5163159Y-1983536D01*
X5165090Y-1978050D01*
X5165801Y-1971751D01*
X5165801Y-1812848D01*
X5165090Y-1806549D01*
X5163159Y-1801063D01*
X5160111Y-1796186D01*
X5155996Y-1792071D01*
X5150815Y-1788820D01*
X5147868Y-1785975D01*
X5146294Y-1782165D01*
X5146344Y-1778050D01*
X5148021Y-1774291D01*
X5151069Y-1771497D01*
X5164683Y-1767281D01*
X5176875Y-1760931D01*
X5180076Y-1760423D01*
X5401360Y-1760423D01*
X5405221Y-1761185D01*
X5408523Y-1763369D01*
X5410708Y-1766671D01*
X5411520Y-1770583D01*
X5411520Y-1890318D01*
X5412232Y-1896668D01*
X5414111Y-1902104D01*
X5417210Y-1907032D01*
X5421274Y-1911096D01*
X5426202Y-1914194D01*
X5431637Y-1916125D01*
X5437987Y-1916836D01*
X5636818Y-1916836D01*
X5643168Y-1916125D01*
X5648604Y-1914194D01*
X5653532Y-1911096D01*
X5657596Y-1907032D01*
X5660694Y-1902104D01*
X5662625Y-1896668D01*
X5663336Y-1890318D01*
X5663336Y-1691487D01*
X5662625Y-1685137D01*
X5660694Y-1679702D01*
X5657596Y-1674774D01*
X5653532Y-1670710D01*
X5648604Y-1667611D01*
X5643168Y-1665732D01*
X5636818Y-1665020D01*
X5437987Y-1665020D01*
X5431688Y-1665732D01*
X5425084Y-1668018D01*
X5421731Y-1668576D01*
X5354218Y-1668576D01*
X5349849Y-1667611D01*
X5346344Y-1664817D01*
X5344363Y-1660804D01*
X5344312Y-1656283D01*
X5346192Y-1652219D01*
X5349646Y-1649374D01*
X5351119Y-1648612D01*
X5358892Y-1642872D01*
X5365546Y-1635912D01*
X5370931Y-1627936D01*
X5374944Y-1619148D01*
X5377332Y-1609801D01*
X5378196Y-1600200D01*
X5377332Y-1590040D01*
X5377586Y-1586636D01*
X5379008Y-1583486D01*
X5381396Y-1581048D01*
X5384444Y-1579473D01*
X5393283Y-1576781D01*
X5401919Y-1572412D01*
X5409692Y-1566672D01*
X5416346Y-1559712D01*
X5421731Y-1551736D01*
X5425744Y-1542948D01*
X5428132Y-1533601D01*
X5428996Y-1524000D01*
X5428132Y-1514398D01*
X5425744Y-1505051D01*
X5421731Y-1496263D01*
X5416346Y-1488287D01*
X5409692Y-1481328D01*
X5401919Y-1475587D01*
X5393283Y-1471218D01*
X5384088Y-1468424D01*
X5370423Y-1466494D01*
X5366918Y-1464208D01*
X5285435Y-1382776D01*
X5279237Y-1377645D01*
X5272532Y-1374089D01*
X5265318Y-1371904D01*
X5257292Y-1371092D01*
X5235143Y-1371092D01*
X5230876Y-1370177D01*
X5227370Y-1367536D01*
X5225338Y-1363675D01*
X5225084Y-1359306D01*
X5226710Y-1355242D01*
X5231231Y-1348536D01*
X5235244Y-1339748D01*
X5237632Y-1330401D01*
X5238496Y-1320800D01*
X5237632Y-1311198D01*
X5235244Y-1301851D01*
X5231231Y-1293063D01*
X5225846Y-1285087D01*
X5219192Y-1278128D01*
X5211419Y-1272387D01*
X5202783Y-1268018D01*
X5193588Y-1265224D01*
X5184038Y-1263954D01*
X5174386Y-1264412D01*
X5164937Y-1266444D01*
X5155996Y-1270000D01*
X5147767Y-1275080D01*
X5140553Y-1281430D01*
X5134457Y-1288948D01*
X5129784Y-1297381D01*
X5126583Y-1306474D01*
X5124958Y-1315974D01*
X5124958Y-1325626D01*
X5126583Y-1335125D01*
X5129784Y-1344218D01*
X5134457Y-1352651D01*
X5136032Y-1354531D01*
X5137810Y-1357884D01*
X5138267Y-1361643D01*
X5137302Y-1365300D01*
X5135016Y-1368348D01*
X5131816Y-1370380D01*
X5128107Y-1371092D01*
X5068976Y-1371092D01*
X5065064Y-1370330D01*
X5061762Y-1368094D01*
X5059578Y-1364843D01*
X5058816Y-1360932D01*
X5059578Y-1357020D01*
X5061762Y-1353769D01*
X5063083Y-1352397D01*
X5066182Y-1347520D01*
X5068112Y-1342034D01*
X5068824Y-1335735D01*
X5068824Y-1056894D01*
X5068112Y-1050544D01*
X5066182Y-1045108D01*
X5063083Y-1040180D01*
X5059019Y-1036116D01*
X5054092Y-1033018D01*
X5048656Y-1031087D01*
X5042357Y-1030376D01*
X4883454Y-1030376D01*
X4877155Y-1031087D01*
X4871669Y-1033018D01*
X4866792Y-1036116D01*
X4862677Y-1040180D01*
X4859629Y-1045108D01*
X4857699Y-1050544D01*
X4856988Y-1056894D01*
X4856988Y-1335735D01*
X4857699Y-1342034D01*
X4859629Y-1347520D01*
X4862677Y-1352397D01*
X4864049Y-1353769D01*
X4866233Y-1357020D01*
X4866995Y-1360932D01*
X4866233Y-1364843D01*
X4864049Y-1368094D01*
X4860747Y-1370330D01*
X4856835Y-1371092D01*
X4814976Y-1371092D01*
X4811064Y-1370330D01*
X4807762Y-1368094D01*
X4805578Y-1364843D01*
X4804816Y-1360932D01*
X4805578Y-1357020D01*
X4807762Y-1353769D01*
X4809083Y-1352397D01*
X4812182Y-1347520D01*
X4814112Y-1342034D01*
X4814824Y-1335735D01*
X4814824Y-1056894D01*
X4814112Y-1050544D01*
X4812182Y-1045108D01*
X4809083Y-1040180D01*
X4805019Y-1036116D01*
X4800092Y-1033018D01*
X4794656Y-1031087D01*
X4788357Y-1030376D01*
X4757674Y-1030376D01*
X4753813Y-1029614D01*
X4750511Y-1027430D01*
X4748276Y-1024128D01*
X4747514Y-1020216D01*
X4747514Y-937514D01*
X4746752Y-929487D01*
X4744516Y-922274D01*
X4740960Y-915568D01*
X4735880Y-909370D01*
X4479290Y-652830D01*
X4477258Y-649884D01*
X4476343Y-646480D01*
X4475632Y-638098D01*
X4473244Y-628751D01*
X4469231Y-619963D01*
X4463846Y-611987D01*
X4457192Y-605028D01*
X4449419Y-599287D01*
X4440783Y-594918D01*
X4431588Y-592124D01*
X4422038Y-590854D01*
X4412386Y-591312D01*
X4402937Y-593344D01*
X4393996Y-596900D01*
X4385767Y-601980D01*
X4378553Y-608330D01*
X4372457Y-615848D01*
X4367784Y-624281D01*
X4364583Y-633374D01*
X4362958Y-642874D01*
X4362958Y-652526D01*
X4364583Y-662025D01*
X4367784Y-671118D01*
X4372457Y-679551D01*
X4378553Y-687070D01*
X4385767Y-693420D01*
X4393996Y-698500D01*
X4402937Y-702056D01*
X4412386Y-704088D01*
X4417872Y-704342D01*
X4421530Y-705205D01*
X4424629Y-707288D01*
X4667300Y-950010D01*
X4669536Y-953312D01*
X4670298Y-957224D01*
X4670298Y-1020216D01*
X4669536Y-1024128D01*
X4667300Y-1027430D01*
X4664049Y-1029614D01*
X4660138Y-1030376D01*
X4629454Y-1030376D01*
X4623155Y-1031087D01*
X4617669Y-1033018D01*
X4612792Y-1036116D01*
X4608677Y-1040180D01*
X4605629Y-1045108D01*
X4603699Y-1050544D01*
X4602988Y-1056894D01*
X4602988Y-1335735D01*
X4603699Y-1342034D01*
X4605629Y-1347520D01*
X4608677Y-1352397D01*
X4610049Y-1353769D01*
X4612233Y-1357020D01*
X4612995Y-1360932D01*
X4612233Y-1364843D01*
X4610049Y-1368094D01*
X4606747Y-1370330D01*
X4602835Y-1371092D01*
X4560976Y-1371092D01*
X4557064Y-1370330D01*
X4553762Y-1368094D01*
X4551578Y-1364843D01*
X4550816Y-1360932D01*
X4551578Y-1357020D01*
X4553762Y-1353769D01*
X4555083Y-1352397D01*
X4558182Y-1347520D01*
X4560112Y-1342034D01*
X4560824Y-1335735D01*
X4560824Y-1272641D01*
X4501235Y-1272641D01*
X4501235Y-1360932D01*
X4500473Y-1364843D01*
X4498289Y-1368094D01*
X4494987Y-1370330D01*
X4491075Y-1371092D01*
X4418736Y-1371092D01*
X4414824Y-1370330D01*
X4411522Y-1368094D01*
X4409338Y-1364843D01*
X4408576Y-1360932D01*
X4408576Y-1272641D01*
X4348988Y-1272641D01*
X4348988Y-1335735D01*
X4349699Y-1342034D01*
X4351629Y-1347520D01*
X4354677Y-1352397D01*
X4356049Y-1353769D01*
X4358233Y-1357020D01*
X4358995Y-1360932D01*
X4358233Y-1364843D01*
X4356049Y-1368094D01*
X4352747Y-1370330D01*
X4348835Y-1371092D01*
X4306976Y-1371092D01*
X4303064Y-1370330D01*
X4299762Y-1368094D01*
X4297578Y-1364843D01*
X4296816Y-1360932D01*
X4297578Y-1357020D01*
X4299762Y-1353769D01*
X4301083Y-1352397D01*
X4304182Y-1347520D01*
X4306112Y-1342034D01*
X4306824Y-1335735D01*
X4306824Y-1056894D01*
X4306112Y-1050544D01*
X4304182Y-1045108D01*
X4301083Y-1040180D01*
X4297019Y-1036116D01*
X4292092Y-1033018D01*
X4286656Y-1031087D01*
X4280357Y-1030376D01*
X4121454Y-1030376D01*
X4115155Y-1031087D01*
X4109669Y-1033018D01*
X4104792Y-1036116D01*
X4100677Y-1040180D01*
X4097629Y-1045108D01*
X4095699Y-1050544D01*
X4094987Y-1056894D01*
X4094987Y-1335735D01*
X4095699Y-1342034D01*
X4097629Y-1347520D01*
X4100677Y-1352397D01*
X4102049Y-1353769D01*
X4104233Y-1357020D01*
X4104995Y-1360932D01*
X4104233Y-1364843D01*
X4102049Y-1368094D01*
X4098747Y-1370330D01*
X4094835Y-1371092D01*
X4052976Y-1371092D01*
X4049064Y-1370330D01*
X4045762Y-1368094D01*
X4043578Y-1364843D01*
X4042816Y-1360932D01*
X4043578Y-1357020D01*
X4045762Y-1353769D01*
X4047083Y-1352397D01*
X4050182Y-1347520D01*
X4052112Y-1342034D01*
X4052824Y-1335735D01*
X4052824Y-1056894D01*
X4052112Y-1050544D01*
X4050182Y-1045108D01*
X4047083Y-1040180D01*
X4043019Y-1036116D01*
X4038092Y-1033018D01*
X4032656Y-1031087D01*
X4026357Y-1030376D01*
X3867454Y-1030376D01*
X3861155Y-1031087D01*
X3855669Y-1033018D01*
X3850792Y-1036116D01*
X3846677Y-1040180D01*
X3843629Y-1045108D01*
X3841699Y-1050544D01*
X3840987Y-1056894D01*
X3840987Y-1335735D01*
X3841699Y-1342034D01*
X3843629Y-1347520D01*
X3846677Y-1352397D01*
X3848049Y-1353769D01*
X3850233Y-1357020D01*
X3850995Y-1360932D01*
X3850233Y-1364843D01*
X3848049Y-1368094D01*
X3844747Y-1370330D01*
X3840835Y-1371092D01*
X3798976Y-1371092D01*
X3795064Y-1370330D01*
X3791762Y-1368094D01*
X3789578Y-1364843D01*
X3788816Y-1360932D01*
X3789578Y-1357020D01*
X3791762Y-1353769D01*
X3793083Y-1352397D01*
X3796182Y-1347520D01*
X3798112Y-1342034D01*
X3798824Y-1335735D01*
X3798824Y-1056894D01*
X3798112Y-1050544D01*
X3796182Y-1045108D01*
X3793083Y-1040180D01*
X3789019Y-1036116D01*
X3784092Y-1033018D01*
X3778656Y-1031087D01*
X3772357Y-1030376D01*
X3613454Y-1030376D01*
X3607155Y-1031087D01*
X3601669Y-1033018D01*
X3596792Y-1036116D01*
X3592677Y-1040180D01*
X3589629Y-1045108D01*
X3587699Y-1050544D01*
X3586987Y-1056894D01*
X3586987Y-1335735D01*
X3587699Y-1342034D01*
X3589629Y-1347520D01*
X3592677Y-1352397D01*
X3594049Y-1353769D01*
X3596233Y-1357020D01*
X3596995Y-1360932D01*
X3596233Y-1364843D01*
X3594049Y-1368094D01*
X3590747Y-1370330D01*
X3586835Y-1371092D01*
X3544976Y-1371092D01*
X3541064Y-1370330D01*
X3537762Y-1368094D01*
X3535578Y-1364843D01*
X3534816Y-1360932D01*
X3535578Y-1357020D01*
X3537762Y-1353769D01*
X3539083Y-1352397D01*
X3542182Y-1347520D01*
X3544112Y-1342034D01*
X3544824Y-1335735D01*
X3544824Y-1056894D01*
X3544112Y-1050544D01*
X3542182Y-1045108D01*
X3539083Y-1040180D01*
X3535019Y-1036116D01*
X3530092Y-1033018D01*
X3524656Y-1031087D01*
X3518357Y-1030376D01*
X3359454Y-1030376D01*
X3353155Y-1031087D01*
X3347669Y-1033018D01*
X3342792Y-1036116D01*
X3338677Y-1040180D01*
X3335629Y-1045108D01*
X3333699Y-1050544D01*
X3332987Y-1056894D01*
X3332987Y-1335735D01*
X3333699Y-1342034D01*
X3335629Y-1347520D01*
X3338677Y-1352397D01*
X3340049Y-1353769D01*
X3342233Y-1357020D01*
X3342995Y-1360932D01*
X3342233Y-1364843D01*
X3340049Y-1368094D01*
X3336747Y-1370330D01*
X3332835Y-1371092D01*
X3290976Y-1371092D01*
X3287064Y-1370330D01*
X3283762Y-1368094D01*
X3281578Y-1364843D01*
X3280816Y-1360932D01*
X3281578Y-1357020D01*
X3283762Y-1353769D01*
X3285083Y-1352397D01*
X3288182Y-1347520D01*
X3290112Y-1342034D01*
X3290824Y-1335735D01*
X3290824Y-1272641D01*
X3231235Y-1272641D01*
X3231235Y-1360932D01*
X3230473Y-1364843D01*
X3228289Y-1368094D01*
X3224987Y-1370330D01*
X3221075Y-1371092D01*
X3148736Y-1371092D01*
X3144824Y-1370330D01*
X3141522Y-1368094D01*
X3139338Y-1364843D01*
X3138576Y-1360932D01*
X3138576Y-1272641D01*
X3078988Y-1272641D01*
X3078988Y-1335735D01*
X3079699Y-1342034D01*
X3081629Y-1347520D01*
X3084677Y-1352397D01*
X3086049Y-1353769D01*
X3088233Y-1357020D01*
X3088995Y-1360932D01*
X3088233Y-1364843D01*
X3086049Y-1368094D01*
X3082747Y-1370330D01*
X3078835Y-1371092D01*
X3036976Y-1371092D01*
X3033064Y-1370330D01*
X3029762Y-1368094D01*
X3027578Y-1364843D01*
X3026816Y-1360932D01*
X3027578Y-1357020D01*
X3029762Y-1353769D01*
X3031083Y-1352397D01*
X3034182Y-1347520D01*
X3036112Y-1342034D01*
X3036824Y-1335735D01*
X3036824Y-1056894D01*
X3036112Y-1050544D01*
X3034182Y-1045108D01*
X3031083Y-1040180D01*
X3027019Y-1036116D01*
X3022092Y-1033018D01*
X3016656Y-1031087D01*
X3010357Y-1030376D01*
X2851454Y-1030376D01*
X2845155Y-1031087D01*
X2839669Y-1033018D01*
X2834792Y-1036116D01*
X2830677Y-1040180D01*
X2827629Y-1045108D01*
X2825699Y-1050544D01*
X2824988Y-1056894D01*
X2824988Y-1335735D01*
X2825699Y-1342034D01*
X2827629Y-1347520D01*
X2830677Y-1352397D01*
X2832049Y-1353769D01*
X2834233Y-1357020D01*
X2834995Y-1360932D01*
X2834233Y-1364843D01*
X2832049Y-1368094D01*
X2828747Y-1370330D01*
X2824835Y-1371092D01*
X2782976Y-1371092D01*
X2779064Y-1370330D01*
X2775762Y-1368094D01*
X2773578Y-1364843D01*
X2772816Y-1360932D01*
X2773578Y-1357020D01*
X2775762Y-1353769D01*
X2777083Y-1352397D01*
X2780182Y-1347520D01*
X2782112Y-1342034D01*
X2782824Y-1335735D01*
X2782824Y-1056894D01*
X2782112Y-1050544D01*
X2780182Y-1045108D01*
X2777083Y-1040180D01*
X2773019Y-1036116D01*
X2768092Y-1033018D01*
X2762656Y-1031087D01*
X2756357Y-1030376D01*
X2597454Y-1030376D01*
X2591155Y-1031087D01*
X2585669Y-1033018D01*
X2580792Y-1036116D01*
X2576677Y-1040180D01*
X2573629Y-1045108D01*
X2571699Y-1050544D01*
X2570988Y-1056894D01*
X2570988Y-1335735D01*
X2571699Y-1342034D01*
X2573629Y-1347520D01*
X2576677Y-1352397D01*
X2578049Y-1353769D01*
X2580233Y-1357020D01*
X2580995Y-1360932D01*
X2580233Y-1364843D01*
X2578049Y-1368094D01*
X2574747Y-1370330D01*
X2570835Y-1371092D01*
X2528976Y-1371092D01*
X2525064Y-1370330D01*
X2521762Y-1368094D01*
X2519578Y-1364843D01*
X2518816Y-1360932D01*
X2519578Y-1357020D01*
X2521762Y-1353769D01*
X2523083Y-1352397D01*
X2526182Y-1347520D01*
X2528112Y-1342034D01*
X2528824Y-1335735D01*
X2528824Y-1056894D01*
X2528112Y-1050544D01*
X2526182Y-1045108D01*
X2523083Y-1040180D01*
X2519019Y-1036116D01*
X2514092Y-1033018D01*
X2508656Y-1031087D01*
X2502357Y-1030376D01*
X2471674Y-1030376D01*
X2467813Y-1029614D01*
X2464511Y-1027430D01*
X2462276Y-1024128D01*
X2461514Y-1020216D01*
X2461514Y-950112D01*
X2462276Y-946200D01*
X2464511Y-942898D01*
X2501087Y-906322D01*
X2504236Y-904189D01*
X2507945Y-903376D01*
X2511704Y-903935D01*
X2514955Y-905865D01*
X2518867Y-909319D01*
X2527096Y-914400D01*
X2536037Y-917956D01*
X2545486Y-919987D01*
X2555138Y-920445D01*
X2564688Y-919175D01*
X2573883Y-916381D01*
X2582519Y-912012D01*
X2590292Y-906271D01*
X2596946Y-899312D01*
X2602331Y-891336D01*
X2606344Y-882548D01*
X2608732Y-873201D01*
X2609596Y-863600D01*
X2608732Y-853998D01*
X2606344Y-844651D01*
X2602331Y-835863D01*
X2596946Y-827887D01*
X2590292Y-820928D01*
X2582519Y-815187D01*
X2573883Y-810818D01*
X2564688Y-808024D01*
X2555138Y-806754D01*
X2545486Y-807212D01*
X2536037Y-809244D01*
X2527096Y-812800D01*
X2518867Y-817880D01*
X2513685Y-822452D01*
X2510536Y-824331D01*
X2506980Y-824992D01*
X2489708Y-824992D01*
X2481681Y-825804D01*
X2474468Y-827989D01*
X2467762Y-831545D01*
X2461564Y-836676D01*
X2395982Y-902258D01*
X2390851Y-908456D01*
X2387295Y-915111D01*
X2385110Y-922375D01*
X2384298Y-930402D01*
X2384298Y-1020216D01*
X2383536Y-1024128D01*
X2381300Y-1027430D01*
X2378049Y-1029614D01*
X2374138Y-1030376D01*
X2343454Y-1030376D01*
X2337155Y-1031087D01*
X2331669Y-1033018D01*
X2326792Y-1036116D01*
X2322677Y-1040180D01*
X2319629Y-1045108D01*
X2317699Y-1050544D01*
X2316988Y-1056894D01*
X2316988Y-1335735D01*
X2317699Y-1342034D01*
X2319629Y-1347520D01*
X2322677Y-1352397D01*
X2324049Y-1353769D01*
X2326233Y-1357020D01*
X2326995Y-1360932D01*
X2326233Y-1364843D01*
X2324049Y-1368094D01*
X2320747Y-1370330D01*
X2316835Y-1371092D01*
X2274976Y-1371092D01*
X2271064Y-1370330D01*
X2267762Y-1368094D01*
X2265578Y-1364843D01*
X2264816Y-1360932D01*
X2265578Y-1357020D01*
X2267762Y-1353769D01*
X2269083Y-1352397D01*
X2272182Y-1347520D01*
X2274112Y-1342034D01*
X2274824Y-1335735D01*
X2274824Y-1056894D01*
X2274112Y-1050544D01*
X2272182Y-1045108D01*
X2269083Y-1040180D01*
X2265019Y-1036116D01*
X2260092Y-1033018D01*
X2254656Y-1031087D01*
X2248357Y-1030376D01*
X2089454Y-1030376D01*
X2083155Y-1031087D01*
X2077669Y-1033018D01*
X2072792Y-1036116D01*
X2068677Y-1040180D01*
X2065629Y-1045108D01*
X2063699Y-1050544D01*
X2062988Y-1056894D01*
X2062988Y-1335735D01*
X2063699Y-1342034D01*
X2065629Y-1347520D01*
X2068677Y-1352397D01*
X2070049Y-1353769D01*
X2072233Y-1357020D01*
X2072995Y-1360932D01*
X2072233Y-1364843D01*
X2070049Y-1368094D01*
X2066747Y-1370330D01*
X2062835Y-1371092D01*
X2020976Y-1371092D01*
X2017064Y-1370330D01*
X2013762Y-1368094D01*
X2011578Y-1364843D01*
X2010816Y-1360932D01*
X2011578Y-1357020D01*
X2013762Y-1353769D01*
X2015083Y-1352397D01*
X2018182Y-1347520D01*
X2020112Y-1342034D01*
X2020824Y-1335735D01*
X2020824Y-1272641D01*
X1961235Y-1272641D01*
X1961235Y-1360932D01*
X1960473Y-1364843D01*
X1958289Y-1368094D01*
X1954987Y-1370330D01*
X1951075Y-1371092D01*
X1878736Y-1371092D01*
X1874824Y-1370330D01*
X1871522Y-1368094D01*
X1869338Y-1364843D01*
X1868576Y-1360932D01*
X1868576Y-1272641D01*
X1808988Y-1272641D01*
X1808988Y-1335735D01*
X1809699Y-1342034D01*
X1811629Y-1347520D01*
X1814677Y-1352397D01*
X1816049Y-1353769D01*
X1818233Y-1357020D01*
X1818995Y-1360932D01*
X1818233Y-1364843D01*
X1816049Y-1368094D01*
X1812747Y-1370330D01*
X1808835Y-1371092D01*
X1766976Y-1371092D01*
X1763064Y-1370330D01*
X1759762Y-1368094D01*
X1757578Y-1364843D01*
X1756816Y-1360932D01*
X1757578Y-1357020D01*
X1759762Y-1353769D01*
X1761083Y-1352397D01*
X1764182Y-1347520D01*
X1766112Y-1342034D01*
X1766824Y-1335735D01*
X1766824Y-1056894D01*
X1766112Y-1050544D01*
X1764182Y-1045108D01*
X1761083Y-1040180D01*
X1757019Y-1036116D01*
X1752092Y-1033018D01*
X1746656Y-1031087D01*
X1740357Y-1030376D01*
X1581454Y-1030376D01*
X1575155Y-1031087D01*
X1569669Y-1033018D01*
X1564792Y-1036116D01*
X1560677Y-1040180D01*
X1557629Y-1045108D01*
X1555699Y-1050544D01*
X1554988Y-1056894D01*
X1554988Y-1335735D01*
X1555699Y-1342034D01*
X1557629Y-1347520D01*
X1560677Y-1352397D01*
X1562049Y-1353769D01*
X1564233Y-1357020D01*
X1564995Y-1360932D01*
X1564233Y-1364843D01*
X1562049Y-1368094D01*
X1558747Y-1370330D01*
X1554835Y-1371092D01*
X1512976Y-1371092D01*
X1509064Y-1370330D01*
X1505762Y-1368094D01*
X1503578Y-1364843D01*
X1502816Y-1360932D01*
X1503578Y-1357020D01*
X1505762Y-1353769D01*
X1507083Y-1352397D01*
X1510182Y-1347520D01*
X1512112Y-1342034D01*
X1512824Y-1335735D01*
X1512824Y-1056894D01*
X1512112Y-1050544D01*
X1510182Y-1045108D01*
X1507083Y-1040180D01*
X1503019Y-1036116D01*
X1498092Y-1033018D01*
X1492656Y-1031087D01*
X1486357Y-1030376D01*
X1327454Y-1030376D01*
X1321155Y-1031087D01*
X1315669Y-1033018D01*
X1310792Y-1036116D01*
X1306677Y-1040180D01*
X1303629Y-1045108D01*
X1301699Y-1050544D01*
X1300988Y-1056894D01*
X1300988Y-1335735D01*
X1301699Y-1342034D01*
X1303629Y-1347520D01*
X1306677Y-1352397D01*
X1308049Y-1353769D01*
X1310233Y-1357020D01*
X1310995Y-1360932D01*
X1310233Y-1364843D01*
X1308049Y-1368094D01*
X1304747Y-1370330D01*
X1300835Y-1371092D01*
X1258976Y-1371092D01*
X1255064Y-1370330D01*
X1251762Y-1368094D01*
X1249578Y-1364843D01*
X1248816Y-1360932D01*
X1249578Y-1357020D01*
X1251762Y-1353769D01*
X1253083Y-1352397D01*
X1256182Y-1347520D01*
X1258112Y-1342034D01*
X1258824Y-1335735D01*
X1258824Y-1056894D01*
X1258112Y-1050544D01*
X1256182Y-1045108D01*
X1253083Y-1040180D01*
X1249019Y-1036116D01*
X1244092Y-1033018D01*
X1238656Y-1031087D01*
X1232357Y-1030376D01*
X1073454Y-1030376D01*
X1067155Y-1031087D01*
X1061669Y-1033018D01*
X1056792Y-1036116D01*
X1052677Y-1040180D01*
X1049629Y-1045108D01*
X1047699Y-1050544D01*
X1046987Y-1056894D01*
X1046987Y-1335735D01*
X1047699Y-1342034D01*
X1049629Y-1347520D01*
X1052677Y-1352397D01*
X1054049Y-1353769D01*
X1056233Y-1357020D01*
X1056995Y-1360932D01*
X1056233Y-1364843D01*
X1054049Y-1368094D01*
X1050747Y-1370330D01*
X1046835Y-1371092D01*
X1004976Y-1371092D01*
X1001064Y-1370330D01*
X997762Y-1368094D01*
X995578Y-1364843D01*
X994816Y-1360932D01*
X995578Y-1357020D01*
X997762Y-1353769D01*
X999083Y-1352397D01*
X1002182Y-1347520D01*
X1004112Y-1342034D01*
X1004824Y-1335735D01*
X1004824Y-1056894D01*
X1004112Y-1050544D01*
X1002182Y-1045108D01*
X999083Y-1040180D01*
X995019Y-1036116D01*
X990092Y-1033018D01*
X984656Y-1031087D01*
X978357Y-1030376D01*
X819454Y-1030376D01*
X813155Y-1031087D01*
X807669Y-1033018D01*
X802792Y-1036116D01*
X798677Y-1040180D01*
X795629Y-1045108D01*
X793699Y-1050544D01*
X792988Y-1056894D01*
X792988Y-1335735D01*
X793699Y-1342034D01*
X795629Y-1347520D01*
X798677Y-1352397D01*
X800049Y-1353769D01*
X802233Y-1357020D01*
X802995Y-1360932D01*
X802233Y-1364843D01*
X800049Y-1368094D01*
X796747Y-1370330D01*
X792835Y-1371092D01*
X750976Y-1371092D01*
X747064Y-1370330D01*
X743762Y-1368094D01*
X741578Y-1364843D01*
X740816Y-1360932D01*
X741578Y-1357020D01*
X743762Y-1353769D01*
X745083Y-1352397D01*
X748182Y-1347520D01*
X750112Y-1342034D01*
X750824Y-1335735D01*
X750824Y-1272641D01*
X691235Y-1272641D01*
X691235Y-1360932D01*
X690473Y-1364843D01*
X688289Y-1368094D01*
X684987Y-1370330D01*
X681075Y-1371092D01*
X608736Y-1371092D01*
X604824Y-1370330D01*
X601522Y-1368094D01*
X599338Y-1364843D01*
X598576Y-1360932D01*
X598576Y-1272641D01*
X538988Y-1272641D01*
X538988Y-1335735D01*
X539699Y-1342034D01*
X541629Y-1347520D01*
X544677Y-1352397D01*
X546049Y-1353769D01*
X548233Y-1357020D01*
X548995Y-1360932D01*
X548233Y-1364843D01*
X546049Y-1368094D01*
X542747Y-1370330D01*
X538835Y-1371092D01*
X528218Y-1371092D01*
X524306Y-1370330D01*
X521004Y-1368094D01*
X499465Y-1346555D01*
X497636Y-1344117D01*
X496620Y-1341272D01*
X496824Y-1335735D01*
X496824Y-1056894D01*
X496112Y-1050544D01*
X494182Y-1045108D01*
X491083Y-1040180D01*
X487019Y-1036116D01*
X482092Y-1033018D01*
X476656Y-1031087D01*
X470357Y-1030376D01*
X311454Y-1030376D01*
X305155Y-1031087D01*
X299669Y-1033018D01*
X294792Y-1036116D01*
X290677Y-1040180D01*
X287629Y-1045108D01*
X285699Y-1050544D01*
X284988Y-1056894D01*
X284988Y-1335735D01*
X285699Y-1342034D01*
X287629Y-1347520D01*
X290677Y-1352397D01*
X294792Y-1356512D01*
X299669Y-1359611D01*
X305155Y-1361490D01*
X311454Y-1362202D01*
X401726Y-1362202D01*
X405587Y-1362964D01*
X408889Y-1365199D01*
X480364Y-1436624D01*
X486562Y-1441754D01*
X493268Y-1445310D01*
X500481Y-1447495D01*
X508508Y-1448308D01*
X5237581Y-1448308D01*
X5241493Y-1449070D01*
X5244795Y-1451305D01*
X5262778Y-1469288D01*
X5265166Y-1473047D01*
X5265724Y-1477467D01*
X5264302Y-1481683D01*
X5261254Y-1484934D01*
X5257088Y-1486509D01*
X5244592Y-1485392D01*
X350418Y-1485392D01*
X346506Y-1484630D01*
X343204Y-1482394D01*
X232359Y-1371549D01*
X230124Y-1368247D01*
X229362Y-1364386D01*
X230124Y-1360474D01*
X232359Y-1357172D01*
X237083Y-1352397D01*
X240182Y-1347520D01*
X242112Y-1342034D01*
X242824Y-1335735D01*
X242824Y-1056894D01*
X242112Y-1050544D01*
X240182Y-1045108D01*
X237083Y-1040180D01*
X233019Y-1036116D01*
X228092Y-1033018D01*
X222656Y-1031087D01*
X216357Y-1030376D01*
X57454Y-1030376D01*
X51155Y-1031087D01*
X45669Y-1033018D01*
X41452Y-1035659D01*
X37439Y-1037132D01*
X33121Y-1036777D01*
X29362Y-1034694D01*
X26822Y-1031290D01*
X25908Y-1027074D01*
X25908Y-353263D01*
X26873Y-334822D01*
X29413Y-317957D01*
X33578Y-301396D01*
X39420Y-285343D01*
X46736Y-269900D01*
X55575Y-255270D01*
X65786Y-241604D01*
X77266Y-229006D01*
X89966Y-217525D01*
X103733Y-207416D01*
X118414Y-198678D01*
X133858Y-191414D01*
X149961Y-185724D01*
X166522Y-181610D01*
X183438Y-179171D01*
X200863Y-178308D01*
X6799122Y-178308D01*
X6817563Y-179273D01*
X6834428Y-181813D01*
X6850989Y-185978D01*
X6867042Y-191820D01*
X6882485Y-199136D01*
X6897116Y-207975D01*
X6910781Y-218186D01*
X6923379Y-229666D01*
X6934860Y-242366D01*
X6944969Y-256133D01*
X6953707Y-270814D01*
X6960971Y-286258D01*
X6966661Y-302361D01*
X6970775Y-318922D01*
X6973214Y-335838D01*
X6974078Y-353263D01*
X6974078Y-3951528D01*
X6973112Y-3969969D01*
X6970572Y-3986834D01*
X6966407Y-4003395D01*
X6960565Y-4019448D01*
X6953250Y-4034891D01*
X6944410Y-4049522D01*
X6934200Y-4063187D01*
X6922719Y-4075785D01*
X6910019Y-4087266D01*
X6896252Y-4097375D01*
X6881571Y-4106113D01*
X6866128Y-4113377D01*
X6850024Y-4119067D01*
X6833463Y-4123182D01*
X6816547Y-4125620D01*
X6799122Y-4126484D01*
G37*

%LPC*%
G36*
X202336Y-3774135D02*
G01*
X214172Y-3773728D01*
X225755Y-3771544D01*
X236931Y-3767734D01*
X247446Y-3762349D01*
X257048Y-3755491D01*
X265531Y-3747262D01*
X272745Y-3737965D01*
X278536Y-3727653D01*
X282752Y-3716629D01*
X285343Y-3705098D01*
X286207Y-3693312D01*
X285343Y-3681526D01*
X282752Y-3669995D01*
X278536Y-3658971D01*
X272745Y-3648659D01*
X265531Y-3639362D01*
X257048Y-3631133D01*
X247446Y-3624275D01*
X236931Y-3618890D01*
X225755Y-3615080D01*
X214172Y-3612896D01*
X202336Y-3612489D01*
X190601Y-3613759D01*
X179171Y-3616756D01*
X168300Y-3621379D01*
X158242Y-3627526D01*
X149148Y-3635095D01*
X141274Y-3643884D01*
X134772Y-3653739D01*
X129743Y-3664407D01*
X126339Y-3675735D01*
X124663Y-3687419D01*
X124663Y-3699205D01*
X126339Y-3710889D01*
X129743Y-3722217D01*
X134772Y-3732885D01*
X141274Y-3742740D01*
X149148Y-3751529D01*
X158242Y-3759098D01*
X168300Y-3765245D01*
X179171Y-3769868D01*
X190601Y-3772865D01*
G37*
G36*
X3825138Y-3739845D02*
G01*
X3834688Y-3738575D01*
X3843883Y-3735781D01*
X3852519Y-3731412D01*
X3860292Y-3725672D01*
X3866946Y-3718712D01*
X3872331Y-3710736D01*
X3876344Y-3701948D01*
X3878732Y-3692601D01*
X3879596Y-3683000D01*
X3878732Y-3673398D01*
X3876344Y-3664051D01*
X3872331Y-3655263D01*
X3866946Y-3647287D01*
X3860292Y-3640328D01*
X3852519Y-3634587D01*
X3843883Y-3630218D01*
X3834688Y-3627424D01*
X3825138Y-3626154D01*
X3815486Y-3626612D01*
X3806037Y-3628644D01*
X3797096Y-3632200D01*
X3788867Y-3637279D01*
X3781653Y-3643629D01*
X3775557Y-3651148D01*
X3770884Y-3659581D01*
X3767683Y-3668674D01*
X3766058Y-3678174D01*
X3766058Y-3687826D01*
X3767683Y-3697325D01*
X3770884Y-3706418D01*
X3775557Y-3714851D01*
X3781653Y-3722370D01*
X3788867Y-3728720D01*
X3797096Y-3733800D01*
X3806037Y-3737356D01*
X3815486Y-3739387D01*
G37*
G36*
X3418738Y-3676345D02*
G01*
X3428288Y-3675075D01*
X3437483Y-3672281D01*
X3446119Y-3667912D01*
X3453892Y-3662172D01*
X3460546Y-3655212D01*
X3465931Y-3647236D01*
X3469944Y-3638448D01*
X3472332Y-3629101D01*
X3473196Y-3619500D01*
X3472332Y-3609898D01*
X3469944Y-3600551D01*
X3465931Y-3591763D01*
X3460546Y-3583787D01*
X3453892Y-3576828D01*
X3446119Y-3571087D01*
X3437483Y-3566718D01*
X3428288Y-3563924D01*
X3414623Y-3561994D01*
X3411118Y-3559708D01*
X3130956Y-3279546D01*
X3128772Y-3276244D01*
X3127959Y-3272383D01*
X3128772Y-3268472D01*
X3130956Y-3265170D01*
X3134258Y-3262985D01*
X3138576Y-3262223D01*
X3138576Y-3172663D01*
X3078988Y-3172663D01*
X3078988Y-3203041D01*
X3078226Y-3206953D01*
X3076041Y-3210255D01*
X3072739Y-3212439D01*
X3068828Y-3213201D01*
X3064967Y-3212439D01*
X3061665Y-3210255D01*
X3039770Y-3188360D01*
X3037586Y-3185109D01*
X3036824Y-3181197D01*
X3036824Y-2956864D01*
X3036112Y-2950565D01*
X3034182Y-2945079D01*
X3031083Y-2940202D01*
X3027019Y-2936087D01*
X3022092Y-2932988D01*
X3016656Y-2931109D01*
X3010357Y-2930398D01*
X2851454Y-2930398D01*
X2845155Y-2931109D01*
X2839669Y-2932988D01*
X2834792Y-2936087D01*
X2830677Y-2940202D01*
X2827629Y-2945079D01*
X2825699Y-2950565D01*
X2824988Y-2956864D01*
X2824988Y-3235706D01*
X2825699Y-3242056D01*
X2827629Y-3247491D01*
X2830677Y-3252419D01*
X2834792Y-3256483D01*
X2839669Y-3259582D01*
X2845155Y-3261512D01*
X2851454Y-3262223D01*
X3000197Y-3262223D01*
X3004108Y-3262985D01*
X3007410Y-3265170D01*
X3356660Y-3614470D01*
X3358845Y-3617772D01*
X3359658Y-3621633D01*
X3359658Y-3624326D01*
X3361283Y-3633825D01*
X3364484Y-3642918D01*
X3369157Y-3651351D01*
X3375253Y-3658870D01*
X3382467Y-3665220D01*
X3390696Y-3670300D01*
X3399637Y-3673856D01*
X3409086Y-3675887D01*
G37*
G36*
X4434738Y-3650945D02*
G01*
X4444288Y-3649675D01*
X4453483Y-3646881D01*
X4462119Y-3642512D01*
X4474159Y-3633520D01*
X4478121Y-3632708D01*
X4977892Y-3632708D01*
X4985918Y-3631895D01*
X4993132Y-3629710D01*
X4999837Y-3626154D01*
X5006035Y-3621024D01*
X5290718Y-3336391D01*
X5294223Y-3334105D01*
X5307888Y-3332175D01*
X5317083Y-3329381D01*
X5325719Y-3325012D01*
X5333492Y-3319272D01*
X5340146Y-3312312D01*
X5345531Y-3304336D01*
X5349544Y-3295548D01*
X5351932Y-3286201D01*
X5352643Y-3277819D01*
X5353558Y-3274415D01*
X5355590Y-3271469D01*
X5359704Y-3267405D01*
X5363006Y-3265170D01*
X5366918Y-3264408D01*
X6024880Y-3264408D01*
X6028436Y-3265068D01*
X6031585Y-3266948D01*
X6036767Y-3271520D01*
X6044996Y-3276600D01*
X6053937Y-3280156D01*
X6063386Y-3282187D01*
X6068872Y-3282442D01*
X6072530Y-3283305D01*
X6075629Y-3285388D01*
X6157264Y-3367024D01*
X6163462Y-3372154D01*
X6170168Y-3375710D01*
X6177381Y-3377895D01*
X6185408Y-3378708D01*
X6431280Y-3378708D01*
X6434836Y-3379368D01*
X6437985Y-3381248D01*
X6443167Y-3385820D01*
X6451396Y-3390900D01*
X6460337Y-3394456D01*
X6469786Y-3396487D01*
X6479438Y-3396945D01*
X6488988Y-3395675D01*
X6498183Y-3392881D01*
X6506819Y-3388512D01*
X6514592Y-3382772D01*
X6521246Y-3375812D01*
X6526631Y-3367836D01*
X6530644Y-3359048D01*
X6533032Y-3349701D01*
X6533896Y-3340100D01*
X6533032Y-3330498D01*
X6530644Y-3321151D01*
X6526631Y-3312363D01*
X6521246Y-3304387D01*
X6514592Y-3297428D01*
X6506819Y-3291687D01*
X6498183Y-3287318D01*
X6488988Y-3284524D01*
X6479438Y-3283254D01*
X6469786Y-3283712D01*
X6460337Y-3285744D01*
X6451396Y-3289300D01*
X6443167Y-3294379D01*
X6437985Y-3298951D01*
X6434836Y-3300831D01*
X6431280Y-3301492D01*
X6205118Y-3301492D01*
X6201206Y-3300729D01*
X6197904Y-3298494D01*
X6130290Y-3230930D01*
X6128258Y-3227984D01*
X6127343Y-3224580D01*
X6126632Y-3216198D01*
X6124244Y-3206851D01*
X6120231Y-3198063D01*
X6114846Y-3190087D01*
X6108192Y-3183128D01*
X6100419Y-3177387D01*
X6091783Y-3173018D01*
X6082588Y-3170224D01*
X6073038Y-3168954D01*
X6063386Y-3169412D01*
X6053937Y-3171444D01*
X6044996Y-3175000D01*
X6036767Y-3180080D01*
X6031585Y-3184652D01*
X6028436Y-3186531D01*
X6024880Y-3187192D01*
X5347208Y-3187192D01*
X5339181Y-3188004D01*
X5331968Y-3190189D01*
X5325262Y-3193745D01*
X5319064Y-3198876D01*
X5300929Y-3217011D01*
X5297830Y-3219094D01*
X5292293Y-3220008D01*
X5288330Y-3219399D01*
X5284927Y-3217265D01*
X5282590Y-3213963D01*
X5281726Y-3210052D01*
X5282488Y-3206038D01*
X5284724Y-3202686D01*
X5372404Y-3115005D01*
X5375706Y-3112770D01*
X5379618Y-3112008D01*
X5554980Y-3112008D01*
X5558536Y-3112668D01*
X5561685Y-3114548D01*
X5566867Y-3119120D01*
X5575096Y-3124200D01*
X5584037Y-3127756D01*
X5593486Y-3129788D01*
X5603138Y-3130245D01*
X5612688Y-3128975D01*
X5621883Y-3126181D01*
X5630519Y-3121812D01*
X5638292Y-3116072D01*
X5644946Y-3109112D01*
X5650331Y-3101136D01*
X5654344Y-3092348D01*
X5656732Y-3083001D01*
X5657596Y-3073400D01*
X5656732Y-3063798D01*
X5654344Y-3054451D01*
X5650331Y-3045663D01*
X5644946Y-3037687D01*
X5638292Y-3030728D01*
X5630519Y-3024987D01*
X5621883Y-3020618D01*
X5612688Y-3017824D01*
X5603138Y-3016554D01*
X5593486Y-3017012D01*
X5584037Y-3019044D01*
X5575096Y-3022600D01*
X5566867Y-3027680D01*
X5561685Y-3032252D01*
X5558536Y-3034131D01*
X5554980Y-3034792D01*
X5359908Y-3034792D01*
X5351881Y-3035604D01*
X5344668Y-3037789D01*
X5337962Y-3041345D01*
X5331764Y-3046476D01*
X5204714Y-3173476D01*
X5201259Y-3175762D01*
X5197246Y-3176473D01*
X5193233Y-3175508D01*
X5189931Y-3173069D01*
X5187899Y-3169513D01*
X5187391Y-3165449D01*
X5187696Y-3162300D01*
X5186832Y-3152698D01*
X5184444Y-3143351D01*
X5180431Y-3134563D01*
X5175046Y-3126587D01*
X5168392Y-3119628D01*
X5160619Y-3113887D01*
X5151983Y-3109518D01*
X5142788Y-3106724D01*
X5129123Y-3104794D01*
X5125618Y-3102508D01*
X5092446Y-3069386D01*
X5086248Y-3064256D01*
X5079593Y-3060700D01*
X5076037Y-3059633D01*
X5072278Y-3057550D01*
X5069738Y-3054096D01*
X5068824Y-3049879D01*
X5068824Y-2956864D01*
X5068112Y-2950565D01*
X5066182Y-2945079D01*
X5063083Y-2940202D01*
X5059019Y-2936087D01*
X5054092Y-2932988D01*
X5048656Y-2931109D01*
X5042357Y-2930398D01*
X5039868Y-2930398D01*
X5035854Y-2929585D01*
X5032502Y-2927197D01*
X5030317Y-2923743D01*
X5029758Y-2919679D01*
X5030774Y-2915716D01*
X5033314Y-2912465D01*
X5046319Y-2905912D01*
X5054092Y-2900172D01*
X5060746Y-2893212D01*
X5066131Y-2885236D01*
X5070144Y-2876448D01*
X5072532Y-2867101D01*
X5073396Y-2857500D01*
X5072532Y-2847898D01*
X5070144Y-2838551D01*
X5066131Y-2829763D01*
X5060746Y-2821787D01*
X5054092Y-2814828D01*
X5046319Y-2809087D01*
X5037683Y-2804718D01*
X5028488Y-2801924D01*
X5018938Y-2800654D01*
X5009286Y-2801112D01*
X4999837Y-2803144D01*
X4990896Y-2806700D01*
X4982667Y-2811780D01*
X4975453Y-2818130D01*
X4969357Y-2825648D01*
X4964684Y-2834081D01*
X4961483Y-2843174D01*
X4959858Y-2852674D01*
X4959858Y-2855366D01*
X4959045Y-2859227D01*
X4956860Y-2862529D01*
X4935982Y-2883458D01*
X4930851Y-2889656D01*
X4927295Y-2896311D01*
X4925110Y-2903575D01*
X4924298Y-2911602D01*
X4924298Y-2920238D01*
X4923536Y-2924098D01*
X4921300Y-2927400D01*
X4918049Y-2929636D01*
X4914138Y-2930398D01*
X4883454Y-2930398D01*
X4877155Y-2931109D01*
X4871669Y-2932988D01*
X4866792Y-2936087D01*
X4862677Y-2940202D01*
X4859629Y-2945079D01*
X4857699Y-2950565D01*
X4856988Y-2956864D01*
X4856988Y-3235706D01*
X4857699Y-3242056D01*
X4859629Y-3247491D01*
X4862677Y-3252419D01*
X4866792Y-3256483D01*
X4871669Y-3259582D01*
X4877155Y-3261512D01*
X4883454Y-3262223D01*
X5042357Y-3262223D01*
X5048656Y-3261512D01*
X5054092Y-3259582D01*
X5059019Y-3256483D01*
X5063083Y-3252419D01*
X5066182Y-3247491D01*
X5068112Y-3242056D01*
X5068824Y-3235706D01*
X5068824Y-3204464D01*
X5069636Y-3200450D01*
X5072024Y-3197047D01*
X5075580Y-3194913D01*
X5079695Y-3194354D01*
X5083657Y-3195472D01*
X5086858Y-3198114D01*
X5089753Y-3201670D01*
X5096967Y-3208020D01*
X5105196Y-3213100D01*
X5114137Y-3216656D01*
X5123586Y-3218688D01*
X5133340Y-3219094D01*
X5137505Y-3219450D01*
X5141214Y-3221431D01*
X5143754Y-3224682D01*
X5144820Y-3228746D01*
X5144109Y-3232861D01*
X5141823Y-3236366D01*
X4965395Y-3412794D01*
X4962093Y-3415029D01*
X4958181Y-3415792D01*
X4122318Y-3415792D01*
X4118406Y-3415029D01*
X4115104Y-3412794D01*
X4009390Y-3307130D01*
X4007358Y-3304184D01*
X4006443Y-3300780D01*
X4005732Y-3292398D01*
X4003344Y-3283051D01*
X4000398Y-3276549D01*
X3999484Y-3272637D01*
X4000195Y-3268675D01*
X4002379Y-3265271D01*
X4005681Y-3262985D01*
X4009644Y-3262223D01*
X4026357Y-3262223D01*
X4032656Y-3261512D01*
X4038092Y-3259582D01*
X4043019Y-3256483D01*
X4047083Y-3252419D01*
X4050182Y-3247491D01*
X4052112Y-3242056D01*
X4052824Y-3235706D01*
X4052824Y-2956864D01*
X4052112Y-2950565D01*
X4050182Y-2945079D01*
X4047083Y-2940202D01*
X4043019Y-2936087D01*
X4038092Y-2932988D01*
X4032656Y-2931109D01*
X4026357Y-2930398D01*
X3867454Y-2930398D01*
X3861155Y-2931109D01*
X3855669Y-2932988D01*
X3850792Y-2936087D01*
X3846677Y-2940202D01*
X3843629Y-2945079D01*
X3841699Y-2950565D01*
X3840987Y-2956864D01*
X3840987Y-3235706D01*
X3841699Y-3242056D01*
X3843629Y-3247491D01*
X3846677Y-3252419D01*
X3850792Y-3256483D01*
X3855669Y-3259582D01*
X3861155Y-3261512D01*
X3867454Y-3262223D01*
X3889705Y-3262223D01*
X3893820Y-3263087D01*
X3897223Y-3265525D01*
X3899357Y-3269132D01*
X3899814Y-3273298D01*
X3894683Y-3287674D01*
X3893058Y-3297174D01*
X3893058Y-3306826D01*
X3894683Y-3316325D01*
X3897884Y-3325418D01*
X3902557Y-3333851D01*
X3908653Y-3341370D01*
X3915867Y-3347720D01*
X3924096Y-3352800D01*
X3927398Y-3354120D01*
X3930904Y-3356508D01*
X3933190Y-3360165D01*
X3933698Y-3364382D01*
X3932478Y-3368497D01*
X3929634Y-3371697D01*
X3925722Y-3373475D01*
X3920337Y-3374644D01*
X3911396Y-3378200D01*
X3903167Y-3383279D01*
X3895953Y-3389629D01*
X3889857Y-3397148D01*
X3885184Y-3405581D01*
X3881983Y-3414674D01*
X3880358Y-3424174D01*
X3880358Y-3433826D01*
X3881983Y-3443325D01*
X3885184Y-3452418D01*
X3889857Y-3460851D01*
X3895953Y-3468370D01*
X3903167Y-3474720D01*
X3911396Y-3479800D01*
X3920337Y-3483356D01*
X3929786Y-3485387D01*
X3935272Y-3485642D01*
X3938930Y-3486505D01*
X3942029Y-3488588D01*
X4074464Y-3621024D01*
X4080662Y-3626154D01*
X4087368Y-3629710D01*
X4094581Y-3631895D01*
X4102608Y-3632708D01*
X4386580Y-3632708D01*
X4390136Y-3633368D01*
X4393285Y-3635248D01*
X4398467Y-3639820D01*
X4406696Y-3644900D01*
X4415637Y-3648456D01*
X4425086Y-3650487D01*
G37*
G36*
X202336Y-3474161D02*
G01*
X214172Y-3473704D01*
X225755Y-3471570D01*
X236931Y-3467760D01*
X247446Y-3462375D01*
X257048Y-3455466D01*
X265531Y-3447287D01*
X272745Y-3437940D01*
X278536Y-3427628D01*
X282752Y-3416604D01*
X285343Y-3405073D01*
X286207Y-3393338D01*
X285343Y-3381552D01*
X282752Y-3370021D01*
X278536Y-3358997D01*
X272745Y-3348685D01*
X265531Y-3339337D01*
X257048Y-3331159D01*
X247446Y-3324250D01*
X236931Y-3318865D01*
X225755Y-3315055D01*
X214172Y-3312922D01*
X202336Y-3312464D01*
X190601Y-3313785D01*
X179171Y-3316782D01*
X168300Y-3321405D01*
X158242Y-3327552D01*
X149148Y-3335070D01*
X141274Y-3343859D01*
X134772Y-3353714D01*
X129743Y-3364433D01*
X126339Y-3375710D01*
X124663Y-3387394D01*
X124663Y-3399231D01*
X126339Y-3410915D01*
X129743Y-3422192D01*
X134772Y-3432911D01*
X141274Y-3442766D01*
X149148Y-3451555D01*
X158242Y-3459073D01*
X168300Y-3465220D01*
X179171Y-3469843D01*
X190601Y-3472840D01*
G37*
G36*
X2301138Y-3384245D02*
G01*
X2310688Y-3382975D01*
X2319883Y-3380181D01*
X2328519Y-3375812D01*
X2336292Y-3370072D01*
X2342946Y-3363112D01*
X2348331Y-3355136D01*
X2352344Y-3346348D01*
X2354732Y-3337001D01*
X2355596Y-3327400D01*
X2354732Y-3317798D01*
X2352344Y-3308451D01*
X2348331Y-3299663D01*
X2342946Y-3291687D01*
X2336292Y-3284728D01*
X2329535Y-3279698D01*
X2326640Y-3276396D01*
X2325522Y-3272485D01*
X2321407Y-3274060D01*
X2316937Y-3273704D01*
X2310688Y-3271824D01*
X2297023Y-3269894D01*
X2293518Y-3267608D01*
X2276957Y-3251047D01*
X2275128Y-3248609D01*
X2274112Y-3245764D01*
X2274011Y-3242716D01*
X2274824Y-3235706D01*
X2274824Y-2956864D01*
X2274112Y-2950565D01*
X2272182Y-2945079D01*
X2269083Y-2940202D01*
X2265019Y-2936087D01*
X2260092Y-2932988D01*
X2254656Y-2931109D01*
X2248357Y-2930398D01*
X2089454Y-2930398D01*
X2083155Y-2931109D01*
X2077669Y-2932988D01*
X2072792Y-2936087D01*
X2068677Y-2940202D01*
X2065629Y-2945079D01*
X2063699Y-2950565D01*
X2062988Y-2956864D01*
X2062988Y-3235706D01*
X2063699Y-3242056D01*
X2065629Y-3247491D01*
X2068677Y-3252419D01*
X2072792Y-3256483D01*
X2077669Y-3259582D01*
X2083155Y-3261512D01*
X2089454Y-3262223D01*
X2174697Y-3262223D01*
X2178608Y-3262985D01*
X2181860Y-3265170D01*
X2239060Y-3322370D01*
X2241245Y-3325672D01*
X2242058Y-3329533D01*
X2242058Y-3332226D01*
X2243683Y-3341725D01*
X2246884Y-3350818D01*
X2251557Y-3359251D01*
X2257653Y-3366770D01*
X2264867Y-3373120D01*
X2273096Y-3378200D01*
X2282037Y-3381756D01*
X2291486Y-3383787D01*
G37*
G36*
X1310538Y-3371545D02*
G01*
X1320088Y-3370275D01*
X1329283Y-3367481D01*
X1337919Y-3363112D01*
X1345692Y-3357372D01*
X1352346Y-3350412D01*
X1357731Y-3342436D01*
X1361744Y-3333648D01*
X1364132Y-3324301D01*
X1364996Y-3314700D01*
X1364132Y-3305098D01*
X1361744Y-3295751D01*
X1357782Y-3286963D01*
X1351686Y-3278073D01*
X1350060Y-3274009D01*
X1350314Y-3269640D01*
X1352346Y-3265779D01*
X1355801Y-3263138D01*
X1360068Y-3262223D01*
X1486357Y-3262223D01*
X1492656Y-3261512D01*
X1498092Y-3259582D01*
X1503019Y-3256483D01*
X1507083Y-3252419D01*
X1510182Y-3247491D01*
X1512112Y-3242056D01*
X1512824Y-3235706D01*
X1512824Y-2956864D01*
X1512112Y-2950565D01*
X1510182Y-2945079D01*
X1507083Y-2940202D01*
X1503019Y-2936087D01*
X1498447Y-2933242D01*
X1495907Y-2930956D01*
X1494282Y-2927959D01*
X1493723Y-2924606D01*
X1493723Y-2919272D01*
X1494129Y-2916326D01*
X1495450Y-2913583D01*
X1497431Y-2910636D01*
X1501444Y-2901848D01*
X1503832Y-2892501D01*
X1504696Y-2882900D01*
X1503832Y-2873298D01*
X1501444Y-2863951D01*
X1497431Y-2855163D01*
X1492046Y-2847187D01*
X1485392Y-2840228D01*
X1477619Y-2834487D01*
X1468983Y-2830118D01*
X1459788Y-2827324D01*
X1450238Y-2826054D01*
X1440586Y-2826512D01*
X1431137Y-2828544D01*
X1422196Y-2832100D01*
X1413967Y-2837180D01*
X1406753Y-2843530D01*
X1400657Y-2851048D01*
X1395984Y-2859481D01*
X1392783Y-2868574D01*
X1391158Y-2878074D01*
X1391158Y-2887726D01*
X1392783Y-2897225D01*
X1395984Y-2906318D01*
X1400606Y-2914599D01*
X1401572Y-2916986D01*
X1401876Y-2920238D01*
X1401114Y-2924098D01*
X1398930Y-2927400D01*
X1395628Y-2929636D01*
X1391716Y-2930398D01*
X1327454Y-2930398D01*
X1321155Y-2931109D01*
X1315669Y-2932988D01*
X1310792Y-2936087D01*
X1306677Y-2940202D01*
X1303629Y-2945079D01*
X1301699Y-2950565D01*
X1300988Y-2956864D01*
X1300988Y-3235706D01*
X1301699Y-3242056D01*
X1303121Y-3246120D01*
X1303680Y-3250336D01*
X1302410Y-3254451D01*
X1299565Y-3257651D01*
X1295704Y-3259429D01*
X1291437Y-3260344D01*
X1282496Y-3263900D01*
X1277010Y-3267303D01*
X1274470Y-3268421D01*
X1271727Y-3268776D01*
X1261211Y-3268776D01*
X1256995Y-3267862D01*
X1253540Y-3265322D01*
X1251458Y-3261563D01*
X1251153Y-3257245D01*
X1252575Y-3253232D01*
X1256182Y-3247491D01*
X1258112Y-3242056D01*
X1258824Y-3235706D01*
X1258824Y-2956864D01*
X1258112Y-2950565D01*
X1256639Y-2946450D01*
X1256080Y-2942793D01*
X1256893Y-2939135D01*
X1258925Y-2936036D01*
X1263446Y-2931312D01*
X1268831Y-2923336D01*
X1272844Y-2914548D01*
X1275232Y-2905201D01*
X1276096Y-2895600D01*
X1275232Y-2885998D01*
X1272844Y-2876651D01*
X1268831Y-2867863D01*
X1263446Y-2859887D01*
X1256792Y-2852928D01*
X1249019Y-2847187D01*
X1240383Y-2842818D01*
X1231188Y-2840024D01*
X1221638Y-2838754D01*
X1211986Y-2839212D01*
X1202537Y-2841244D01*
X1193596Y-2844800D01*
X1185367Y-2849880D01*
X1178153Y-2856230D01*
X1172057Y-2863748D01*
X1167384Y-2872181D01*
X1164183Y-2881274D01*
X1162558Y-2890774D01*
X1162558Y-2900375D01*
X1164437Y-2911144D01*
X1164590Y-2913634D01*
X1164082Y-2916072D01*
X1161643Y-2923438D01*
X1159560Y-2927045D01*
X1156157Y-2929534D01*
X1152042Y-2930398D01*
X1073454Y-2930398D01*
X1067155Y-2931109D01*
X1061669Y-2932988D01*
X1056792Y-2936087D01*
X1052677Y-2940202D01*
X1049629Y-2945079D01*
X1047699Y-2950565D01*
X1046987Y-2956864D01*
X1046987Y-3235706D01*
X1047699Y-3242056D01*
X1049629Y-3247491D01*
X1053185Y-3253232D01*
X1054658Y-3257245D01*
X1054354Y-3261563D01*
X1052271Y-3265322D01*
X1048816Y-3267862D01*
X1044600Y-3268776D01*
X1007211Y-3268776D01*
X1002995Y-3267862D01*
X999540Y-3265322D01*
X997458Y-3261563D01*
X997153Y-3257245D01*
X998575Y-3253232D01*
X1002182Y-3247491D01*
X1004112Y-3242056D01*
X1004824Y-3235706D01*
X1004824Y-2956864D01*
X1004112Y-2950565D01*
X1002182Y-2945079D01*
X999083Y-2940202D01*
X995019Y-2936087D01*
X990092Y-2932988D01*
X984656Y-2931109D01*
X978357Y-2930398D01*
X819454Y-2930398D01*
X813155Y-2931109D01*
X807669Y-2932988D01*
X802792Y-2936087D01*
X798677Y-2940202D01*
X795629Y-2945079D01*
X793699Y-2950565D01*
X792988Y-2956864D01*
X792988Y-3235706D01*
X793699Y-3242056D01*
X795629Y-3247491D01*
X799185Y-3253232D01*
X800658Y-3257245D01*
X800354Y-3261563D01*
X798271Y-3265322D01*
X794816Y-3267862D01*
X790600Y-3268776D01*
X753211Y-3268776D01*
X748995Y-3267862D01*
X745540Y-3265322D01*
X743458Y-3261563D01*
X743153Y-3257245D01*
X744575Y-3253232D01*
X748182Y-3247491D01*
X750112Y-3242056D01*
X750824Y-3235706D01*
X750824Y-3172663D01*
X691235Y-3172663D01*
X691235Y-3258616D01*
X690473Y-3262528D01*
X688289Y-3265830D01*
X684987Y-3268014D01*
X681075Y-3268776D01*
X608736Y-3268776D01*
X604824Y-3268014D01*
X601522Y-3265830D01*
X599338Y-3262528D01*
X598576Y-3258616D01*
X598576Y-3172663D01*
X538988Y-3172663D01*
X538988Y-3235706D01*
X539699Y-3242056D01*
X541629Y-3247491D01*
X545185Y-3253232D01*
X546658Y-3257245D01*
X546354Y-3261563D01*
X544271Y-3265322D01*
X540816Y-3267862D01*
X536600Y-3268776D01*
X518515Y-3268776D01*
X514654Y-3268014D01*
X511352Y-3265830D01*
X498398Y-3252876D01*
X496265Y-3249777D01*
X495452Y-3246069D01*
X496112Y-3242056D01*
X496824Y-3235706D01*
X496824Y-2956864D01*
X496112Y-2950565D01*
X494182Y-2945079D01*
X491947Y-2941523D01*
X490829Y-2938932D01*
X490423Y-2936138D01*
X490423Y-2893872D01*
X490829Y-2890926D01*
X492150Y-2888183D01*
X494131Y-2885236D01*
X498144Y-2876448D01*
X500532Y-2867101D01*
X501396Y-2857500D01*
X500532Y-2847898D01*
X498144Y-2838551D01*
X494131Y-2829763D01*
X488746Y-2821787D01*
X482092Y-2814828D01*
X474319Y-2809087D01*
X465683Y-2804718D01*
X456488Y-2801924D01*
X446938Y-2800654D01*
X437286Y-2801112D01*
X427837Y-2803144D01*
X418896Y-2806700D01*
X410667Y-2811780D01*
X403453Y-2818130D01*
X397357Y-2825648D01*
X392684Y-2834081D01*
X389483Y-2843174D01*
X387858Y-2852674D01*
X387858Y-2862326D01*
X389483Y-2871825D01*
X392684Y-2880918D01*
X397306Y-2889199D01*
X398272Y-2891586D01*
X398576Y-2894177D01*
X398576Y-2920238D01*
X397814Y-2924098D01*
X395630Y-2927400D01*
X392328Y-2929636D01*
X388416Y-2930398D01*
X311454Y-2930398D01*
X305155Y-2931109D01*
X299669Y-2932988D01*
X294792Y-2936087D01*
X290677Y-2940202D01*
X287629Y-2945079D01*
X285699Y-2950565D01*
X284988Y-2956864D01*
X284988Y-3235706D01*
X285699Y-3242056D01*
X287629Y-3247491D01*
X290677Y-3252419D01*
X294792Y-3256483D01*
X299669Y-3259582D01*
X305155Y-3261512D01*
X311454Y-3262223D01*
X373684Y-3262223D01*
X377545Y-3262985D01*
X380847Y-3265170D01*
X464108Y-3348380D01*
X471170Y-3353714D01*
X478739Y-3357473D01*
X486867Y-3359759D01*
X495757Y-3360623D01*
X1271727Y-3360623D01*
X1274470Y-3360978D01*
X1277010Y-3362096D01*
X1282496Y-3365500D01*
X1291437Y-3369056D01*
X1300886Y-3371087D01*
G37*
G36*
X2329840Y-3263392D02*
G01*
X2332329Y-3261918D01*
X2336698Y-3261461D01*
X2343454Y-3262223D01*
X2502357Y-3262223D01*
X2508656Y-3261512D01*
X2514092Y-3259582D01*
X2519019Y-3256483D01*
X2523083Y-3252419D01*
X2526182Y-3247491D01*
X2528112Y-3242056D01*
X2528824Y-3235706D01*
X2528824Y-3028848D01*
X2529586Y-3024936D01*
X2531770Y-3021685D01*
X2553665Y-2999790D01*
X2556967Y-2997606D01*
X2560828Y-2996844D01*
X2564739Y-2997606D01*
X2568041Y-2999790D01*
X2570226Y-3003092D01*
X2570988Y-3007004D01*
X2570988Y-3235706D01*
X2571699Y-3242056D01*
X2573629Y-3247491D01*
X2576677Y-3252419D01*
X2580792Y-3256483D01*
X2585669Y-3259582D01*
X2591155Y-3261512D01*
X2597454Y-3262223D01*
X2756357Y-3262223D01*
X2762656Y-3261512D01*
X2768092Y-3259582D01*
X2773019Y-3256483D01*
X2777083Y-3252419D01*
X2780182Y-3247491D01*
X2782112Y-3242056D01*
X2782824Y-3235706D01*
X2782824Y-2956864D01*
X2782112Y-2950565D01*
X2780182Y-2945079D01*
X2777083Y-2940202D01*
X2775610Y-2938678D01*
X2773476Y-2935528D01*
X2772613Y-2931769D01*
X2773222Y-2928010D01*
X2775204Y-2924759D01*
X2778201Y-2922422D01*
X2785719Y-2918612D01*
X2793492Y-2912872D01*
X2800146Y-2905912D01*
X2805531Y-2897936D01*
X2809544Y-2889148D01*
X2811932Y-2879801D01*
X2812796Y-2870200D01*
X2811932Y-2860598D01*
X2809544Y-2851251D01*
X2805531Y-2842463D01*
X2800146Y-2834487D01*
X2793492Y-2827528D01*
X2785719Y-2821787D01*
X2777083Y-2817418D01*
X2767888Y-2814624D01*
X2758338Y-2813354D01*
X2748686Y-2813812D01*
X2739237Y-2815844D01*
X2730296Y-2819400D01*
X2722067Y-2824480D01*
X2716885Y-2829052D01*
X2713736Y-2830931D01*
X2710180Y-2831592D01*
X2629154Y-2831592D01*
X2621127Y-2832404D01*
X2613914Y-2834589D01*
X2607208Y-2838145D01*
X2601010Y-2843276D01*
X2516174Y-2928112D01*
X2513736Y-2929890D01*
X2510840Y-2930906D01*
X2507843Y-2931007D01*
X2502357Y-2930398D01*
X2343454Y-2930398D01*
X2337155Y-2931109D01*
X2331669Y-2932988D01*
X2326792Y-2936087D01*
X2322677Y-2940202D01*
X2319629Y-2945079D01*
X2317699Y-2950565D01*
X2316988Y-2956864D01*
X2316988Y-3235706D01*
X2317699Y-3242056D01*
X2319629Y-3247491D01*
X2322677Y-3252419D01*
X2327097Y-3256838D01*
X2329484Y-3260598D01*
G37*
G36*
X1835454Y-3262223D02*
G01*
X1868576Y-3262223D01*
X1868576Y-3172663D01*
X1808988Y-3172663D01*
X1808988Y-3235706D01*
X1809699Y-3242056D01*
X1811629Y-3247491D01*
X1814677Y-3252419D01*
X1818792Y-3256483D01*
X1823669Y-3259582D01*
X1829155Y-3261512D01*
G37*
G36*
X1961235Y-3262223D02*
G01*
X1994357Y-3262223D01*
X2000656Y-3261512D01*
X2006092Y-3259582D01*
X2011019Y-3256483D01*
X2015083Y-3252419D01*
X2018182Y-3247491D01*
X2020112Y-3242056D01*
X2020824Y-3235706D01*
X2020824Y-3172663D01*
X1961235Y-3172663D01*
G37*
G36*
X3231235Y-3262223D02*
G01*
X3264357Y-3262223D01*
X3270656Y-3261512D01*
X3276092Y-3259582D01*
X3281019Y-3256483D01*
X3285083Y-3252419D01*
X3288182Y-3247491D01*
X3290112Y-3242056D01*
X3290824Y-3235706D01*
X3290824Y-3172663D01*
X3231235Y-3172663D01*
G37*
G36*
X4375454Y-3262223D02*
G01*
X4408576Y-3262223D01*
X4408576Y-3172663D01*
X4348988Y-3172663D01*
X4348988Y-3235706D01*
X4349699Y-3242056D01*
X4351629Y-3247491D01*
X4354677Y-3252419D01*
X4358792Y-3256483D01*
X4363669Y-3259582D01*
X4369155Y-3261512D01*
G37*
G36*
X4501235Y-3262223D02*
G01*
X4534357Y-3262223D01*
X4540656Y-3261512D01*
X4546092Y-3259582D01*
X4551019Y-3256483D01*
X4555083Y-3252419D01*
X4558182Y-3247491D01*
X4560112Y-3242056D01*
X4560824Y-3235706D01*
X4560824Y-3172663D01*
X4501235Y-3172663D01*
G37*
G36*
X4629454Y-3262223D02*
G01*
X4788357Y-3262223D01*
X4794656Y-3261512D01*
X4800092Y-3259582D01*
X4805019Y-3256483D01*
X4809083Y-3252419D01*
X4812182Y-3247491D01*
X4814112Y-3242056D01*
X4814824Y-3235706D01*
X4814824Y-2956864D01*
X4814112Y-2950565D01*
X4812182Y-2945079D01*
X4809083Y-2940202D01*
X4805019Y-2936087D01*
X4800092Y-2932988D01*
X4794656Y-2931109D01*
X4788357Y-2930398D01*
X4629454Y-2930398D01*
X4623155Y-2931109D01*
X4617669Y-2932988D01*
X4612792Y-2936087D01*
X4608677Y-2940202D01*
X4605629Y-2945079D01*
X4603699Y-2950565D01*
X4602988Y-2956864D01*
X4602988Y-3235706D01*
X4603699Y-3242056D01*
X4605629Y-3247491D01*
X4608677Y-3252419D01*
X4612792Y-3256483D01*
X4617669Y-3259582D01*
X4623155Y-3261512D01*
G37*
G36*
X1581454Y-3262223D02*
G01*
X1740357Y-3262223D01*
X1746656Y-3261512D01*
X1752092Y-3259582D01*
X1757019Y-3256483D01*
X1761083Y-3252419D01*
X1764182Y-3247491D01*
X1766112Y-3242056D01*
X1766824Y-3235706D01*
X1766824Y-2956864D01*
X1766112Y-2950565D01*
X1764182Y-2945079D01*
X1761083Y-2940202D01*
X1757019Y-2936087D01*
X1752092Y-2932988D01*
X1742948Y-2929839D01*
X1740001Y-2927299D01*
X1738223Y-2923794D01*
X1737868Y-2919882D01*
X1739036Y-2916174D01*
X1741576Y-2913176D01*
X1744980Y-2911297D01*
X1748383Y-2910281D01*
X1757019Y-2905912D01*
X1764792Y-2900172D01*
X1771446Y-2893212D01*
X1776831Y-2885236D01*
X1780844Y-2876448D01*
X1783232Y-2867101D01*
X1784096Y-2857500D01*
X1783232Y-2847898D01*
X1780844Y-2838551D01*
X1776831Y-2829763D01*
X1771446Y-2821787D01*
X1764792Y-2814828D01*
X1757019Y-2809087D01*
X1748383Y-2804718D01*
X1739188Y-2801924D01*
X1729638Y-2800654D01*
X1719986Y-2801112D01*
X1710537Y-2803144D01*
X1701596Y-2806700D01*
X1693367Y-2811780D01*
X1686153Y-2818130D01*
X1680057Y-2825648D01*
X1675384Y-2834081D01*
X1672183Y-2843174D01*
X1670812Y-2848305D01*
X1668983Y-2850794D01*
X1627479Y-2892348D01*
X1622145Y-2899410D01*
X1618386Y-2906979D01*
X1616049Y-2915208D01*
X1615338Y-2921355D01*
X1614271Y-2924911D01*
X1612036Y-2927807D01*
X1608886Y-2929737D01*
X1605229Y-2930398D01*
X1581454Y-2930398D01*
X1575155Y-2931109D01*
X1569669Y-2932988D01*
X1564792Y-2936087D01*
X1560677Y-2940202D01*
X1557629Y-2945079D01*
X1555699Y-2950565D01*
X1554988Y-2956864D01*
X1554988Y-3235706D01*
X1555699Y-3242056D01*
X1557629Y-3247491D01*
X1560677Y-3252419D01*
X1564792Y-3256483D01*
X1569669Y-3259582D01*
X1575155Y-3261512D01*
G37*
G36*
X4121454Y-3262223D02*
G01*
X4280357Y-3262223D01*
X4286656Y-3261512D01*
X4292092Y-3259582D01*
X4297019Y-3256483D01*
X4301083Y-3252419D01*
X4304182Y-3247491D01*
X4306112Y-3242056D01*
X4306824Y-3235706D01*
X4306824Y-2956864D01*
X4306112Y-2950565D01*
X4304182Y-2945079D01*
X4301083Y-2940202D01*
X4297019Y-2936087D01*
X4292092Y-2932988D01*
X4286656Y-2931109D01*
X4280357Y-2930398D01*
X4256989Y-2930398D01*
X4253077Y-2929636D01*
X4249775Y-2927400D01*
X4247591Y-2924098D01*
X4246829Y-2920238D01*
X4246829Y-2542438D01*
X4247235Y-2539441D01*
X4248556Y-2536748D01*
X4253331Y-2529636D01*
X4257344Y-2520848D01*
X4259732Y-2511501D01*
X4260596Y-2501900D01*
X4259732Y-2492298D01*
X4257344Y-2482951D01*
X4253331Y-2474163D01*
X4249369Y-2468270D01*
X4247896Y-2464917D01*
X4247184Y-2461920D01*
X4243781Y-2454198D01*
X4239006Y-2447188D01*
X4233011Y-2441194D01*
X4226001Y-2436418D01*
X4218279Y-2433015D01*
X4210050Y-2431084D01*
X4201566Y-2430678D01*
X4193184Y-2431846D01*
X4185158Y-2434539D01*
X4177792Y-2438654D01*
X4170934Y-2444343D01*
X4167174Y-2448153D01*
X4161891Y-2455164D01*
X4158132Y-2462733D01*
X4155897Y-2470505D01*
X4155084Y-2472588D01*
X4151884Y-2478430D01*
X4148683Y-2487574D01*
X4147058Y-2497074D01*
X4147058Y-2506726D01*
X4148683Y-2516225D01*
X4151884Y-2525318D01*
X4154678Y-2531008D01*
X4154982Y-2533548D01*
X4154982Y-2920238D01*
X4154220Y-2924098D01*
X4152036Y-2927400D01*
X4148734Y-2929636D01*
X4144822Y-2930398D01*
X4121454Y-2930398D01*
X4115155Y-2931109D01*
X4109669Y-2932988D01*
X4104792Y-2936087D01*
X4100677Y-2940202D01*
X4097629Y-2945079D01*
X4095699Y-2950565D01*
X4094987Y-2956864D01*
X4094987Y-3235706D01*
X4095699Y-3242056D01*
X4097629Y-3247491D01*
X4100677Y-3252419D01*
X4104792Y-3256483D01*
X4109669Y-3259582D01*
X4115155Y-3261512D01*
G37*
G36*
X3613454Y-3262223D02*
G01*
X3772357Y-3262223D01*
X3778656Y-3261512D01*
X3784092Y-3259582D01*
X3789019Y-3256483D01*
X3793083Y-3252419D01*
X3796182Y-3247491D01*
X3798112Y-3242056D01*
X3798824Y-3235706D01*
X3798824Y-2956864D01*
X3798112Y-2950565D01*
X3796182Y-2945079D01*
X3793083Y-2940202D01*
X3789019Y-2936087D01*
X3784092Y-2932988D01*
X3778656Y-2931109D01*
X3772357Y-2930398D01*
X3747922Y-2930398D01*
X3744468Y-2929788D01*
X3741470Y-2928061D01*
X3739184Y-2925470D01*
X3734866Y-2912364D01*
X3730751Y-2904998D01*
X3725062Y-2898089D01*
X2698191Y-1871319D01*
X2691130Y-1865985D01*
X2683560Y-1862226D01*
X2675432Y-1859940D01*
X2666542Y-1859076D01*
X1547876Y-1859076D01*
X1544675Y-1858568D01*
X1532483Y-1852218D01*
X1523288Y-1849424D01*
X1513738Y-1848154D01*
X1504086Y-1848612D01*
X1494637Y-1850643D01*
X1485696Y-1854200D01*
X1477467Y-1859280D01*
X1470253Y-1865630D01*
X1464157Y-1873148D01*
X1459484Y-1881581D01*
X1456283Y-1890674D01*
X1454658Y-1900174D01*
X1454658Y-1909825D01*
X1456283Y-1919325D01*
X1459484Y-1928418D01*
X1464157Y-1936851D01*
X1470253Y-1944370D01*
X1477467Y-1950720D01*
X1485696Y-1955800D01*
X1494637Y-1959356D01*
X1504086Y-1961388D01*
X1513738Y-1961845D01*
X1523288Y-1960575D01*
X1532483Y-1957781D01*
X1544675Y-1951431D01*
X1547876Y-1950923D01*
X2643784Y-1950923D01*
X2647645Y-1951685D01*
X2650947Y-1953869D01*
X3611321Y-2914192D01*
X3613556Y-2917596D01*
X3614267Y-2921609D01*
X3613353Y-2925622D01*
X3610965Y-2928924D01*
X3607460Y-2931007D01*
X3601669Y-2932988D01*
X3596792Y-2936087D01*
X3592677Y-2940202D01*
X3589629Y-2945079D01*
X3587699Y-2950565D01*
X3586987Y-2956864D01*
X3586987Y-3235706D01*
X3587699Y-3242056D01*
X3589629Y-3247491D01*
X3592677Y-3252419D01*
X3596792Y-3256483D01*
X3601669Y-3259582D01*
X3607155Y-3261512D01*
G37*
G36*
X3359454Y-3262223D02*
G01*
X3518357Y-3262223D01*
X3524656Y-3261512D01*
X3530092Y-3259582D01*
X3535019Y-3256483D01*
X3539083Y-3252419D01*
X3542182Y-3247491D01*
X3544112Y-3242056D01*
X3544824Y-3235706D01*
X3544824Y-2956864D01*
X3544112Y-2950565D01*
X3542182Y-2945079D01*
X3539083Y-2940202D01*
X3535019Y-2936087D01*
X3530092Y-2932988D01*
X3524656Y-2931109D01*
X3518357Y-2930398D01*
X3494989Y-2930398D01*
X3491077Y-2929636D01*
X3487775Y-2927400D01*
X3485591Y-2924098D01*
X3484829Y-2920238D01*
X3484778Y-2878328D01*
X3483559Y-2869590D01*
X3480866Y-2861564D01*
X3476751Y-2854198D01*
X3471062Y-2847289D01*
X3256991Y-2633319D01*
X3249930Y-2627985D01*
X3242360Y-2624226D01*
X3234232Y-2621940D01*
X3225342Y-2621076D01*
X734415Y-2621076D01*
X730554Y-2620314D01*
X727252Y-2618130D01*
X645769Y-2536647D01*
X643585Y-2533345D01*
X642823Y-2529484D01*
X642823Y-1890572D01*
X643229Y-1887626D01*
X644550Y-1884883D01*
X646531Y-1881936D01*
X650544Y-1873148D01*
X652932Y-1863801D01*
X653796Y-1854200D01*
X652932Y-1844598D01*
X650544Y-1835251D01*
X646531Y-1826463D01*
X641146Y-1818487D01*
X634492Y-1811528D01*
X626719Y-1805787D01*
X618083Y-1801418D01*
X608888Y-1798624D01*
X599338Y-1797354D01*
X589686Y-1797812D01*
X580237Y-1799843D01*
X571296Y-1803400D01*
X563067Y-1808480D01*
X555853Y-1814830D01*
X549757Y-1822348D01*
X545084Y-1830781D01*
X541883Y-1839874D01*
X540258Y-1849374D01*
X540258Y-1859025D01*
X541883Y-1868525D01*
X545084Y-1877618D01*
X549706Y-1885899D01*
X550672Y-1888286D01*
X550976Y-1890877D01*
X551027Y-2554478D01*
X552246Y-2563215D01*
X554939Y-2571242D01*
X559054Y-2578608D01*
X564794Y-2585516D01*
X680008Y-2700680D01*
X687070Y-2706014D01*
X694639Y-2709773D01*
X702767Y-2712059D01*
X711657Y-2712923D01*
X3202584Y-2712923D01*
X3206445Y-2713685D01*
X3209747Y-2715869D01*
X3390036Y-2896158D01*
X3392220Y-2899460D01*
X3392982Y-2903321D01*
X3392982Y-2920238D01*
X3392220Y-2924098D01*
X3390036Y-2927400D01*
X3386734Y-2929636D01*
X3382822Y-2930398D01*
X3359454Y-2930398D01*
X3353155Y-2931109D01*
X3347669Y-2932988D01*
X3342792Y-2936087D01*
X3338677Y-2940202D01*
X3335629Y-2945079D01*
X3333699Y-2950565D01*
X3332987Y-2956864D01*
X3332987Y-3235706D01*
X3333699Y-3242056D01*
X3335629Y-3247491D01*
X3338677Y-3252419D01*
X3342792Y-3256483D01*
X3347669Y-3259582D01*
X3353155Y-3261512D01*
G37*
G36*
X6320434Y-3142640D02*
G01*
X6329984Y-3141370D01*
X6339179Y-3138576D01*
X6347815Y-3134207D01*
X6355588Y-3128467D01*
X6362242Y-3121507D01*
X6367627Y-3113532D01*
X6371640Y-3104743D01*
X6374028Y-3095396D01*
X6374892Y-3085795D01*
X6374028Y-3076194D01*
X6371640Y-3066846D01*
X6367627Y-3058058D01*
X6362242Y-3050082D01*
X6355588Y-3043123D01*
X6347815Y-3037382D01*
X6339179Y-3033014D01*
X6329984Y-3030220D01*
X6320434Y-3028950D01*
X6310782Y-3029407D01*
X6301333Y-3031439D01*
X6292392Y-3034995D01*
X6284163Y-3040075D01*
X6276949Y-3046425D01*
X6270853Y-3053943D01*
X6266180Y-3062376D01*
X6262979Y-3071469D01*
X6261354Y-3080969D01*
X6261354Y-3090621D01*
X6262979Y-3100120D01*
X6266180Y-3109214D01*
X6270853Y-3117646D01*
X6276949Y-3125165D01*
X6284163Y-3131515D01*
X6292392Y-3136595D01*
X6301333Y-3140151D01*
X6310782Y-3142183D01*
G37*
G36*
X538988Y-3019958D02*
G01*
X598576Y-3019958D01*
X598576Y-2930398D01*
X565454Y-2930398D01*
X559155Y-2931109D01*
X553669Y-2932988D01*
X548792Y-2936087D01*
X544677Y-2940202D01*
X541629Y-2945079D01*
X539699Y-2950565D01*
X538988Y-2956864D01*
G37*
G36*
X691235Y-3019958D02*
G01*
X750824Y-3019958D01*
X750824Y-2956864D01*
X750112Y-2950565D01*
X748182Y-2945079D01*
X745083Y-2940202D01*
X741019Y-2936087D01*
X736092Y-2932988D01*
X730656Y-2931109D01*
X724357Y-2930398D01*
X691235Y-2930398D01*
G37*
G36*
X1808988Y-3019958D02*
G01*
X1868576Y-3019958D01*
X1868576Y-2930398D01*
X1835454Y-2930398D01*
X1829155Y-2931109D01*
X1823669Y-2932988D01*
X1818792Y-2936087D01*
X1814677Y-2940202D01*
X1811629Y-2945079D01*
X1809699Y-2950565D01*
X1808988Y-2956864D01*
G37*
G36*
X4348988Y-3019958D02*
G01*
X4408576Y-3019958D01*
X4408576Y-2930398D01*
X4375454Y-2930398D01*
X4369155Y-2931109D01*
X4363669Y-2932988D01*
X4358792Y-2936087D01*
X4354677Y-2940202D01*
X4351629Y-2945079D01*
X4349699Y-2950565D01*
X4348988Y-2956864D01*
G37*
G36*
X3078988Y-3019958D02*
G01*
X3138576Y-3019958D01*
X3138576Y-2930398D01*
X3105454Y-2930398D01*
X3099155Y-2931109D01*
X3093669Y-2932988D01*
X3088792Y-2936087D01*
X3084677Y-2940202D01*
X3081629Y-2945079D01*
X3079699Y-2950565D01*
X3078988Y-2956864D01*
G37*
G36*
X1961235Y-3019958D02*
G01*
X2020824Y-3019958D01*
X2020824Y-2956864D01*
X2020112Y-2950565D01*
X2018182Y-2945079D01*
X2015083Y-2940202D01*
X2011019Y-2936087D01*
X2006092Y-2932988D01*
X2000656Y-2931109D01*
X1994357Y-2930398D01*
X1961235Y-2930398D01*
G37*
G36*
X4501235Y-3019958D02*
G01*
X4560824Y-3019958D01*
X4560824Y-2956864D01*
X4560112Y-2950565D01*
X4558182Y-2945079D01*
X4555083Y-2940202D01*
X4551019Y-2936087D01*
X4546092Y-2932988D01*
X4540656Y-2931109D01*
X4534357Y-2930398D01*
X4501235Y-2930398D01*
G37*
G36*
X3231235Y-3019958D02*
G01*
X3290824Y-3019958D01*
X3290824Y-2956864D01*
X3290112Y-2950565D01*
X3288182Y-2945079D01*
X3285083Y-2940202D01*
X3281019Y-2936087D01*
X3276092Y-2932988D01*
X3270656Y-2931109D01*
X3264357Y-2930398D01*
X3231235Y-2930398D01*
G37*
G36*
X5869838Y-2711145D02*
G01*
X5879388Y-2709875D01*
X5888583Y-2707081D01*
X5900775Y-2700731D01*
X5903976Y-2700223D01*
X5996178Y-2700172D01*
X6004915Y-2698953D01*
X6012942Y-2696260D01*
X6020308Y-2692146D01*
X6027216Y-2686405D01*
X6133846Y-2579776D01*
X6137148Y-2577592D01*
X6141008Y-2576830D01*
X6296812Y-2576830D01*
X6303162Y-2576118D01*
X6308598Y-2574188D01*
X6313525Y-2571089D01*
X6317589Y-2567025D01*
X6320688Y-2562098D01*
X6322618Y-2556662D01*
X6323330Y-2550312D01*
X6323330Y-2351481D01*
X6322618Y-2345131D01*
X6320688Y-2339695D01*
X6317589Y-2334818D01*
X6313525Y-2330704D01*
X6308598Y-2327605D01*
X6303162Y-2325725D01*
X6296812Y-2325014D01*
X6097981Y-2325014D01*
X6091631Y-2325725D01*
X6086195Y-2327605D01*
X6081318Y-2330704D01*
X6077204Y-2334818D01*
X6074105Y-2339695D01*
X6072225Y-2345131D01*
X6071514Y-2351481D01*
X6071514Y-2508046D01*
X6070701Y-2511958D01*
X6068517Y-2515260D01*
X5978347Y-2605430D01*
X5975045Y-2607614D01*
X5971184Y-2608376D01*
X5903976Y-2608376D01*
X5900775Y-2607868D01*
X5888583Y-2601518D01*
X5879388Y-2598724D01*
X5869838Y-2597454D01*
X5860186Y-2597912D01*
X5850737Y-2599944D01*
X5841796Y-2603500D01*
X5833567Y-2608580D01*
X5826353Y-2614930D01*
X5820257Y-2622448D01*
X5815584Y-2630881D01*
X5812383Y-2639974D01*
X5810758Y-2649474D01*
X5810758Y-2659126D01*
X5812383Y-2668625D01*
X5815584Y-2677718D01*
X5820257Y-2686151D01*
X5826353Y-2693670D01*
X5833567Y-2700020D01*
X5841796Y-2705100D01*
X5850737Y-2708656D01*
X5860186Y-2710688D01*
G37*
G36*
X6532270Y-2638196D02*
G01*
X6701129Y-2638196D01*
X6707428Y-2637485D01*
X6712915Y-2635605D01*
X6717792Y-2632506D01*
X6721906Y-2628392D01*
X6725005Y-2623515D01*
X6726885Y-2618028D01*
X6727596Y-2611729D01*
X6727596Y-2442870D01*
X6726885Y-2436571D01*
X6725005Y-2431084D01*
X6721906Y-2426208D01*
X6717792Y-2422093D01*
X6712915Y-2418994D01*
X6707428Y-2417114D01*
X6701129Y-2416403D01*
X6532270Y-2416403D01*
X6525971Y-2417114D01*
X6520484Y-2418994D01*
X6515607Y-2422093D01*
X6511493Y-2426208D01*
X6508394Y-2431084D01*
X6506514Y-2436571D01*
X6505803Y-2442870D01*
X6505803Y-2611729D01*
X6506514Y-2618028D01*
X6508394Y-2623515D01*
X6511493Y-2628392D01*
X6515607Y-2632506D01*
X6520484Y-2635605D01*
X6525971Y-2637485D01*
G37*
G36*
X3647338Y-2622245D02*
G01*
X3656888Y-2620975D01*
X3666083Y-2618181D01*
X3674719Y-2613812D01*
X3682492Y-2608072D01*
X3689146Y-2601112D01*
X3694531Y-2593136D01*
X3698544Y-2584348D01*
X3700932Y-2575001D01*
X3701796Y-2565400D01*
X3700932Y-2555798D01*
X3698544Y-2546451D01*
X3694531Y-2537663D01*
X3689146Y-2529687D01*
X3682492Y-2522728D01*
X3674719Y-2516987D01*
X3666083Y-2512618D01*
X3656888Y-2509824D01*
X3647338Y-2508554D01*
X3637686Y-2509012D01*
X3628237Y-2511044D01*
X3619296Y-2514600D01*
X3611067Y-2519680D01*
X3603853Y-2526030D01*
X3597757Y-2533548D01*
X3593084Y-2541981D01*
X3589883Y-2551074D01*
X3588258Y-2560574D01*
X3588258Y-2570226D01*
X3589883Y-2579725D01*
X3593084Y-2588818D01*
X3597757Y-2597251D01*
X3603853Y-2604770D01*
X3611067Y-2611120D01*
X3619296Y-2616200D01*
X3628237Y-2619756D01*
X3637686Y-2621788D01*
G37*
G36*
X5437987Y-2576830D02*
G01*
X5636818Y-2576830D01*
X5643168Y-2576118D01*
X5648604Y-2574188D01*
X5653532Y-2571089D01*
X5657596Y-2567025D01*
X5660694Y-2562098D01*
X5662625Y-2556662D01*
X5663336Y-2550312D01*
X5663336Y-2351481D01*
X5662625Y-2345131D01*
X5660694Y-2339695D01*
X5657596Y-2334818D01*
X5653532Y-2330704D01*
X5648604Y-2327605D01*
X5643168Y-2325725D01*
X5636818Y-2325014D01*
X5437987Y-2325014D01*
X5431637Y-2325725D01*
X5426202Y-2327605D01*
X5421274Y-2330704D01*
X5417210Y-2334818D01*
X5414111Y-2339695D01*
X5412232Y-2345131D01*
X5411520Y-2351481D01*
X5411520Y-2550312D01*
X5412232Y-2556662D01*
X5414111Y-2562098D01*
X5417210Y-2567025D01*
X5421274Y-2571089D01*
X5426202Y-2574188D01*
X5431637Y-2576118D01*
G37*
G36*
X1323238Y-2558745D02*
G01*
X1332788Y-2557475D01*
X1341983Y-2554681D01*
X1350619Y-2550312D01*
X1358392Y-2544572D01*
X1365046Y-2537612D01*
X1370431Y-2529636D01*
X1374444Y-2520848D01*
X1376832Y-2511501D01*
X1377696Y-2501900D01*
X1376832Y-2492298D01*
X1374444Y-2482951D01*
X1370431Y-2474163D01*
X1365046Y-2466187D01*
X1358392Y-2459228D01*
X1350619Y-2453487D01*
X1341983Y-2449118D01*
X1332788Y-2446324D01*
X1323238Y-2445054D01*
X1313586Y-2445512D01*
X1304137Y-2447544D01*
X1295196Y-2451100D01*
X1286967Y-2456180D01*
X1279753Y-2462530D01*
X1273657Y-2470048D01*
X1268984Y-2478481D01*
X1265783Y-2487574D01*
X1264158Y-2497074D01*
X1264158Y-2506726D01*
X1265783Y-2516225D01*
X1268984Y-2525318D01*
X1273657Y-2533751D01*
X1279753Y-2541270D01*
X1286967Y-2547620D01*
X1295196Y-2552700D01*
X1304137Y-2556256D01*
X1313586Y-2558288D01*
G37*
G36*
X4860493Y-2506218D02*
G01*
X5139334Y-2506218D01*
X5145633Y-2505506D01*
X5151120Y-2503576D01*
X5155996Y-2500528D01*
X5160111Y-2496413D01*
X5163159Y-2491536D01*
X5165090Y-2486050D01*
X5165801Y-2479751D01*
X5165801Y-2320848D01*
X5165090Y-2314549D01*
X5163159Y-2309063D01*
X5160111Y-2304186D01*
X5155996Y-2300071D01*
X5151120Y-2297023D01*
X5145633Y-2295093D01*
X5139334Y-2294382D01*
X4860493Y-2294382D01*
X4854143Y-2295093D01*
X4848707Y-2297023D01*
X4843780Y-2300071D01*
X4839716Y-2304186D01*
X4836617Y-2309063D01*
X4834686Y-2314549D01*
X4833975Y-2320848D01*
X4833975Y-2479751D01*
X4834686Y-2486050D01*
X4836617Y-2491536D01*
X4839716Y-2496413D01*
X4843780Y-2500528D01*
X4848707Y-2503576D01*
X4854143Y-2505506D01*
G37*
G36*
X6609588Y-2383942D02*
G01*
X6623812Y-2383942D01*
X6637883Y-2382164D01*
X6651650Y-2378557D01*
X6664807Y-2373223D01*
X6677202Y-2366213D01*
X6688581Y-2357729D01*
X6698792Y-2347874D01*
X6707631Y-2336749D01*
X6714998Y-2324608D01*
X6720789Y-2311603D01*
X6724802Y-2297988D01*
X6727088Y-2283968D01*
X6727545Y-2269744D01*
X6726174Y-2255621D01*
X6723024Y-2241753D01*
X6718096Y-2228392D01*
X6711543Y-2215794D01*
X6703415Y-2204161D01*
X6693865Y-2193645D01*
X6683044Y-2184450D01*
X6671106Y-2176678D01*
X6658305Y-2170531D01*
X6644843Y-2166061D01*
X6630873Y-2163318D01*
X6616700Y-2162403D01*
X6602526Y-2163318D01*
X6588556Y-2166061D01*
X6575094Y-2170531D01*
X6562293Y-2176678D01*
X6550355Y-2184450D01*
X6539534Y-2193645D01*
X6529984Y-2204161D01*
X6521856Y-2215794D01*
X6515303Y-2228392D01*
X6510375Y-2241753D01*
X6507226Y-2255621D01*
X6505854Y-2269744D01*
X6506311Y-2283968D01*
X6508597Y-2297988D01*
X6512661Y-2311603D01*
X6518402Y-2324608D01*
X6525768Y-2336749D01*
X6534607Y-2347874D01*
X6544818Y-2357729D01*
X6556197Y-2366213D01*
X6568592Y-2373223D01*
X6581749Y-2378557D01*
X6595516Y-2382164D01*
G37*
G36*
X4860493Y-2252218D02*
G01*
X4923536Y-2252218D01*
X4923536Y-2192629D01*
X4833975Y-2192629D01*
X4833975Y-2225751D01*
X4834686Y-2232050D01*
X4836617Y-2237536D01*
X4839716Y-2242413D01*
X4843780Y-2246528D01*
X4848707Y-2249576D01*
X4854143Y-2251506D01*
G37*
G36*
X5076240Y-2252218D02*
G01*
X5139334Y-2252218D01*
X5145633Y-2251506D01*
X5151120Y-2249576D01*
X5155996Y-2246528D01*
X5160111Y-2242413D01*
X5163159Y-2237536D01*
X5165090Y-2232050D01*
X5165801Y-2225751D01*
X5165801Y-2192629D01*
X5076240Y-2192629D01*
G37*
G36*
X6609588Y-2129942D02*
G01*
X6623812Y-2129942D01*
X6637883Y-2128164D01*
X6651650Y-2124557D01*
X6664807Y-2119223D01*
X6677202Y-2112213D01*
X6688581Y-2103729D01*
X6698792Y-2093874D01*
X6707631Y-2082749D01*
X6714998Y-2070607D01*
X6720789Y-2057603D01*
X6724802Y-2043988D01*
X6727088Y-2029968D01*
X6727545Y-2015743D01*
X6726174Y-2001621D01*
X6723024Y-1987753D01*
X6718096Y-1974392D01*
X6711543Y-1961794D01*
X6703415Y-1950161D01*
X6693865Y-1939645D01*
X6683044Y-1930450D01*
X6671106Y-1922678D01*
X6658305Y-1916531D01*
X6644843Y-1912061D01*
X6630873Y-1909318D01*
X6616700Y-1908403D01*
X6602526Y-1909318D01*
X6588556Y-1912061D01*
X6575094Y-1916531D01*
X6562293Y-1922678D01*
X6550355Y-1930450D01*
X6539534Y-1939645D01*
X6529984Y-1950161D01*
X6521856Y-1961794D01*
X6515303Y-1974392D01*
X6510375Y-1987753D01*
X6507226Y-2001621D01*
X6505854Y-2015743D01*
X6506311Y-2029968D01*
X6508597Y-2043988D01*
X6512661Y-2057603D01*
X6518402Y-2070607D01*
X6525768Y-2082749D01*
X6534607Y-2093874D01*
X6544818Y-2103729D01*
X6556197Y-2112213D01*
X6568592Y-2119223D01*
X6581749Y-2124557D01*
X6595516Y-2128164D01*
G37*
G36*
X4833975Y-2099970D02*
G01*
X4923536Y-2099970D01*
X4923536Y-2040382D01*
X4860493Y-2040382D01*
X4854143Y-2041093D01*
X4848707Y-2043023D01*
X4843780Y-2046071D01*
X4839716Y-2050186D01*
X4836617Y-2055063D01*
X4834686Y-2060549D01*
X4833975Y-2066848D01*
G37*
G36*
X5076240Y-2099970D02*
G01*
X5165801Y-2099970D01*
X5165801Y-2066848D01*
X5165090Y-2060549D01*
X5163159Y-2055063D01*
X5160111Y-2050186D01*
X5155996Y-2046071D01*
X5151120Y-2043023D01*
X5145633Y-2041093D01*
X5139334Y-2040382D01*
X5076240Y-2040382D01*
G37*
G36*
X3012338Y-1961845D02*
G01*
X3021888Y-1960575D01*
X3031083Y-1957781D01*
X3039719Y-1953412D01*
X3047492Y-1947672D01*
X3054146Y-1940712D01*
X3059531Y-1932736D01*
X3063544Y-1923948D01*
X3065932Y-1914601D01*
X3066796Y-1905000D01*
X3065932Y-1895398D01*
X3063544Y-1886051D01*
X3059531Y-1877263D01*
X3054146Y-1869287D01*
X3047492Y-1862328D01*
X3039719Y-1856587D01*
X3031083Y-1852218D01*
X3021888Y-1849424D01*
X3012338Y-1848154D01*
X3002686Y-1848612D01*
X2993237Y-1850643D01*
X2984296Y-1854200D01*
X2976067Y-1859280D01*
X2968853Y-1865630D01*
X2962757Y-1873148D01*
X2958084Y-1881581D01*
X2954883Y-1890674D01*
X2953258Y-1900174D01*
X2953258Y-1909825D01*
X2954883Y-1919325D01*
X2958084Y-1928418D01*
X2962757Y-1936851D01*
X2968853Y-1944370D01*
X2976067Y-1950720D01*
X2984296Y-1955800D01*
X2993237Y-1959356D01*
X3002686Y-1961388D01*
G37*
G36*
X6097981Y-1916836D02*
G01*
X6296812Y-1916836D01*
X6303162Y-1916125D01*
X6308598Y-1914194D01*
X6313525Y-1911096D01*
X6317589Y-1907032D01*
X6320688Y-1902104D01*
X6322618Y-1896668D01*
X6323330Y-1890318D01*
X6323330Y-1691487D01*
X6322618Y-1685137D01*
X6320688Y-1679702D01*
X6317589Y-1674774D01*
X6313525Y-1670710D01*
X6308598Y-1667611D01*
X6303162Y-1665732D01*
X6296812Y-1665020D01*
X6097981Y-1665020D01*
X6091631Y-1665732D01*
X6086195Y-1667611D01*
X6081318Y-1670710D01*
X6077204Y-1674774D01*
X6074105Y-1679702D01*
X6072225Y-1685137D01*
X6071514Y-1691487D01*
X6071514Y-1890318D01*
X6072225Y-1896668D01*
X6074105Y-1902104D01*
X6077204Y-1907032D01*
X6081318Y-1911096D01*
X6086195Y-1914194D01*
X6091631Y-1916125D01*
G37*
G36*
X6567830Y-1864766D02*
G01*
X6567830Y-1814169D01*
X6517284Y-1814169D01*
X6518402Y-1816607D01*
X6525768Y-1828749D01*
X6534607Y-1839874D01*
X6544818Y-1849729D01*
X6556197Y-1858213D01*
G37*
G36*
X6665569Y-1864766D02*
G01*
X6677202Y-1858213D01*
X6688581Y-1849729D01*
X6698792Y-1839874D01*
X6707631Y-1828749D01*
X6714998Y-1816607D01*
X6716115Y-1814169D01*
X6665569Y-1814169D01*
G37*
G36*
X6517385Y-1716430D02*
G01*
X6567830Y-1716430D01*
X6567830Y-1665986D01*
X6562293Y-1668678D01*
X6550355Y-1676450D01*
X6539534Y-1685645D01*
X6529984Y-1696161D01*
X6521856Y-1707794D01*
G37*
G36*
X6665569Y-1716430D02*
G01*
X6716014Y-1716430D01*
X6711543Y-1707794D01*
X6703415Y-1696161D01*
X6693865Y-1685645D01*
X6683044Y-1676450D01*
X6671106Y-1668678D01*
X6665569Y-1665986D01*
G37*
G36*
X538988Y-1119936D02*
G01*
X598576Y-1119936D01*
X598576Y-1030376D01*
X565454Y-1030376D01*
X559155Y-1031087D01*
X553669Y-1033018D01*
X548792Y-1036116D01*
X544677Y-1040180D01*
X541629Y-1045108D01*
X539699Y-1050544D01*
X538988Y-1056894D01*
G37*
G36*
X691235Y-1119936D02*
G01*
X750824Y-1119936D01*
X750824Y-1056894D01*
X750112Y-1050544D01*
X748182Y-1045108D01*
X745083Y-1040180D01*
X741019Y-1036116D01*
X736092Y-1033018D01*
X730656Y-1031087D01*
X724357Y-1030376D01*
X691235Y-1030376D01*
G37*
G36*
X1808988Y-1119936D02*
G01*
X1868576Y-1119936D01*
X1868576Y-1030376D01*
X1835454Y-1030376D01*
X1829155Y-1031087D01*
X1823669Y-1033018D01*
X1818792Y-1036116D01*
X1814677Y-1040180D01*
X1811629Y-1045108D01*
X1809699Y-1050544D01*
X1808988Y-1056894D01*
G37*
G36*
X4348988Y-1119936D02*
G01*
X4408576Y-1119936D01*
X4408576Y-1030376D01*
X4375454Y-1030376D01*
X4369155Y-1031087D01*
X4363669Y-1033018D01*
X4358792Y-1036116D01*
X4354677Y-1040180D01*
X4351629Y-1045108D01*
X4349699Y-1050544D01*
X4348988Y-1056894D01*
G37*
G36*
X3078988Y-1119936D02*
G01*
X3138576Y-1119936D01*
X3138576Y-1030376D01*
X3105454Y-1030376D01*
X3099155Y-1031087D01*
X3093669Y-1033018D01*
X3088792Y-1036116D01*
X3084677Y-1040180D01*
X3081629Y-1045108D01*
X3079699Y-1050544D01*
X3078988Y-1056894D01*
G37*
G36*
X3231235Y-1119936D02*
G01*
X3290824Y-1119936D01*
X3290824Y-1056894D01*
X3290112Y-1050544D01*
X3288182Y-1045108D01*
X3285083Y-1040180D01*
X3281019Y-1036116D01*
X3276092Y-1033018D01*
X3270656Y-1031087D01*
X3264357Y-1030376D01*
X3231235Y-1030376D01*
G37*
G36*
X4501235Y-1119936D02*
G01*
X4560824Y-1119936D01*
X4560824Y-1056894D01*
X4560112Y-1050544D01*
X4558182Y-1045108D01*
X4555083Y-1040180D01*
X4551019Y-1036116D01*
X4546092Y-1033018D01*
X4540656Y-1031087D01*
X4534357Y-1030376D01*
X4501235Y-1030376D01*
G37*
G36*
X1961235Y-1119936D02*
G01*
X2020824Y-1119936D01*
X2020824Y-1056894D01*
X2020112Y-1050544D01*
X2018182Y-1045108D01*
X2015083Y-1040180D01*
X2011019Y-1036116D01*
X2006092Y-1033018D01*
X2000656Y-1031087D01*
X1994357Y-1030376D01*
X1961235Y-1030376D01*
G37*
G36*
X3886962Y-364845D02*
G01*
X3898036Y-363982D01*
X3908856Y-361340D01*
X3919118Y-357124D01*
X3928618Y-351282D01*
X3937050Y-344068D01*
X3944264Y-335635D01*
X3950106Y-326136D01*
X3954322Y-315874D01*
X3956964Y-305054D01*
X3957828Y-293979D01*
X3956964Y-282854D01*
X3954322Y-272034D01*
X3950106Y-261772D01*
X3944264Y-252272D01*
X3937050Y-243840D01*
X3928618Y-236626D01*
X3919118Y-230784D01*
X3908856Y-226567D01*
X3898036Y-223926D01*
X3886962Y-223062D01*
X3875836Y-223926D01*
X3865016Y-226567D01*
X3854754Y-230784D01*
X3845255Y-236626D01*
X3836822Y-243840D01*
X3829608Y-252272D01*
X3823766Y-261772D01*
X3819550Y-272034D01*
X3816908Y-282854D01*
X3816045Y-293979D01*
X3816908Y-305054D01*
X3819550Y-315874D01*
X3823766Y-326136D01*
X3829608Y-335635D01*
X3836822Y-344068D01*
X3845255Y-351282D01*
X3854754Y-357124D01*
X3865016Y-361340D01*
X3875836Y-363982D01*
G37*
G36*
X3656939Y-364845D02*
G01*
X3668014Y-363982D01*
X3678834Y-361340D01*
X3689096Y-357124D01*
X3698595Y-351282D01*
X3707028Y-344068D01*
X3714242Y-335635D01*
X3720084Y-326136D01*
X3724300Y-315874D01*
X3726942Y-305054D01*
X3727805Y-293979D01*
X3726942Y-282854D01*
X3724300Y-272034D01*
X3720084Y-261772D01*
X3714242Y-252272D01*
X3707028Y-243840D01*
X3698595Y-236626D01*
X3689096Y-230784D01*
X3678834Y-226567D01*
X3668014Y-223926D01*
X3656939Y-223062D01*
X3645814Y-223926D01*
X3634994Y-226567D01*
X3624732Y-230784D01*
X3615232Y-236626D01*
X3606800Y-243840D01*
X3599586Y-252272D01*
X3593744Y-261772D01*
X3589528Y-272034D01*
X3586886Y-282854D01*
X3586022Y-293979D01*
X3586886Y-305054D01*
X3589528Y-315874D01*
X3593744Y-326136D01*
X3599586Y-335635D01*
X3606800Y-344068D01*
X3615232Y-351282D01*
X3624732Y-357124D01*
X3634994Y-361340D01*
X3645814Y-363982D01*
G37*

%LPD*%
D10*
X2755900Y-2870200D02*
G01*
X2628651Y-2870200D01*
X2422908Y-3075942D01*
X2422908Y-3096257D01*
D11*
X1727200Y-2857500D02*
G01*
X1661157Y-2923542D01*
X1661157Y-3096257D01*
D10*
X3937000Y-3429000D02*
G01*
X4102100Y-3594100D01*
X4432300Y-3594100D01*
X2298700Y-3327400D02*
G01*
X2168908Y-3197608D01*
X2168908Y-3096313D01*
X5130800Y-3162300D02*
G01*
X5064813Y-3096313D01*
X4962908Y-3096313D01*
D11*
X114300Y-2857500D02*
G01*
X114300Y-3048309D01*
X136903Y-3070913D01*
D10*
X2552700Y-863600D02*
G01*
X2489200Y-863600D01*
X2422908Y-929891D01*
X2422908Y-1196317D01*
D11*
X1447800Y-2882900D02*
G01*
X1447800Y-3096313D01*
X1406903Y-3096313D01*
X1219200Y-2895600D02*
G01*
X1152905Y-3096310D01*
X1153160Y-3096260D01*
D10*
X3416300Y-3619500D02*
G01*
X3416300Y-3619494D01*
X2930908Y-3134103D01*
X2930908Y-3096313D01*
D11*
X444500Y-2857500D02*
G01*
X444500Y-3096313D01*
X390903Y-3096313D01*
D10*
X5016500Y-2857500D02*
G01*
X4962908Y-2911091D01*
X4962908Y-3096313D01*
X5600700Y-3073400D02*
G01*
X5359400Y-3073400D01*
X4978400Y-3454400D01*
X4102100Y-3454400D01*
X3949700Y-3302000D01*
X6070600Y-3225800D02*
G01*
X6184900Y-3340100D01*
X6477000Y-3340100D01*
X4432300Y-3594100D02*
G01*
X4978400Y-3594100D01*
X5295900Y-3276600D01*
X5295900Y-3276600D02*
G01*
X5346700Y-3225800D01*
X6070600Y-3225800D01*
X5372100Y-1524000D02*
G01*
X5257800Y-1409700D01*
X508000Y-1409700D01*
X390903Y-1292603D01*
X390903Y-1209042D01*
D11*
X5867400Y-2654300D02*
G01*
X5994400Y-2654300D01*
X6210554Y-2438145D01*
X6210300Y-2438400D01*
X5524500Y-1714500D02*
G01*
X5549900Y-1714500D01*
X5143500Y-1714500D02*
G01*
X5537448Y-1714500D01*
X5537448Y-1778254D01*
X4203700Y-2476500D02*
G01*
X4200903Y-2479296D01*
X4200903Y-3096310D01*
D10*
X5321300Y-1600200D02*
G01*
X5245100Y-1524000D01*
X330200Y-1524000D01*
X136903Y-1330703D01*
X136903Y-1196342D01*
D11*
X1511300Y-1905000D02*
G01*
X2667005Y-1905000D01*
X3692908Y-2930903D01*
X3692908Y-3096257D01*
X1308100Y-3314700D02*
G01*
X495300Y-3314700D01*
X390903Y-3210303D01*
X390903Y-3096313D01*
D10*
X4419600Y-647700D02*
G01*
X4708908Y-937008D01*
X4708908Y-1196317D01*
D11*
X596900Y-1854200D02*
G01*
X596900Y-2552700D01*
X711200Y-2667000D01*
X3225800Y-2667000D01*
X3438908Y-2880103D01*
X3438908Y-3096313D01*
D12*
G01*
X136903Y-1196301D03*
G01*
X390903Y-1196301D03*
G01*
X644903Y-1196301D03*
G01*
X898903Y-1196301D03*
G01*
X1152903Y-1196301D03*
G01*
X1406903Y-1196301D03*
G01*
X1660903Y-1196301D03*
G01*
X1914903Y-1196301D03*
G01*
X2168903Y-1196301D03*
G01*
X2422903Y-1196301D03*
G01*
X2676903Y-1196301D03*
G01*
X2930903Y-1196301D03*
G01*
X3184903Y-1196301D03*
G01*
X3438903Y-1196301D03*
G01*
X3692903Y-1196301D03*
G01*
X3946903Y-1196301D03*
G01*
X4200903Y-1196301D03*
G01*
X4454903Y-1196301D03*
G01*
X4708903Y-1196301D03*
G01*
X4962903Y-1196301D03*
G01*
X4962903Y-3096298D03*
G01*
X4708903Y-3096298D03*
G01*
X4454903Y-3096298D03*
G01*
X4200903Y-3096298D03*
G01*
X3946903Y-3096298D03*
G01*
X3692903Y-3096298D03*
G01*
X3438903Y-3096298D03*
G01*
X3184903Y-3096298D03*
G01*
X2930903Y-3096298D03*
G01*
X2676903Y-3096298D03*
G01*
X2422903Y-3096298D03*
G01*
X2168903Y-3096298D03*
G01*
X1914903Y-3096298D03*
G01*
X1660903Y-3096298D03*
G01*
X1406903Y-3096298D03*
G01*
X1152903Y-3096298D03*
G01*
X898903Y-3096298D03*
G01*
X644903Y-3096298D03*
G01*
X390903Y-3096298D03*
G01*
X136903Y-3096298D03*
D13*
G01*
X4999898Y-1892300D03*
G01*
X4999898Y-2146300D03*
G01*
X4999898Y-2400300D03*
D14*
G01*
X6197399Y-2450899D03*
G01*
X5537400Y-2450899D03*
G01*
X5537400Y-1790900D03*
G01*
X6197399Y-1790900D03*
D15*
G01*
X6616700Y-2527300D03*
D16*
G01*
X6616700Y-2273300D03*
G01*
X6616700Y-2019300D03*
G01*
X6616700Y-1765300D03*
D17*
G01*
X3416300Y-3619500D03*
G01*
X114300Y-2857500D03*
G01*
X444500Y-2857500D03*
G01*
X1219200Y-2895600D03*
G01*
X1447800Y-2882900D03*
G01*
X4419600Y-647700D03*
G01*
X1308100Y-3314700D03*
G01*
X1727200Y-2857500D03*
G01*
X5372100Y-1524000D03*
G01*
X5321300Y-1600200D03*
G01*
X4203700Y-2501900D03*
G01*
X5016500Y-2857500D03*
G01*
X5295900Y-3276600D03*
G01*
X5867400Y-2654300D03*
G01*
X5143500Y-1714500D03*
G01*
X596900Y-1854200D03*
G01*
X2552700Y-863600D03*
G01*
X1511300Y-1905000D03*
G01*
X4432300Y-3594100D03*
G01*
X3937000Y-3429000D03*
G01*
X3949700Y-3302000D03*
G01*
X5600700Y-3073400D03*
G01*
X5130800Y-3162300D03*
G01*
X2298700Y-3327400D03*
G01*
X2755900Y-2870200D03*
G01*
X6070600Y-3225800D03*
G01*
X3644900Y-2565400D03*
G01*
X3822700Y-3683000D03*
G01*
X1320800Y-2501900D03*
G01*
X3009900Y-1905000D03*
G01*
X4165600Y-3733800D03*
G01*
X5181600Y-1320800D03*
G01*
X4597400Y-3683000D03*
G01*
X6477000Y-3340100D03*
G01*
X6273800Y-2984500D03*
G01*
X6794500Y-3086100D03*
G01*
X6317995Y-3085795D03*
G01*
X317500Y-2895600D03*
M02*
