G04 Layer: TopSilkscreenLayer*
G04 EasyEDA v6.5.44, 2024-07-23 11:26:01*
G04 fa6d6c6f67624019b56d640f781358e2,6e2a8d9c20784516b523f05fecaed983,10*
G04 Gerber Generator version 0.2*
G04 Scale: 100 percent, Rotated: No, Reflected: No *
G04 Dimensions in millimeters *
G04 leading zeros omitted , absolute positions ,4 integer and 5 decimal *
%FSLAX45Y45*%
%MOMM*%

%ADD10C,0.2032*%
%ADD11C,0.1524*%
%ADD12C,0.2540*%
%ADD13C,0.1520*%
%ADD14C,0.1500*%
%ADD15C,0.3000*%
%ADD16C,0.0158*%

%LPD*%
D10*
X3148075Y-2413256D02*
G01*
X3156965Y-2404112D01*
X3161538Y-2390396D01*
X3161538Y-2372108D01*
X3156965Y-2358646D01*
X3148075Y-2349502D01*
X3138931Y-2349502D01*
X3129788Y-2354074D01*
X3125215Y-2358646D01*
X3120643Y-2367790D01*
X3111500Y-2394968D01*
X3107181Y-2404112D01*
X3102609Y-2408684D01*
X3093465Y-2413256D01*
X3079750Y-2413256D01*
X3070606Y-2404112D01*
X3066034Y-2390396D01*
X3066034Y-2372108D01*
X3070606Y-2358646D01*
X3079750Y-2349502D01*
X3161538Y-2443228D02*
G01*
X3156965Y-2447800D01*
X3161538Y-2452118D01*
X3166109Y-2447800D01*
X3161538Y-2443228D01*
X3129788Y-2447800D02*
G01*
X3066034Y-2447800D01*
X3161538Y-2482344D02*
G01*
X3066034Y-2482344D01*
X3161538Y-2482344D02*
G01*
X3161538Y-2523238D01*
X3156965Y-2536700D01*
X3152393Y-2541272D01*
X3143504Y-2545844D01*
X3129788Y-2545844D01*
X3120643Y-2541272D01*
X3116072Y-2536700D01*
X3111500Y-2523238D01*
X3111500Y-2482344D01*
X3161538Y-2575816D02*
G01*
X3066034Y-2575816D01*
X3161538Y-2575816D02*
G01*
X3066034Y-2612138D01*
X3161538Y-2648714D02*
G01*
X3066034Y-2612138D01*
X3161538Y-2648714D02*
G01*
X3066034Y-2648714D01*
X2897250Y-2520695D02*
G01*
X2906140Y-2511552D01*
X2910713Y-2497836D01*
X2910713Y-2479547D01*
X2906140Y-2466086D01*
X2897250Y-2456942D01*
X2888106Y-2456942D01*
X2878963Y-2461513D01*
X2874390Y-2466086D01*
X2869818Y-2475229D01*
X2860675Y-2502407D01*
X2856356Y-2511552D01*
X2851784Y-2516123D01*
X2842640Y-2520695D01*
X2828925Y-2520695D01*
X2819781Y-2511552D01*
X2815209Y-2497836D01*
X2815209Y-2479547D01*
X2819781Y-2466086D01*
X2828925Y-2456942D01*
X2910713Y-2550668D02*
G01*
X2815209Y-2550668D01*
X2888106Y-2648712D02*
G01*
X2897250Y-2644139D01*
X2906140Y-2635250D01*
X2910713Y-2626105D01*
X2910713Y-2607818D01*
X2906140Y-2598673D01*
X2897250Y-2589784D01*
X2888106Y-2585212D01*
X2874390Y-2580639D01*
X2851784Y-2580639D01*
X2838068Y-2585212D01*
X2828925Y-2589784D01*
X2819781Y-2598673D01*
X2815209Y-2607818D01*
X2815209Y-2626105D01*
X2819781Y-2635250D01*
X2828925Y-2644139D01*
X2838068Y-2648712D01*
X2851784Y-2648712D01*
X2851784Y-2626105D02*
G01*
X2851784Y-2648712D01*
X2659888Y-2299718D02*
G01*
X2564384Y-2299718D01*
X2659888Y-2299718D02*
G01*
X2659888Y-2340612D01*
X2655315Y-2354328D01*
X2650743Y-2358900D01*
X2641854Y-2363472D01*
X2628138Y-2363472D01*
X2618993Y-2358900D01*
X2614422Y-2354328D01*
X2609850Y-2340612D01*
X2609850Y-2299718D01*
X2659888Y-2393444D02*
G01*
X2564384Y-2393444D01*
X2659888Y-2393444D02*
G01*
X2659888Y-2452372D01*
X2614422Y-2393444D02*
G01*
X2614422Y-2429766D01*
X2564384Y-2393444D02*
G01*
X2564384Y-2452372D01*
X2659888Y-2518920D02*
G01*
X2564384Y-2482344D01*
X2659888Y-2518920D02*
G01*
X2564384Y-2555242D01*
X2596388Y-2496060D02*
G01*
X2596388Y-2541526D01*
X2659888Y-2585214D02*
G01*
X2564384Y-2585214D01*
X2659888Y-2648714D02*
G01*
X2596388Y-2585214D01*
X2618993Y-2607820D02*
G01*
X2564384Y-2648714D01*
X2409063Y-2523233D02*
G01*
X2313559Y-2523233D01*
X2409063Y-2491483D02*
G01*
X2409063Y-2555237D01*
X2409063Y-2585209D02*
G01*
X2313559Y-2585209D01*
X2409063Y-2648709D02*
G01*
X2313559Y-2648709D01*
X2363597Y-2585209D02*
G01*
X2363597Y-2648709D01*
X2135631Y-2461260D02*
G01*
X2144775Y-2456942D01*
X2153665Y-2447797D01*
X2158238Y-2438654D01*
X2158238Y-2420365D01*
X2153665Y-2411476D01*
X2144775Y-2402331D01*
X2135631Y-2397760D01*
X2121915Y-2393187D01*
X2099309Y-2393187D01*
X2085593Y-2397760D01*
X2076450Y-2402331D01*
X2067306Y-2411476D01*
X2062734Y-2420365D01*
X2062734Y-2438654D01*
X2067306Y-2447797D01*
X2076450Y-2456942D01*
X2085593Y-2461260D01*
X2099309Y-2461260D01*
X2099309Y-2438654D02*
G01*
X2099309Y-2461260D01*
X2158238Y-2491486D02*
G01*
X2062734Y-2491486D01*
X2158238Y-2491486D02*
G01*
X2062734Y-2554986D01*
X2158238Y-2554986D02*
G01*
X2062734Y-2554986D01*
X2158238Y-2584957D02*
G01*
X2062734Y-2584957D01*
X2158238Y-2584957D02*
G01*
X2158238Y-2616707D01*
X2153665Y-2630423D01*
X2144775Y-2639568D01*
X2135631Y-2644139D01*
X2121915Y-2648712D01*
X2099309Y-2648712D01*
X2085593Y-2644139D01*
X2076450Y-2639568D01*
X2067306Y-2630423D01*
X2062734Y-2616707D01*
X2062734Y-2584957D01*
X6107297Y-1750568D02*
G01*
X6102979Y-1741423D01*
X6093835Y-1732534D01*
X6084691Y-1727962D01*
X6066403Y-1727962D01*
X6057513Y-1732534D01*
X6048369Y-1741423D01*
X6043797Y-1750568D01*
X6039225Y-1764284D01*
X6039225Y-1786889D01*
X6043797Y-1800605D01*
X6048369Y-1809750D01*
X6057513Y-1818894D01*
X6066403Y-1823465D01*
X6084691Y-1823465D01*
X6093835Y-1818894D01*
X6102979Y-1809750D01*
X6107297Y-1800605D01*
X6107297Y-1786889D01*
X6084691Y-1786889D02*
G01*
X6107297Y-1786889D01*
X6137523Y-1727962D02*
G01*
X6137523Y-1823465D01*
X6137523Y-1727962D02*
G01*
X6201023Y-1823465D01*
X6201023Y-1727962D02*
G01*
X6201023Y-1823465D01*
X6230995Y-1727962D02*
G01*
X6230995Y-1823465D01*
X6230995Y-1727962D02*
G01*
X6262745Y-1727962D01*
X6276461Y-1732534D01*
X6285605Y-1741423D01*
X6290177Y-1750568D01*
X6294749Y-1764284D01*
X6294749Y-1786889D01*
X6290177Y-1800605D01*
X6285605Y-1809750D01*
X6276461Y-1818894D01*
X6262745Y-1823465D01*
X6230995Y-1823465D01*
X6032500Y-1981954D02*
G01*
X6068822Y-2077458D01*
X6105143Y-1981954D02*
G01*
X6068822Y-2077458D01*
X6203441Y-2004560D02*
G01*
X6198870Y-1995416D01*
X6189725Y-1986526D01*
X6180581Y-1981954D01*
X6162547Y-1981954D01*
X6153404Y-1986526D01*
X6144259Y-1995416D01*
X6139688Y-2004560D01*
X6135115Y-2018276D01*
X6135115Y-2040882D01*
X6139688Y-2054598D01*
X6144259Y-2063742D01*
X6153404Y-2072886D01*
X6162547Y-2077458D01*
X6180581Y-2077458D01*
X6189725Y-2072886D01*
X6198870Y-2063742D01*
X6203441Y-2054598D01*
X6301486Y-2004560D02*
G01*
X6297168Y-1995416D01*
X6288024Y-1986526D01*
X6278879Y-1981954D01*
X6260591Y-1981954D01*
X6251702Y-1986526D01*
X6242558Y-1995416D01*
X6237986Y-2004560D01*
X6233413Y-2018276D01*
X6233413Y-2040882D01*
X6237986Y-2054598D01*
X6242558Y-2063742D01*
X6251702Y-2072886D01*
X6260591Y-2077458D01*
X6278879Y-2077458D01*
X6288024Y-2072886D01*
X6297168Y-2063742D01*
X6301486Y-2054598D01*
X6107556Y-2249431D02*
G01*
X6098413Y-2240541D01*
X6084697Y-2235969D01*
X6066409Y-2235969D01*
X6052947Y-2240541D01*
X6043802Y-2249431D01*
X6043802Y-2258575D01*
X6048375Y-2267719D01*
X6052947Y-2272291D01*
X6062090Y-2276863D01*
X6089268Y-2286007D01*
X6098413Y-2290325D01*
X6102984Y-2294897D01*
X6107556Y-2304041D01*
X6107556Y-2317757D01*
X6098413Y-2326901D01*
X6084697Y-2331473D01*
X6066409Y-2331473D01*
X6052947Y-2326901D01*
X6043802Y-2317757D01*
X6205600Y-2258575D02*
G01*
X6201029Y-2249431D01*
X6191884Y-2240541D01*
X6182995Y-2235969D01*
X6164706Y-2235969D01*
X6155563Y-2240541D01*
X6146418Y-2249431D01*
X6142100Y-2258575D01*
X6137529Y-2272291D01*
X6137529Y-2294897D01*
X6142100Y-2308613D01*
X6146418Y-2317757D01*
X6155563Y-2326901D01*
X6164706Y-2331473D01*
X6182995Y-2331473D01*
X6191884Y-2326901D01*
X6201029Y-2317757D01*
X6205600Y-2308613D01*
X6235572Y-2235969D02*
G01*
X6235572Y-2331473D01*
X6235572Y-2331473D02*
G01*
X6290183Y-2331473D01*
X6100693Y-2503423D02*
G01*
X6091549Y-2494534D01*
X6077833Y-2489962D01*
X6059545Y-2489962D01*
X6046083Y-2494534D01*
X6036939Y-2503423D01*
X6036939Y-2512568D01*
X6041511Y-2521712D01*
X6046083Y-2526284D01*
X6055227Y-2530855D01*
X6082405Y-2540000D01*
X6091549Y-2544318D01*
X6096121Y-2548889D01*
X6100693Y-2558034D01*
X6100693Y-2571750D01*
X6091549Y-2580894D01*
X6077833Y-2585465D01*
X6059545Y-2585465D01*
X6046083Y-2580894D01*
X6036939Y-2571750D01*
X6130665Y-2489962D02*
G01*
X6130665Y-2585465D01*
X6130665Y-2489962D02*
G01*
X6162415Y-2489962D01*
X6176131Y-2494534D01*
X6185021Y-2503423D01*
X6189593Y-2512568D01*
X6194165Y-2526284D01*
X6194165Y-2548889D01*
X6189593Y-2562605D01*
X6185021Y-2571750D01*
X6176131Y-2580894D01*
X6162415Y-2585465D01*
X6130665Y-2585465D01*
X6260459Y-2489962D02*
G01*
X6224137Y-2585465D01*
X6260459Y-2489962D02*
G01*
X6297035Y-2585465D01*
X6237853Y-2553462D02*
G01*
X6283319Y-2553462D01*
X1472437Y-609600D02*
G01*
X1376934Y-609600D01*
X1376934Y-609600D02*
G01*
X1376934Y-664210D01*
X1472437Y-694181D02*
G01*
X1376934Y-694181D01*
X1472437Y-724154D02*
G01*
X1376934Y-724154D01*
X1472437Y-724154D02*
G01*
X1472437Y-765047D01*
X1467865Y-778763D01*
X1463294Y-783336D01*
X1454404Y-787907D01*
X1440687Y-787907D01*
X1431544Y-783336D01*
X1426971Y-778763D01*
X1422400Y-765047D01*
X1422400Y-724154D01*
X1472437Y-845057D02*
G01*
X1467865Y-835913D01*
X1458976Y-826770D01*
X1449831Y-822452D01*
X1436115Y-817879D01*
X1413510Y-817879D01*
X1399794Y-822452D01*
X1390650Y-826770D01*
X1381505Y-835913D01*
X1376934Y-845057D01*
X1376934Y-863345D01*
X1381505Y-872236D01*
X1390650Y-881379D01*
X1399794Y-885952D01*
X1413510Y-890523D01*
X1436115Y-890523D01*
X1449831Y-885952D01*
X1458976Y-881379D01*
X1467865Y-872236D01*
X1472437Y-863345D01*
X1472437Y-845057D01*
X850137Y-3335528D02*
G01*
X845565Y-3326637D01*
X836676Y-3317494D01*
X827531Y-3312921D01*
X813815Y-3308350D01*
X791210Y-3308350D01*
X777494Y-3312921D01*
X768350Y-3317494D01*
X759205Y-3326637D01*
X754634Y-3335528D01*
X754634Y-3353815D01*
X759205Y-3362960D01*
X768350Y-3372104D01*
X777494Y-3376421D01*
X791210Y-3380994D01*
X813815Y-3380994D01*
X827531Y-3376421D01*
X836676Y-3372104D01*
X845565Y-3362960D01*
X850137Y-3353815D01*
X850137Y-3335528D01*
X850137Y-3410965D02*
G01*
X754634Y-3410965D01*
X850137Y-3410965D02*
G01*
X754634Y-3474720D01*
X850137Y-3474720D02*
G01*
X754634Y-3474720D01*
X868426Y-3586479D02*
G01*
X722884Y-3504692D01*
X850137Y-3643884D02*
G01*
X845565Y-3634739D01*
X836676Y-3625595D01*
X827531Y-3621023D01*
X813815Y-3616452D01*
X791210Y-3616452D01*
X777494Y-3621023D01*
X768350Y-3625595D01*
X759205Y-3634739D01*
X754634Y-3643884D01*
X754634Y-3661918D01*
X759205Y-3671062D01*
X768350Y-3680205D01*
X777494Y-3684778D01*
X791210Y-3689350D01*
X813815Y-3689350D01*
X827531Y-3684778D01*
X836676Y-3680205D01*
X845565Y-3671062D01*
X850137Y-3661918D01*
X850137Y-3643884D01*
X850137Y-3719321D02*
G01*
X754634Y-3719321D01*
X850137Y-3719321D02*
G01*
X850137Y-3778250D01*
X804671Y-3719321D02*
G01*
X804671Y-3755644D01*
X850137Y-3808476D02*
G01*
X754634Y-3808476D01*
X850137Y-3808476D02*
G01*
X850137Y-3867404D01*
X804671Y-3808476D02*
G01*
X804671Y-3844797D01*
X3479800Y-623062D02*
G01*
X3479800Y-718565D01*
X3479800Y-623062D02*
G01*
X3520693Y-623062D01*
X3534409Y-627634D01*
X3538981Y-632205D01*
X3543554Y-641095D01*
X3543554Y-650239D01*
X3538981Y-659384D01*
X3534409Y-663955D01*
X3520693Y-668528D01*
X3479800Y-668528D02*
G01*
X3520693Y-668528D01*
X3534409Y-673100D01*
X3538981Y-677418D01*
X3543554Y-686562D01*
X3543554Y-700278D01*
X3538981Y-709421D01*
X3534409Y-713994D01*
X3520693Y-718565D01*
X3479800Y-718565D01*
X3573525Y-623062D02*
G01*
X3573525Y-691134D01*
X3578097Y-704850D01*
X3586988Y-713994D01*
X3600704Y-718565D01*
X3609847Y-718565D01*
X3623309Y-713994D01*
X3632454Y-704850D01*
X3637025Y-691134D01*
X3637025Y-623062D01*
X3699002Y-623062D02*
G01*
X3699002Y-718565D01*
X3666997Y-623062D02*
G01*
X3730752Y-623062D01*
X3792474Y-623062D02*
G01*
X3792474Y-718565D01*
X3760724Y-623062D02*
G01*
X3824224Y-623062D01*
X3881627Y-623062D02*
G01*
X3872484Y-627634D01*
X3863340Y-636523D01*
X3858768Y-645668D01*
X3854450Y-659384D01*
X3854450Y-681989D01*
X3858768Y-695705D01*
X3863340Y-704850D01*
X3872484Y-713994D01*
X3881627Y-718565D01*
X3899915Y-718565D01*
X3908806Y-713994D01*
X3917950Y-704850D01*
X3922522Y-695705D01*
X3927093Y-681989D01*
X3927093Y-659384D01*
X3922522Y-645668D01*
X3917950Y-636523D01*
X3908806Y-627634D01*
X3899915Y-623062D01*
X3881627Y-623062D01*
X3957065Y-623062D02*
G01*
X3957065Y-718565D01*
X3957065Y-623062D02*
G01*
X4020820Y-718565D01*
X4020820Y-623062D02*
G01*
X4020820Y-718565D01*
D11*
X7175500Y-2967228D02*
G01*
X7175500Y-3021837D01*
X7179056Y-3032760D01*
X7186422Y-3040126D01*
X7197343Y-3043681D01*
X7204709Y-3043681D01*
X7215377Y-3040126D01*
X7222743Y-3032760D01*
X7226300Y-3021837D01*
X7226300Y-2967228D01*
X7268463Y-2967228D02*
G01*
X7257795Y-2970784D01*
X7253986Y-2978150D01*
X7253986Y-2985515D01*
X7257795Y-2992628D01*
X7264908Y-2996437D01*
X7279386Y-2999994D01*
X7290308Y-3003550D01*
X7297674Y-3010915D01*
X7301229Y-3018281D01*
X7301229Y-3029204D01*
X7297674Y-3036315D01*
X7294118Y-3040126D01*
X7283195Y-3043681D01*
X7268463Y-3043681D01*
X7257795Y-3040126D01*
X7253986Y-3036315D01*
X7250429Y-3029204D01*
X7250429Y-3018281D01*
X7253986Y-3010915D01*
X7261352Y-3003550D01*
X7272274Y-2999994D01*
X7286752Y-2996437D01*
X7294118Y-2992628D01*
X7297674Y-2985515D01*
X7297674Y-2978150D01*
X7294118Y-2970784D01*
X7283195Y-2967228D01*
X7268463Y-2967228D01*
X6134100Y-376428D02*
G01*
X6134100Y-452881D01*
X6134100Y-376428D02*
G01*
X6159500Y-376428D01*
X6170422Y-379984D01*
X6177788Y-387350D01*
X6181343Y-394715D01*
X6184900Y-405637D01*
X6184900Y-423671D01*
X6181343Y-434594D01*
X6177788Y-441960D01*
X6170422Y-449326D01*
X6159500Y-452881D01*
X6134100Y-452881D01*
X6209029Y-390905D02*
G01*
X6216395Y-387350D01*
X6227063Y-376428D01*
X6227063Y-452881D01*
X1270000Y-1189228D02*
G01*
X1270000Y-1265681D01*
X1270000Y-1189228D02*
G01*
X1302765Y-1189228D01*
X1313687Y-1192784D01*
X1317244Y-1196594D01*
X1320800Y-1203705D01*
X1320800Y-1211071D01*
X1317244Y-1218437D01*
X1313687Y-1221994D01*
X1302765Y-1225550D01*
X1270000Y-1225550D01*
X1295400Y-1225550D02*
G01*
X1320800Y-1265681D01*
X1352295Y-1189228D02*
G01*
X1392173Y-1189228D01*
X1370329Y-1218437D01*
X1381252Y-1218437D01*
X1388618Y-1221994D01*
X1392173Y-1225550D01*
X1395729Y-1236471D01*
X1395729Y-1243837D01*
X1392173Y-1254760D01*
X1384807Y-1262126D01*
X1373886Y-1265681D01*
X1362963Y-1265681D01*
X1352295Y-1262126D01*
X1348486Y-1258315D01*
X1344929Y-1251204D01*
X1419860Y-1203705D02*
G01*
X1426971Y-1200150D01*
X1437894Y-1189228D01*
X1437894Y-1265681D01*
X1574800Y-1862328D02*
G01*
X1574800Y-1938781D01*
X1574800Y-1862328D02*
G01*
X1607565Y-1862328D01*
X1618487Y-1865884D01*
X1622044Y-1869694D01*
X1625600Y-1876805D01*
X1625600Y-1884171D01*
X1622044Y-1891537D01*
X1618487Y-1895094D01*
X1607565Y-1898650D01*
X1574800Y-1898650D01*
X1600200Y-1898650D02*
G01*
X1625600Y-1938781D01*
X1657095Y-1862328D02*
G01*
X1696973Y-1862328D01*
X1675129Y-1891537D01*
X1686052Y-1891537D01*
X1693418Y-1895094D01*
X1696973Y-1898650D01*
X1700529Y-1909571D01*
X1700529Y-1916937D01*
X1696973Y-1927860D01*
X1689607Y-1935226D01*
X1678686Y-1938781D01*
X1667763Y-1938781D01*
X1657095Y-1935226D01*
X1653286Y-1931415D01*
X1649729Y-1924304D01*
X1728215Y-1880615D02*
G01*
X1728215Y-1876805D01*
X1731771Y-1869694D01*
X1735581Y-1865884D01*
X1742694Y-1862328D01*
X1757426Y-1862328D01*
X1764537Y-1865884D01*
X1768347Y-1869694D01*
X1771904Y-1876805D01*
X1771904Y-1884171D01*
X1768347Y-1891537D01*
X1760981Y-1902460D01*
X1724660Y-1938781D01*
X1775460Y-1938781D01*
X3289300Y-2814828D02*
G01*
X3289300Y-2869437D01*
X3292856Y-2880360D01*
X3300222Y-2887726D01*
X3311143Y-2891281D01*
X3318509Y-2891281D01*
X3329177Y-2887726D01*
X3336543Y-2880360D01*
X3340100Y-2869437D01*
X3340100Y-2814828D01*
X3364229Y-2829305D02*
G01*
X3371595Y-2825750D01*
X3382263Y-2814828D01*
X3382263Y-2891281D01*
X3428238Y-2814828D02*
G01*
X3417315Y-2818384D01*
X3409950Y-2829305D01*
X3406393Y-2847594D01*
X3406393Y-2858515D01*
X3409950Y-2876804D01*
X3417315Y-2887726D01*
X3428238Y-2891281D01*
X3435604Y-2891281D01*
X3446272Y-2887726D01*
X3453638Y-2876804D01*
X3457193Y-2858515D01*
X3457193Y-2847594D01*
X3453638Y-2829305D01*
X3446272Y-2818384D01*
X3435604Y-2814828D01*
X3428238Y-2814828D01*
X2980943Y-268478D02*
G01*
X2970529Y-258063D01*
X2955036Y-252984D01*
X2934208Y-252984D01*
X2918713Y-258063D01*
X2908300Y-268478D01*
X2908300Y-278892D01*
X2913379Y-289305D01*
X2918713Y-294639D01*
X2929127Y-299720D01*
X2960370Y-310134D01*
X2970529Y-315213D01*
X2975863Y-320547D01*
X2980943Y-330962D01*
X2980943Y-346455D01*
X2970529Y-356870D01*
X2955036Y-361950D01*
X2934208Y-361950D01*
X2918713Y-356870D01*
X2908300Y-346455D01*
X3015234Y-252984D02*
G01*
X3041395Y-361950D01*
X3067304Y-252984D02*
G01*
X3041395Y-361950D01*
X3067304Y-252984D02*
G01*
X3093211Y-361950D01*
X3119120Y-252984D02*
G01*
X3093211Y-361950D01*
X3158743Y-278892D02*
G01*
X3158743Y-273812D01*
X3163824Y-263397D01*
X3169158Y-258063D01*
X3179572Y-252984D01*
X3200400Y-252984D01*
X3210559Y-258063D01*
X3215893Y-263397D01*
X3220974Y-273812D01*
X3220974Y-284226D01*
X3215893Y-294639D01*
X3205479Y-310134D01*
X3153409Y-361950D01*
X3226308Y-361950D01*
X6864880Y-2067813D02*
G01*
X6872246Y-2064004D01*
X6879612Y-2056892D01*
X6883168Y-2049526D01*
X6883168Y-2035047D01*
X6879612Y-2027681D01*
X6872246Y-2020570D01*
X6864880Y-2016760D01*
X6853958Y-2013204D01*
X6835924Y-2013204D01*
X6825002Y-2016760D01*
X6817636Y-2020570D01*
X6810270Y-2027681D01*
X6806714Y-2035047D01*
X6806714Y-2049526D01*
X6810270Y-2056892D01*
X6817636Y-2064004D01*
X6825002Y-2067813D01*
X6883168Y-2091689D02*
G01*
X6806714Y-2091689D01*
X6883168Y-2091689D02*
G01*
X6806714Y-2142744D01*
X6883168Y-2142744D02*
G01*
X6806714Y-2142744D01*
X6868690Y-2166620D02*
G01*
X6872246Y-2173986D01*
X6883168Y-2184907D01*
X6806714Y-2184907D01*
X4944109Y-2858515D02*
G01*
X4940300Y-2851150D01*
X4933188Y-2843784D01*
X4925822Y-2840228D01*
X4911343Y-2840228D01*
X4903977Y-2843784D01*
X4896865Y-2851150D01*
X4893056Y-2858515D01*
X4889500Y-2869437D01*
X4889500Y-2887471D01*
X4893056Y-2898394D01*
X4896865Y-2905760D01*
X4903977Y-2913126D01*
X4911343Y-2916681D01*
X4925822Y-2916681D01*
X4933188Y-2913126D01*
X4940300Y-2905760D01*
X4944109Y-2898394D01*
X5019040Y-2840228D02*
G01*
X4982463Y-2916681D01*
X4967986Y-2840228D02*
G01*
X5019040Y-2840228D01*
X4944109Y-2718815D02*
G01*
X4940300Y-2711450D01*
X4933188Y-2704084D01*
X4925822Y-2700528D01*
X4911343Y-2700528D01*
X4903977Y-2704084D01*
X4896865Y-2711450D01*
X4893056Y-2718815D01*
X4889500Y-2729737D01*
X4889500Y-2747771D01*
X4893056Y-2758694D01*
X4896865Y-2766060D01*
X4903977Y-2773426D01*
X4911343Y-2776981D01*
X4925822Y-2776981D01*
X4933188Y-2773426D01*
X4940300Y-2766060D01*
X4944109Y-2758694D01*
X4986274Y-2700528D02*
G01*
X4975352Y-2704084D01*
X4971795Y-2711450D01*
X4971795Y-2718815D01*
X4975352Y-2725928D01*
X4982463Y-2729737D01*
X4997195Y-2733294D01*
X5008118Y-2736850D01*
X5015229Y-2744215D01*
X5019040Y-2751581D01*
X5019040Y-2762504D01*
X5015229Y-2769615D01*
X5011674Y-2773426D01*
X5000752Y-2776981D01*
X4986274Y-2776981D01*
X4975352Y-2773426D01*
X4971795Y-2769615D01*
X4967986Y-2762504D01*
X4967986Y-2751581D01*
X4971795Y-2744215D01*
X4978908Y-2736850D01*
X4989829Y-2733294D01*
X5004308Y-2729737D01*
X5011674Y-2725928D01*
X5015229Y-2718815D01*
X5015229Y-2711450D01*
X5011674Y-2704084D01*
X5000752Y-2700528D01*
X4986274Y-2700528D01*
X254000Y-1214628D02*
G01*
X254000Y-1269237D01*
X257555Y-1280160D01*
X264921Y-1287526D01*
X275844Y-1291081D01*
X283210Y-1291081D01*
X293878Y-1287526D01*
X301244Y-1280160D01*
X304800Y-1269237D01*
X304800Y-1214628D01*
X328929Y-1229105D02*
G01*
X336295Y-1225550D01*
X346963Y-1214628D01*
X346963Y-1291081D01*
X407415Y-1214628D02*
G01*
X371094Y-1265681D01*
X425704Y-1265681D01*
X407415Y-1214628D02*
G01*
X407415Y-1291081D01*
X5181600Y-2624328D02*
G01*
X5181600Y-2678937D01*
X5185156Y-2689860D01*
X5192522Y-2697226D01*
X5203443Y-2700781D01*
X5210809Y-2700781D01*
X5221477Y-2697226D01*
X5228843Y-2689860D01*
X5232400Y-2678937D01*
X5232400Y-2624328D01*
X5256529Y-2638805D02*
G01*
X5263895Y-2635250D01*
X5274563Y-2624328D01*
X5274563Y-2700781D01*
X5298693Y-2638805D02*
G01*
X5306059Y-2635250D01*
X5316981Y-2624328D01*
X5316981Y-2700781D01*
X6794004Y-687578D02*
G01*
X6794004Y-764031D01*
X6794004Y-687578D02*
G01*
X6826770Y-687578D01*
X6837692Y-691134D01*
X6841248Y-694944D01*
X6844804Y-702055D01*
X6844804Y-709421D01*
X6841248Y-716787D01*
X6837692Y-720344D01*
X6826770Y-723900D01*
X6794004Y-723900D01*
X6819404Y-723900D02*
G01*
X6844804Y-764031D01*
X6872490Y-705865D02*
G01*
X6872490Y-702055D01*
X6876300Y-694944D01*
X6879856Y-691134D01*
X6886968Y-687578D01*
X6901700Y-687578D01*
X6908812Y-691134D01*
X6912622Y-694944D01*
X6916178Y-702055D01*
X6916178Y-709421D01*
X6912622Y-716787D01*
X6905256Y-727710D01*
X6868934Y-764031D01*
X6919734Y-764031D01*
X215900Y-4032250D02*
G01*
X208787Y-4024884D01*
X197865Y-4021328D01*
X183387Y-4021328D01*
X172465Y-4024884D01*
X165100Y-4032250D01*
X165100Y-4039615D01*
X168655Y-4046728D01*
X172465Y-4050537D01*
X179578Y-4054094D01*
X201421Y-4061460D01*
X208787Y-4065015D01*
X212344Y-4068571D01*
X215900Y-4075937D01*
X215900Y-4086860D01*
X208787Y-4094226D01*
X197865Y-4097781D01*
X183387Y-4097781D01*
X172465Y-4094226D01*
X165100Y-4086860D01*
X240029Y-4021328D02*
G01*
X258063Y-4097781D01*
X276352Y-4021328D02*
G01*
X258063Y-4097781D01*
X276352Y-4021328D02*
G01*
X294639Y-4097781D01*
X312673Y-4021328D02*
G01*
X294639Y-4097781D01*
X336804Y-4035805D02*
G01*
X343915Y-4032250D01*
X354837Y-4021328D01*
X354837Y-4097781D01*
X4013200Y-2789428D02*
G01*
X4013200Y-2865881D01*
X4013200Y-2789428D02*
G01*
X4045965Y-2789428D01*
X4056888Y-2792984D01*
X4060443Y-2796794D01*
X4064000Y-2803905D01*
X4064000Y-2811271D01*
X4060443Y-2818637D01*
X4056888Y-2822194D01*
X4045965Y-2825750D01*
X4013200Y-2825750D01*
X4038600Y-2825750D02*
G01*
X4064000Y-2865881D01*
X4095495Y-2789428D02*
G01*
X4135374Y-2789428D01*
X4113529Y-2818637D01*
X4124452Y-2818637D01*
X4131818Y-2822194D01*
X4135374Y-2825750D01*
X4138929Y-2836671D01*
X4138929Y-2844037D01*
X4135374Y-2854960D01*
X4128008Y-2862326D01*
X4117086Y-2865881D01*
X4106163Y-2865881D01*
X4095495Y-2862326D01*
X4091686Y-2858515D01*
X4088129Y-2851404D01*
X4170172Y-2789428D02*
G01*
X4210304Y-2789428D01*
X4188459Y-2818637D01*
X4199381Y-2818637D01*
X4206747Y-2822194D01*
X4210304Y-2825750D01*
X4213859Y-2836671D01*
X4213859Y-2844037D01*
X4210304Y-2854960D01*
X4202938Y-2862326D01*
X4192015Y-2865881D01*
X4181093Y-2865881D01*
X4170172Y-2862326D01*
X4166615Y-2858515D01*
X4163059Y-2851404D01*
X4013200Y-2979928D02*
G01*
X4013200Y-3056381D01*
X4013200Y-2979928D02*
G01*
X4045965Y-2979928D01*
X4056888Y-2983484D01*
X4060443Y-2987294D01*
X4064000Y-2994405D01*
X4064000Y-3001771D01*
X4060443Y-3009137D01*
X4056888Y-3012694D01*
X4045965Y-3016250D01*
X4013200Y-3016250D01*
X4038600Y-3016250D02*
G01*
X4064000Y-3056381D01*
X4095495Y-2979928D02*
G01*
X4135374Y-2979928D01*
X4113529Y-3009137D01*
X4124452Y-3009137D01*
X4131818Y-3012694D01*
X4135374Y-3016250D01*
X4138929Y-3027171D01*
X4138929Y-3034537D01*
X4135374Y-3045460D01*
X4128008Y-3052826D01*
X4117086Y-3056381D01*
X4106163Y-3056381D01*
X4095495Y-3052826D01*
X4091686Y-3049015D01*
X4088129Y-3041904D01*
X4199381Y-2979928D02*
G01*
X4163059Y-3030981D01*
X4217670Y-3030981D01*
X4199381Y-2979928D02*
G01*
X4199381Y-3056381D01*
X4610100Y-2332228D02*
G01*
X4610100Y-2408681D01*
X4610100Y-2332228D02*
G01*
X4642865Y-2332228D01*
X4653788Y-2335784D01*
X4657343Y-2339594D01*
X4660900Y-2346705D01*
X4660900Y-2354071D01*
X4657343Y-2361437D01*
X4653788Y-2364994D01*
X4642865Y-2368550D01*
X4610100Y-2368550D01*
X4635500Y-2368550D02*
G01*
X4660900Y-2408681D01*
X4692395Y-2332228D02*
G01*
X4732274Y-2332228D01*
X4710429Y-2361437D01*
X4721352Y-2361437D01*
X4728718Y-2364994D01*
X4732274Y-2368550D01*
X4735829Y-2379471D01*
X4735829Y-2386837D01*
X4732274Y-2397760D01*
X4724908Y-2405126D01*
X4713986Y-2408681D01*
X4703063Y-2408681D01*
X4692395Y-2405126D01*
X4688586Y-2401315D01*
X4685029Y-2394204D01*
X4803647Y-2332228D02*
G01*
X4767072Y-2332228D01*
X4763515Y-2364994D01*
X4767072Y-2361437D01*
X4777993Y-2357628D01*
X4788915Y-2357628D01*
X4799838Y-2361437D01*
X4807204Y-2368550D01*
X4810759Y-2379471D01*
X4810759Y-2386837D01*
X4807204Y-2397760D01*
X4799838Y-2405126D01*
X4788915Y-2408681D01*
X4777993Y-2408681D01*
X4767072Y-2405126D01*
X4763515Y-2401315D01*
X4759959Y-2394204D01*
X4597400Y-2560828D02*
G01*
X4597400Y-2637281D01*
X4597400Y-2560828D02*
G01*
X4630165Y-2560828D01*
X4641088Y-2564384D01*
X4644643Y-2568194D01*
X4648200Y-2575305D01*
X4648200Y-2582671D01*
X4644643Y-2590037D01*
X4641088Y-2593594D01*
X4630165Y-2597150D01*
X4597400Y-2597150D01*
X4622800Y-2597150D02*
G01*
X4648200Y-2637281D01*
X4679695Y-2560828D02*
G01*
X4719574Y-2560828D01*
X4697729Y-2590037D01*
X4708652Y-2590037D01*
X4716018Y-2593594D01*
X4719574Y-2597150D01*
X4723129Y-2608071D01*
X4723129Y-2615437D01*
X4719574Y-2626360D01*
X4712208Y-2633726D01*
X4701286Y-2637281D01*
X4690363Y-2637281D01*
X4679695Y-2633726D01*
X4675886Y-2629915D01*
X4672329Y-2622804D01*
X4790947Y-2571750D02*
G01*
X4787138Y-2564384D01*
X4776215Y-2560828D01*
X4769104Y-2560828D01*
X4758181Y-2564384D01*
X4750815Y-2575305D01*
X4747259Y-2593594D01*
X4747259Y-2611881D01*
X4750815Y-2626360D01*
X4758181Y-2633726D01*
X4769104Y-2637281D01*
X4772659Y-2637281D01*
X4783581Y-2633726D01*
X4790947Y-2626360D01*
X4794504Y-2615437D01*
X4794504Y-2611881D01*
X4790947Y-2600960D01*
X4783581Y-2593594D01*
X4772659Y-2590037D01*
X4769104Y-2590037D01*
X4758181Y-2593594D01*
X4750815Y-2600960D01*
X4747259Y-2611881D01*
X1968461Y-1027722D02*
G01*
X1968461Y-1136688D01*
X1968461Y-1027722D02*
G01*
X2015197Y-1027722D01*
X2030945Y-1032802D01*
X2036025Y-1038136D01*
X2041359Y-1048550D01*
X2041359Y-1058710D01*
X2036025Y-1069124D01*
X2030945Y-1074458D01*
X2015197Y-1079538D01*
X1968461Y-1079538D02*
G01*
X2015197Y-1079538D01*
X2030945Y-1084872D01*
X2036025Y-1089952D01*
X2041359Y-1100366D01*
X2041359Y-1115860D01*
X2036025Y-1126274D01*
X2030945Y-1131608D01*
X2015197Y-1136688D01*
X1968461Y-1136688D01*
X2075649Y-1027722D02*
G01*
X2075649Y-1105700D01*
X2080729Y-1121194D01*
X2091143Y-1131608D01*
X2106637Y-1136688D01*
X2117051Y-1136688D01*
X2132799Y-1131608D01*
X2142959Y-1121194D01*
X2148293Y-1105700D01*
X2148293Y-1027722D01*
X2255227Y-1027722D02*
G01*
X2182583Y-1136688D01*
X2182583Y-1027722D02*
G01*
X2255227Y-1027722D01*
X2182583Y-1136688D02*
G01*
X2255227Y-1136688D01*
X2362415Y-1027722D02*
G01*
X2289517Y-1136688D01*
X2289517Y-1027722D02*
G01*
X2362415Y-1027722D01*
X2289517Y-1136688D02*
G01*
X2362415Y-1136688D01*
X2396705Y-1027722D02*
G01*
X2396705Y-1136688D01*
X2396705Y-1027722D02*
G01*
X2464269Y-1027722D01*
X2396705Y-1079538D02*
G01*
X2438107Y-1079538D01*
X2396705Y-1136688D02*
G01*
X2464269Y-1136688D01*
X2498559Y-1027722D02*
G01*
X2498559Y-1136688D01*
X2498559Y-1027722D02*
G01*
X2545295Y-1027722D01*
X2560789Y-1032802D01*
X2565869Y-1038136D01*
X2571203Y-1048550D01*
X2571203Y-1058710D01*
X2565869Y-1069124D01*
X2560789Y-1074458D01*
X2545295Y-1079538D01*
X2498559Y-1079538D01*
X2534881Y-1079538D02*
G01*
X2571203Y-1136688D01*
X168910Y-470915D02*
G01*
X165100Y-463550D01*
X157987Y-456184D01*
X150621Y-452628D01*
X136144Y-452628D01*
X128778Y-456184D01*
X121665Y-463550D01*
X117855Y-470915D01*
X114300Y-481837D01*
X114300Y-499871D01*
X117855Y-510794D01*
X121665Y-518160D01*
X128778Y-525526D01*
X136144Y-529081D01*
X150621Y-529081D01*
X157987Y-525526D01*
X165100Y-518160D01*
X168910Y-510794D01*
X192786Y-452628D02*
G01*
X192786Y-529081D01*
X192786Y-452628D02*
G01*
X243839Y-529081D01*
X243839Y-452628D02*
G01*
X243839Y-529081D01*
X271271Y-470915D02*
G01*
X271271Y-467105D01*
X275081Y-459994D01*
X278637Y-456184D01*
X286004Y-452628D01*
X300481Y-452628D01*
X307847Y-456184D01*
X311404Y-459994D01*
X314960Y-467105D01*
X314960Y-474471D01*
X311404Y-481837D01*
X304037Y-492760D01*
X267715Y-529081D01*
X318770Y-529081D01*
X2832138Y-732028D02*
G01*
X2832138Y-808481D01*
X2832138Y-732028D02*
G01*
X2857538Y-732028D01*
X2868460Y-735584D01*
X2875826Y-742950D01*
X2879382Y-750315D01*
X2882938Y-761237D01*
X2882938Y-779271D01*
X2879382Y-790194D01*
X2875826Y-797560D01*
X2868460Y-804926D01*
X2857538Y-808481D01*
X2832138Y-808481D01*
X2950756Y-732028D02*
G01*
X2914180Y-732028D01*
X2910624Y-764794D01*
X2914180Y-761237D01*
X2925102Y-757428D01*
X2936024Y-757428D01*
X2946946Y-761237D01*
X2954312Y-768350D01*
X2957868Y-779271D01*
X2957868Y-786637D01*
X2954312Y-797560D01*
X2946946Y-804926D01*
X2936024Y-808481D01*
X2925102Y-808481D01*
X2914180Y-804926D01*
X2910624Y-801115D01*
X2907068Y-794004D01*
X2803032Y-1430533D02*
G01*
X2795920Y-1434089D01*
X2788554Y-1441455D01*
X2784998Y-1448821D01*
X2781188Y-1459743D01*
X2781188Y-1477777D01*
X2784998Y-1488699D01*
X2788554Y-1496065D01*
X2795920Y-1503177D01*
X2803032Y-1506987D01*
X2817764Y-1506987D01*
X2824876Y-1503177D01*
X2832242Y-1496065D01*
X2835798Y-1488699D01*
X2839608Y-1477777D01*
X2839608Y-1459743D01*
X2835798Y-1448821D01*
X2832242Y-1441455D01*
X2824876Y-1434089D01*
X2817764Y-1430533D01*
X2803032Y-1430533D01*
X2813954Y-1492509D02*
G01*
X2835798Y-1514099D01*
X2899806Y-1430533D02*
G01*
X2863484Y-1481587D01*
X2918094Y-1481587D01*
X2899806Y-1430533D02*
G01*
X2899806Y-1506987D01*
X5706109Y-4039615D02*
G01*
X5702300Y-4032250D01*
X5695188Y-4024884D01*
X5687822Y-4021328D01*
X5673343Y-4021328D01*
X5665977Y-4024884D01*
X5658865Y-4032250D01*
X5655056Y-4039615D01*
X5651500Y-4050537D01*
X5651500Y-4068571D01*
X5655056Y-4079494D01*
X5658865Y-4086860D01*
X5665977Y-4094226D01*
X5673343Y-4097781D01*
X5687822Y-4097781D01*
X5695188Y-4094226D01*
X5702300Y-4086860D01*
X5706109Y-4079494D01*
X5733795Y-4039615D02*
G01*
X5733795Y-4035805D01*
X5737352Y-4028694D01*
X5740908Y-4024884D01*
X5748274Y-4021328D01*
X5762752Y-4021328D01*
X5770118Y-4024884D01*
X5773674Y-4028694D01*
X5777229Y-4035805D01*
X5777229Y-4043171D01*
X5773674Y-4050537D01*
X5766308Y-4061460D01*
X5729986Y-4097781D01*
X5781040Y-4097781D01*
X5841238Y-4021328D02*
G01*
X5804915Y-4072381D01*
X5859525Y-4072381D01*
X5841238Y-4021328D02*
G01*
X5841238Y-4097781D01*
X1142237Y-3613150D02*
G01*
X1046734Y-3613150D01*
X1142237Y-3613150D02*
G01*
X1142237Y-3654044D01*
X1137665Y-3667760D01*
X1133094Y-3672331D01*
X1124204Y-3676904D01*
X1110487Y-3676904D01*
X1101344Y-3672331D01*
X1096771Y-3667760D01*
X1092200Y-3654044D01*
X1092200Y-3613150D01*
X1142237Y-3706876D02*
G01*
X1046734Y-3729481D01*
X1142237Y-3752342D02*
G01*
X1046734Y-3729481D01*
X1142237Y-3752342D02*
G01*
X1046734Y-3774947D01*
X1142237Y-3797807D02*
G01*
X1046734Y-3774947D01*
X1142237Y-3827779D02*
G01*
X1046734Y-3827779D01*
X1142237Y-3827779D02*
G01*
X1142237Y-3868673D01*
X1137665Y-3882136D01*
X1133094Y-3886707D01*
X1124204Y-3891279D01*
X1115060Y-3891279D01*
X1105915Y-3886707D01*
X1101344Y-3882136D01*
X1096771Y-3868673D01*
X1096771Y-3827779D01*
X1096771Y-3859529D02*
G01*
X1046734Y-3891279D01*
X1045210Y-1398015D02*
G01*
X1041400Y-1390650D01*
X1034287Y-1383284D01*
X1026921Y-1379728D01*
X1012444Y-1379728D01*
X1005078Y-1383284D01*
X997965Y-1390650D01*
X994155Y-1398015D01*
X990600Y-1408937D01*
X990600Y-1426971D01*
X994155Y-1437894D01*
X997965Y-1445260D01*
X1005078Y-1452626D01*
X1012444Y-1456181D01*
X1026921Y-1456181D01*
X1034287Y-1452626D01*
X1041400Y-1445260D01*
X1045210Y-1437894D01*
X1072895Y-1398015D02*
G01*
X1072895Y-1394205D01*
X1076452Y-1387094D01*
X1080007Y-1383284D01*
X1087373Y-1379728D01*
X1101852Y-1379728D01*
X1109218Y-1383284D01*
X1112773Y-1387094D01*
X1116329Y-1394205D01*
X1116329Y-1401571D01*
X1112773Y-1408937D01*
X1105407Y-1419860D01*
X1069086Y-1456181D01*
X1120139Y-1456181D01*
X1147571Y-1398015D02*
G01*
X1147571Y-1394205D01*
X1151381Y-1387094D01*
X1154937Y-1383284D01*
X1162304Y-1379728D01*
X1176781Y-1379728D01*
X1184147Y-1383284D01*
X1187704Y-1387094D01*
X1191260Y-1394205D01*
X1191260Y-1401571D01*
X1187704Y-1408937D01*
X1180337Y-1419860D01*
X1144015Y-1456181D01*
X1195070Y-1456181D01*
X1070610Y-1906015D02*
G01*
X1066800Y-1898650D01*
X1059687Y-1891284D01*
X1052321Y-1887728D01*
X1037844Y-1887728D01*
X1030478Y-1891284D01*
X1023365Y-1898650D01*
X1019555Y-1906015D01*
X1016000Y-1916937D01*
X1016000Y-1934971D01*
X1019555Y-1945894D01*
X1023365Y-1953260D01*
X1030478Y-1960626D01*
X1037844Y-1964181D01*
X1052321Y-1964181D01*
X1059687Y-1960626D01*
X1066800Y-1953260D01*
X1070610Y-1945894D01*
X1098295Y-1906015D02*
G01*
X1098295Y-1902205D01*
X1101852Y-1895094D01*
X1105407Y-1891284D01*
X1112773Y-1887728D01*
X1127252Y-1887728D01*
X1134618Y-1891284D01*
X1138173Y-1895094D01*
X1141729Y-1902205D01*
X1141729Y-1909571D01*
X1138173Y-1916937D01*
X1130807Y-1927860D01*
X1094486Y-1964181D01*
X1145539Y-1964181D01*
X1176781Y-1887728D02*
G01*
X1216660Y-1887728D01*
X1194815Y-1916937D01*
X1205737Y-1916937D01*
X1213104Y-1920494D01*
X1216660Y-1924050D01*
X1220470Y-1934971D01*
X1220470Y-1942337D01*
X1216660Y-1953260D01*
X1209547Y-1960626D01*
X1198626Y-1964181D01*
X1187704Y-1964181D01*
X1176781Y-1960626D01*
X1172971Y-1956815D01*
X1169415Y-1949704D01*
X4486909Y-636015D02*
G01*
X4483100Y-628650D01*
X4475988Y-621284D01*
X4468622Y-617728D01*
X4454143Y-617728D01*
X4446777Y-621284D01*
X4439665Y-628650D01*
X4435856Y-636015D01*
X4432300Y-646937D01*
X4432300Y-664971D01*
X4435856Y-675894D01*
X4439665Y-683260D01*
X4446777Y-690626D01*
X4454143Y-694181D01*
X4468622Y-694181D01*
X4475988Y-690626D01*
X4483100Y-683260D01*
X4486909Y-675894D01*
X4510786Y-632205D02*
G01*
X4518152Y-628650D01*
X4529074Y-617728D01*
X4529074Y-694181D01*
X5007609Y-839215D02*
G01*
X5003800Y-831850D01*
X4996688Y-824484D01*
X4989322Y-820928D01*
X4974843Y-820928D01*
X4967477Y-824484D01*
X4960365Y-831850D01*
X4956556Y-839215D01*
X4953000Y-850137D01*
X4953000Y-868171D01*
X4956556Y-879094D01*
X4960365Y-886460D01*
X4967477Y-893826D01*
X4974843Y-897381D01*
X4989322Y-897381D01*
X4996688Y-893826D01*
X5003800Y-886460D01*
X5007609Y-879094D01*
X5075174Y-820928D02*
G01*
X5038852Y-820928D01*
X5035295Y-853694D01*
X5038852Y-850137D01*
X5049774Y-846328D01*
X5060695Y-846328D01*
X5071618Y-850137D01*
X5078729Y-857250D01*
X5082540Y-868171D01*
X5082540Y-875537D01*
X5078729Y-886460D01*
X5071618Y-893826D01*
X5060695Y-897381D01*
X5049774Y-897381D01*
X5038852Y-893826D01*
X5035295Y-890015D01*
X5031486Y-882904D01*
X5782309Y-432815D02*
G01*
X5778500Y-425450D01*
X5771388Y-418084D01*
X5764022Y-414528D01*
X5749543Y-414528D01*
X5742177Y-418084D01*
X5735065Y-425450D01*
X5731256Y-432815D01*
X5727700Y-443737D01*
X5727700Y-461771D01*
X5731256Y-472694D01*
X5735065Y-480060D01*
X5742177Y-487426D01*
X5749543Y-490981D01*
X5764022Y-490981D01*
X5771388Y-487426D01*
X5778500Y-480060D01*
X5782309Y-472694D01*
X5806186Y-429005D02*
G01*
X5813552Y-425450D01*
X5824474Y-414528D01*
X5824474Y-490981D01*
X5892038Y-425450D02*
G01*
X5888481Y-418084D01*
X5877559Y-414528D01*
X5870193Y-414528D01*
X5859272Y-418084D01*
X5852159Y-429005D01*
X5848350Y-447294D01*
X5848350Y-465581D01*
X5852159Y-480060D01*
X5859272Y-487426D01*
X5870193Y-490981D01*
X5874004Y-490981D01*
X5884672Y-487426D01*
X5892038Y-480060D01*
X5895593Y-469137D01*
X5895593Y-465581D01*
X5892038Y-454660D01*
X5884672Y-447294D01*
X5874004Y-443737D01*
X5870193Y-443737D01*
X5859272Y-447294D01*
X5852159Y-454660D01*
X5848350Y-465581D01*
X4474209Y-877315D02*
G01*
X4470400Y-869950D01*
X4463288Y-862584D01*
X4455922Y-859028D01*
X4441443Y-859028D01*
X4434077Y-862584D01*
X4426965Y-869950D01*
X4423156Y-877315D01*
X4419600Y-888237D01*
X4419600Y-906271D01*
X4423156Y-917194D01*
X4426965Y-924560D01*
X4434077Y-931926D01*
X4441443Y-935481D01*
X4455922Y-935481D01*
X4463288Y-931926D01*
X4470400Y-924560D01*
X4474209Y-917194D01*
X4501895Y-877315D02*
G01*
X4501895Y-873505D01*
X4505452Y-866394D01*
X4509008Y-862584D01*
X4516374Y-859028D01*
X4530852Y-859028D01*
X4538218Y-862584D01*
X4541774Y-866394D01*
X4545329Y-873505D01*
X4545329Y-880871D01*
X4541774Y-888237D01*
X4534408Y-899160D01*
X4498086Y-935481D01*
X4549140Y-935481D01*
X3766700Y-2117089D02*
G01*
X3759334Y-2120900D01*
X3751968Y-2128012D01*
X3748412Y-2135378D01*
X3748412Y-2149855D01*
X3751968Y-2157221D01*
X3759334Y-2164334D01*
X3766700Y-2168144D01*
X3777622Y-2171700D01*
X3795656Y-2171700D01*
X3806578Y-2168144D01*
X3813944Y-2164334D01*
X3821310Y-2157221D01*
X3824866Y-2149855D01*
X3824866Y-2135378D01*
X3821310Y-2128012D01*
X3813944Y-2120900D01*
X3806578Y-2117089D01*
X3748412Y-2085847D02*
G01*
X3748412Y-2045970D01*
X3777622Y-2067813D01*
X3777622Y-2056892D01*
X3781178Y-2049526D01*
X3784734Y-2045970D01*
X3795656Y-2042160D01*
X3803022Y-2042160D01*
X3813944Y-2045970D01*
X3821310Y-2053081D01*
X3824866Y-2064004D01*
X3824866Y-2074926D01*
X3821310Y-2085847D01*
X3817500Y-2089404D01*
X3810388Y-2093213D01*
X1091184Y-3064510D02*
G01*
X1098550Y-3060700D01*
X1105915Y-3053587D01*
X1109471Y-3046221D01*
X1109471Y-3031744D01*
X1105915Y-3024378D01*
X1098550Y-3017265D01*
X1091184Y-3013455D01*
X1080262Y-3009900D01*
X1062228Y-3009900D01*
X1051305Y-3013455D01*
X1043939Y-3017265D01*
X1036573Y-3024378D01*
X1033018Y-3031744D01*
X1033018Y-3046221D01*
X1036573Y-3053587D01*
X1043939Y-3060700D01*
X1051305Y-3064510D01*
X1109471Y-3124707D02*
G01*
X1058418Y-3088386D01*
X1058418Y-3142995D01*
X1109471Y-3124707D02*
G01*
X1033018Y-3124707D01*
X3557015Y-2129789D02*
G01*
X3549650Y-2133600D01*
X3542284Y-2140712D01*
X3538727Y-2148078D01*
X3538727Y-2162555D01*
X3542284Y-2169921D01*
X3549650Y-2177034D01*
X3557015Y-2180844D01*
X3567938Y-2184400D01*
X3585972Y-2184400D01*
X3596893Y-2180844D01*
X3604259Y-2177034D01*
X3611625Y-2169921D01*
X3615181Y-2162555D01*
X3615181Y-2148078D01*
X3611625Y-2140712D01*
X3604259Y-2133600D01*
X3596893Y-2129789D01*
X3549650Y-2062226D02*
G01*
X3542284Y-2065781D01*
X3538727Y-2076704D01*
X3538727Y-2084070D01*
X3542284Y-2094992D01*
X3553206Y-2102104D01*
X3571493Y-2105913D01*
X3589781Y-2105913D01*
X3604259Y-2102104D01*
X3611625Y-2094992D01*
X3615181Y-2084070D01*
X3615181Y-2080513D01*
X3611625Y-2069592D01*
X3604259Y-2062226D01*
X3593338Y-2058670D01*
X3589781Y-2058670D01*
X3578859Y-2062226D01*
X3571493Y-2069592D01*
X3567938Y-2080513D01*
X3567938Y-2084070D01*
X3571493Y-2094992D01*
X3578859Y-2102104D01*
X3589781Y-2105913D01*
X1091184Y-2518410D02*
G01*
X1098550Y-2514600D01*
X1105915Y-2507487D01*
X1109471Y-2500121D01*
X1109471Y-2485644D01*
X1105915Y-2478278D01*
X1098550Y-2471165D01*
X1091184Y-2467355D01*
X1080262Y-2463800D01*
X1062228Y-2463800D01*
X1051305Y-2467355D01*
X1043939Y-2471165D01*
X1036573Y-2478278D01*
X1033018Y-2485644D01*
X1033018Y-2500121D01*
X1036573Y-2507487D01*
X1043939Y-2514600D01*
X1051305Y-2518410D01*
X1084071Y-2589529D02*
G01*
X1073150Y-2585973D01*
X1065784Y-2578607D01*
X1062228Y-2567686D01*
X1062228Y-2564129D01*
X1065784Y-2553207D01*
X1073150Y-2546095D01*
X1084071Y-2542286D01*
X1087628Y-2542286D01*
X1098550Y-2546095D01*
X1105915Y-2553207D01*
X1109471Y-2564129D01*
X1109471Y-2567686D01*
X1105915Y-2578607D01*
X1098550Y-2585973D01*
X1084071Y-2589529D01*
X1065784Y-2589529D01*
X1047495Y-2585973D01*
X1036573Y-2578607D01*
X1033018Y-2567686D01*
X1033018Y-2560573D01*
X1036573Y-2549652D01*
X1043939Y-2546095D01*
X1091184Y-2759710D02*
G01*
X1098550Y-2755900D01*
X1105915Y-2748787D01*
X1109471Y-2741421D01*
X1109471Y-2726944D01*
X1105915Y-2719578D01*
X1098550Y-2712465D01*
X1091184Y-2708655D01*
X1080262Y-2705100D01*
X1062228Y-2705100D01*
X1051305Y-2708655D01*
X1043939Y-2712465D01*
X1036573Y-2719578D01*
X1033018Y-2726944D01*
X1033018Y-2741421D01*
X1036573Y-2748787D01*
X1043939Y-2755900D01*
X1051305Y-2759710D01*
X1094994Y-2783586D02*
G01*
X1098550Y-2790952D01*
X1109471Y-2801873D01*
X1033018Y-2801873D01*
X1109471Y-2847594D02*
G01*
X1105915Y-2836671D01*
X1094994Y-2829560D01*
X1076705Y-2825750D01*
X1065784Y-2825750D01*
X1047495Y-2829560D01*
X1036573Y-2836671D01*
X1033018Y-2847594D01*
X1033018Y-2854960D01*
X1036573Y-2865881D01*
X1047495Y-2872994D01*
X1065784Y-2876804D01*
X1076705Y-2876804D01*
X1094994Y-2872994D01*
X1105915Y-2865881D01*
X1109471Y-2854960D01*
X1109471Y-2847594D01*
X4020299Y-2142482D02*
G01*
X4012933Y-2146292D01*
X4005821Y-2153404D01*
X4002011Y-2160770D01*
X4002011Y-2175248D01*
X4005821Y-2182614D01*
X4012933Y-2189726D01*
X4020299Y-2193536D01*
X4031221Y-2197092D01*
X4049255Y-2197092D01*
X4060177Y-2193536D01*
X4067543Y-2189726D01*
X4074909Y-2182614D01*
X4078465Y-2175248D01*
X4078465Y-2160770D01*
X4074909Y-2153404D01*
X4067543Y-2146292D01*
X4060177Y-2142482D01*
X4016743Y-2118606D02*
G01*
X4012933Y-2111240D01*
X4002011Y-2100318D01*
X4078465Y-2100318D01*
X4016743Y-2076442D02*
G01*
X4012933Y-2069076D01*
X4002011Y-2058154D01*
X4078465Y-2058154D01*
X1667520Y-3899872D02*
G01*
X1663710Y-3892506D01*
X1656598Y-3885394D01*
X1649232Y-3881584D01*
X1634754Y-3881584D01*
X1627388Y-3885394D01*
X1620276Y-3892506D01*
X1616466Y-3899872D01*
X1612910Y-3910794D01*
X1612910Y-3928828D01*
X1616466Y-3939750D01*
X1620276Y-3947116D01*
X1627388Y-3954482D01*
X1634754Y-3958038D01*
X1649232Y-3958038D01*
X1656598Y-3954482D01*
X1663710Y-3947116D01*
X1667520Y-3939750D01*
X1691396Y-3896316D02*
G01*
X1698762Y-3892506D01*
X1709684Y-3881584D01*
X1709684Y-3958038D01*
X1737370Y-3899872D02*
G01*
X1737370Y-3896316D01*
X1740926Y-3888950D01*
X1744482Y-3885394D01*
X1751848Y-3881584D01*
X1766326Y-3881584D01*
X1773692Y-3885394D01*
X1777248Y-3888950D01*
X1780804Y-3896316D01*
X1780804Y-3903428D01*
X1777248Y-3910794D01*
X1769882Y-3921716D01*
X1733560Y-3958038D01*
X1784614Y-3958038D01*
X5045709Y-991615D02*
G01*
X5041900Y-984250D01*
X5034788Y-976884D01*
X5027422Y-973328D01*
X5012943Y-973328D01*
X5005577Y-976884D01*
X4998465Y-984250D01*
X4994656Y-991615D01*
X4991100Y-1002537D01*
X4991100Y-1020571D01*
X4994656Y-1031494D01*
X4998465Y-1038860D01*
X5005577Y-1046226D01*
X5012943Y-1049781D01*
X5027422Y-1049781D01*
X5034788Y-1046226D01*
X5041900Y-1038860D01*
X5045709Y-1031494D01*
X5069586Y-987805D02*
G01*
X5076952Y-984250D01*
X5087874Y-973328D01*
X5087874Y-1049781D01*
X5119115Y-973328D02*
G01*
X5158993Y-973328D01*
X5137404Y-1002537D01*
X5148072Y-1002537D01*
X5155438Y-1006094D01*
X5158993Y-1009650D01*
X5162804Y-1020571D01*
X5162804Y-1027937D01*
X5158993Y-1038860D01*
X5151881Y-1046226D01*
X5140959Y-1049781D01*
X5130038Y-1049781D01*
X5119115Y-1046226D01*
X5115559Y-1042415D01*
X5111750Y-1035304D01*
X1667510Y-3087110D02*
G01*
X1663700Y-3079744D01*
X1656587Y-3072378D01*
X1649221Y-3068822D01*
X1634744Y-3068822D01*
X1627378Y-3072378D01*
X1620265Y-3079744D01*
X1616455Y-3087110D01*
X1612900Y-3098032D01*
X1612900Y-3116066D01*
X1616455Y-3126988D01*
X1620265Y-3134354D01*
X1627378Y-3141720D01*
X1634744Y-3145276D01*
X1649221Y-3145276D01*
X1656587Y-3141720D01*
X1663700Y-3134354D01*
X1667510Y-3126988D01*
X1691386Y-3083300D02*
G01*
X1698752Y-3079744D01*
X1709673Y-3068822D01*
X1709673Y-3145276D01*
X1769871Y-3068822D02*
G01*
X1733550Y-3119876D01*
X1788160Y-3119876D01*
X1769871Y-3068822D02*
G01*
X1769871Y-3145276D01*
X6633199Y-1232915D02*
G01*
X6629389Y-1225550D01*
X6622277Y-1218184D01*
X6614911Y-1214628D01*
X6600433Y-1214628D01*
X6593067Y-1218184D01*
X6585955Y-1225550D01*
X6582145Y-1232915D01*
X6578589Y-1243837D01*
X6578589Y-1261871D01*
X6582145Y-1272794D01*
X6585955Y-1280160D01*
X6593067Y-1287526D01*
X6600433Y-1291081D01*
X6614911Y-1291081D01*
X6622277Y-1287526D01*
X6629389Y-1280160D01*
X6633199Y-1272794D01*
X6657075Y-1229105D02*
G01*
X6664441Y-1225550D01*
X6675363Y-1214628D01*
X6675363Y-1291081D01*
X6742927Y-1214628D02*
G01*
X6706605Y-1214628D01*
X6703049Y-1247394D01*
X6706605Y-1243837D01*
X6717527Y-1240028D01*
X6728449Y-1240028D01*
X6739371Y-1243837D01*
X6746483Y-1250950D01*
X6750293Y-1261871D01*
X6750293Y-1269237D01*
X6746483Y-1280160D01*
X6739371Y-1287526D01*
X6728449Y-1291081D01*
X6717527Y-1291081D01*
X6706605Y-1287526D01*
X6703049Y-1283715D01*
X6699239Y-1276604D01*
X4964684Y-2112010D02*
G01*
X4972050Y-2108200D01*
X4979415Y-2101087D01*
X4982972Y-2093721D01*
X4982972Y-2079244D01*
X4979415Y-2071878D01*
X4972050Y-2064765D01*
X4964684Y-2060955D01*
X4953761Y-2057400D01*
X4935727Y-2057400D01*
X4924806Y-2060955D01*
X4917440Y-2064765D01*
X4910074Y-2071878D01*
X4906518Y-2079244D01*
X4906518Y-2093721D01*
X4910074Y-2101087D01*
X4917440Y-2108200D01*
X4924806Y-2112010D01*
X4968493Y-2135886D02*
G01*
X4972050Y-2143252D01*
X4982972Y-2154173D01*
X4906518Y-2154173D01*
X4982972Y-2229104D02*
G01*
X4906518Y-2192781D01*
X4982972Y-2178050D02*
G01*
X4982972Y-2229104D01*
X4736084Y-2112010D02*
G01*
X4743450Y-2108200D01*
X4750815Y-2101087D01*
X4754372Y-2093721D01*
X4754372Y-2079244D01*
X4750815Y-2071878D01*
X4743450Y-2064765D01*
X4736084Y-2060955D01*
X4725161Y-2057400D01*
X4707127Y-2057400D01*
X4696206Y-2060955D01*
X4688840Y-2064765D01*
X4681474Y-2071878D01*
X4677918Y-2079244D01*
X4677918Y-2093721D01*
X4681474Y-2101087D01*
X4688840Y-2108200D01*
X4696206Y-2112010D01*
X4739893Y-2135886D02*
G01*
X4743450Y-2143252D01*
X4754372Y-2154173D01*
X4677918Y-2154173D01*
X4754372Y-2196337D02*
G01*
X4750815Y-2185415D01*
X4743450Y-2181860D01*
X4736084Y-2181860D01*
X4728972Y-2185415D01*
X4725161Y-2192781D01*
X4721606Y-2207260D01*
X4718050Y-2218181D01*
X4710684Y-2225294D01*
X4703318Y-2229104D01*
X4692395Y-2229104D01*
X4685284Y-2225294D01*
X4681474Y-2221737D01*
X4677918Y-2210815D01*
X4677918Y-2196337D01*
X4681474Y-2185415D01*
X4685284Y-2181860D01*
X4692395Y-2178050D01*
X4703318Y-2178050D01*
X4710684Y-2181860D01*
X4718050Y-2188971D01*
X4721606Y-2199894D01*
X4725161Y-2214371D01*
X4728972Y-2221737D01*
X4736084Y-2225294D01*
X4743450Y-2225294D01*
X4750815Y-2221737D01*
X4754372Y-2210815D01*
X4754372Y-2196337D01*
X3432809Y-915415D02*
G01*
X3429000Y-908050D01*
X3421888Y-900684D01*
X3414522Y-897128D01*
X3400043Y-897128D01*
X3392677Y-900684D01*
X3385565Y-908050D01*
X3381756Y-915415D01*
X3378200Y-926337D01*
X3378200Y-944371D01*
X3381756Y-955294D01*
X3385565Y-962660D01*
X3392677Y-970026D01*
X3400043Y-973581D01*
X3414522Y-973581D01*
X3421888Y-970026D01*
X3429000Y-962660D01*
X3432809Y-955294D01*
X3456686Y-911605D02*
G01*
X3464052Y-908050D01*
X3474974Y-897128D01*
X3474974Y-973581D01*
X3546093Y-922528D02*
G01*
X3542538Y-933450D01*
X3535172Y-940815D01*
X3524504Y-944371D01*
X3520693Y-944371D01*
X3509772Y-940815D01*
X3502659Y-933450D01*
X3498850Y-922528D01*
X3498850Y-918971D01*
X3502659Y-908050D01*
X3509772Y-900684D01*
X3520693Y-897128D01*
X3524504Y-897128D01*
X3535172Y-900684D01*
X3542538Y-908050D01*
X3546093Y-922528D01*
X3546093Y-940815D01*
X3542538Y-959104D01*
X3535172Y-970026D01*
X3524504Y-973581D01*
X3517138Y-973581D01*
X3506215Y-970026D01*
X3502659Y-962660D01*
X3242309Y-1715515D02*
G01*
X3238500Y-1708150D01*
X3231388Y-1700784D01*
X3224022Y-1697228D01*
X3209543Y-1697228D01*
X3202177Y-1700784D01*
X3195065Y-1708150D01*
X3191256Y-1715515D01*
X3187700Y-1726437D01*
X3187700Y-1744471D01*
X3191256Y-1755394D01*
X3195065Y-1762760D01*
X3202177Y-1770126D01*
X3209543Y-1773681D01*
X3224022Y-1773681D01*
X3231388Y-1770126D01*
X3238500Y-1762760D01*
X3242309Y-1755394D01*
X3269995Y-1715515D02*
G01*
X3269995Y-1711705D01*
X3273552Y-1704594D01*
X3277108Y-1700784D01*
X3284474Y-1697228D01*
X3298952Y-1697228D01*
X3306318Y-1700784D01*
X3309874Y-1704594D01*
X3313429Y-1711705D01*
X3313429Y-1719071D01*
X3309874Y-1726437D01*
X3302508Y-1737360D01*
X3266186Y-1773681D01*
X3317240Y-1773681D01*
X3362959Y-1697228D02*
G01*
X3352038Y-1700784D01*
X3344672Y-1711705D01*
X3341115Y-1729994D01*
X3341115Y-1740915D01*
X3344672Y-1759204D01*
X3352038Y-1770126D01*
X3362959Y-1773681D01*
X3370325Y-1773681D01*
X3381247Y-1770126D01*
X3388359Y-1759204D01*
X3392170Y-1740915D01*
X3392170Y-1729994D01*
X3388359Y-1711705D01*
X3381247Y-1700784D01*
X3370325Y-1697228D01*
X3362959Y-1697228D01*
X4494784Y-2112010D02*
G01*
X4502150Y-2108200D01*
X4509515Y-2101087D01*
X4513072Y-2093721D01*
X4513072Y-2079244D01*
X4509515Y-2071878D01*
X4502150Y-2064765D01*
X4494784Y-2060955D01*
X4483861Y-2057400D01*
X4465827Y-2057400D01*
X4454906Y-2060955D01*
X4447540Y-2064765D01*
X4440174Y-2071878D01*
X4436618Y-2079244D01*
X4436618Y-2093721D01*
X4440174Y-2101087D01*
X4447540Y-2108200D01*
X4454906Y-2112010D01*
X4494784Y-2139695D02*
G01*
X4498593Y-2139695D01*
X4505706Y-2143252D01*
X4509515Y-2146807D01*
X4513072Y-2154173D01*
X4513072Y-2168652D01*
X4509515Y-2176018D01*
X4505706Y-2179573D01*
X4498593Y-2183129D01*
X4491227Y-2183129D01*
X4483861Y-2179573D01*
X4472940Y-2172207D01*
X4436618Y-2135886D01*
X4436618Y-2186939D01*
X4498593Y-2210815D02*
G01*
X4502150Y-2218181D01*
X4513072Y-2229104D01*
X4436618Y-2229104D01*
X5575300Y-3119628D02*
G01*
X5575300Y-3196081D01*
X5575300Y-3119628D02*
G01*
X5600700Y-3119628D01*
X5611622Y-3123184D01*
X5618988Y-3130550D01*
X5622543Y-3137915D01*
X5626100Y-3148837D01*
X5626100Y-3166871D01*
X5622543Y-3177794D01*
X5618988Y-3185160D01*
X5611622Y-3192526D01*
X5600700Y-3196081D01*
X5575300Y-3196081D01*
X5653786Y-3137915D02*
G01*
X5653786Y-3134105D01*
X5657595Y-3126994D01*
X5661152Y-3123184D01*
X5668263Y-3119628D01*
X5682995Y-3119628D01*
X5690108Y-3123184D01*
X5693918Y-3126994D01*
X5697474Y-3134105D01*
X5697474Y-3141471D01*
X5693918Y-3148837D01*
X5686552Y-3159760D01*
X5650229Y-3196081D01*
X5701029Y-3196081D01*
X6875272Y-2819400D02*
G01*
X6798818Y-2819400D01*
X6875272Y-2819400D02*
G01*
X6875272Y-2844800D01*
X6871715Y-2855721D01*
X6864350Y-2863087D01*
X6856984Y-2866644D01*
X6846061Y-2870200D01*
X6828027Y-2870200D01*
X6817106Y-2866644D01*
X6809740Y-2863087D01*
X6802374Y-2855721D01*
X6798818Y-2844800D01*
X6798818Y-2819400D01*
X6875272Y-2901695D02*
G01*
X6875272Y-2941573D01*
X6846061Y-2919729D01*
X6846061Y-2930652D01*
X6842506Y-2938018D01*
X6838950Y-2941573D01*
X6828027Y-2945129D01*
X6820661Y-2945129D01*
X6809740Y-2941573D01*
X6802374Y-2934207D01*
X6798818Y-2923286D01*
X6798818Y-2912363D01*
X6802374Y-2901695D01*
X6806184Y-2897886D01*
X6813295Y-2894329D01*
X5803900Y-1494028D02*
G01*
X5803900Y-1570481D01*
X5803900Y-1570481D02*
G01*
X5847588Y-1570481D01*
X5871463Y-1508505D02*
G01*
X5878829Y-1504950D01*
X5889752Y-1494028D01*
X5889752Y-1570481D01*
X5397500Y-1354328D02*
G01*
X5397500Y-1430781D01*
X5397500Y-1430781D02*
G01*
X5441188Y-1430781D01*
X5468874Y-1372615D02*
G01*
X5468874Y-1368805D01*
X5472429Y-1361694D01*
X5475986Y-1357884D01*
X5483352Y-1354328D01*
X5497829Y-1354328D01*
X5505195Y-1357884D01*
X5508752Y-1361694D01*
X5512308Y-1368805D01*
X5512308Y-1376171D01*
X5508752Y-1383537D01*
X5501386Y-1394460D01*
X5465063Y-1430781D01*
X5516118Y-1430781D01*
X1176604Y-2514600D02*
G01*
X1253058Y-2514600D01*
X1253058Y-2514600D02*
G01*
X1253058Y-2470912D01*
X1176604Y-2439670D02*
G01*
X1176604Y-2399792D01*
X1205560Y-2421636D01*
X1205560Y-2410713D01*
X1209370Y-2403347D01*
X1212926Y-2399792D01*
X1223848Y-2395981D01*
X1231214Y-2395981D01*
X1242136Y-2399792D01*
X1249248Y-2406904D01*
X1253058Y-2417826D01*
X1253058Y-2428747D01*
X1249248Y-2439670D01*
X1245692Y-2443226D01*
X1238326Y-2447036D01*
X5588000Y-808228D02*
G01*
X5588000Y-884681D01*
X5588000Y-884681D02*
G01*
X5631688Y-884681D01*
X5691886Y-808228D02*
G01*
X5655563Y-859281D01*
X5710174Y-859281D01*
X5691886Y-808228D02*
G01*
X5691886Y-884681D01*
X3615943Y-3513328D02*
G01*
X3608577Y-3516884D01*
X3601465Y-3524250D01*
X3597656Y-3531615D01*
X3594100Y-3542537D01*
X3594100Y-3560571D01*
X3597656Y-3571494D01*
X3601465Y-3578860D01*
X3608577Y-3586226D01*
X3615943Y-3589781D01*
X3630422Y-3589781D01*
X3637788Y-3586226D01*
X3644900Y-3578860D01*
X3648709Y-3571494D01*
X3652265Y-3560571D01*
X3652265Y-3542537D01*
X3648709Y-3531615D01*
X3644900Y-3524250D01*
X3637788Y-3516884D01*
X3630422Y-3513328D01*
X3615943Y-3513328D01*
X3626865Y-3575304D02*
G01*
X3648709Y-3596894D01*
X3676395Y-3527805D02*
G01*
X3683508Y-3524250D01*
X3694429Y-3513328D01*
X3694429Y-3589781D01*
X3577843Y-1646428D02*
G01*
X3570477Y-1649984D01*
X3563365Y-1657350D01*
X3559556Y-1664715D01*
X3556000Y-1675637D01*
X3556000Y-1693671D01*
X3559556Y-1704594D01*
X3563365Y-1711960D01*
X3570477Y-1719326D01*
X3577843Y-1722881D01*
X3592322Y-1722881D01*
X3599688Y-1719326D01*
X3606800Y-1711960D01*
X3610609Y-1704594D01*
X3614165Y-1693671D01*
X3614165Y-1675637D01*
X3610609Y-1664715D01*
X3606800Y-1657350D01*
X3599688Y-1649984D01*
X3592322Y-1646428D01*
X3577843Y-1646428D01*
X3588765Y-1708404D02*
G01*
X3610609Y-1729994D01*
X3641852Y-1664715D02*
G01*
X3641852Y-1660905D01*
X3645408Y-1653794D01*
X3648963Y-1649984D01*
X3656329Y-1646428D01*
X3670808Y-1646428D01*
X3678174Y-1649984D01*
X3681729Y-1653794D01*
X3685540Y-1660905D01*
X3685540Y-1668271D01*
X3681729Y-1675637D01*
X3674618Y-1686560D01*
X3638295Y-1722881D01*
X3689095Y-1722881D01*
X3946143Y-884428D02*
G01*
X3938777Y-887984D01*
X3931665Y-895350D01*
X3927856Y-902715D01*
X3924300Y-913637D01*
X3924300Y-931671D01*
X3927856Y-942594D01*
X3931665Y-949960D01*
X3938777Y-957326D01*
X3946143Y-960881D01*
X3960622Y-960881D01*
X3967988Y-957326D01*
X3975100Y-949960D01*
X3978909Y-942594D01*
X3982465Y-931671D01*
X3982465Y-913637D01*
X3978909Y-902715D01*
X3975100Y-895350D01*
X3967988Y-887984D01*
X3960622Y-884428D01*
X3946143Y-884428D01*
X3957065Y-946404D02*
G01*
X3978909Y-967994D01*
X4013708Y-884428D02*
G01*
X4053840Y-884428D01*
X4031995Y-913637D01*
X4042918Y-913637D01*
X4050029Y-917194D01*
X4053840Y-920750D01*
X4057395Y-931671D01*
X4057395Y-939037D01*
X4053840Y-949960D01*
X4046474Y-957326D01*
X4035552Y-960881D01*
X4024629Y-960881D01*
X4013708Y-957326D01*
X4010152Y-953515D01*
X4006595Y-946404D01*
X161544Y-2319528D02*
G01*
X154178Y-2323084D01*
X147065Y-2330450D01*
X143255Y-2337815D01*
X139700Y-2348737D01*
X139700Y-2366771D01*
X143255Y-2377694D01*
X147065Y-2385060D01*
X154178Y-2392426D01*
X161544Y-2395981D01*
X176021Y-2395981D01*
X183387Y-2392426D01*
X190500Y-2385060D01*
X194310Y-2377694D01*
X197865Y-2366771D01*
X197865Y-2348737D01*
X194310Y-2337815D01*
X190500Y-2330450D01*
X183387Y-2323084D01*
X176021Y-2319528D01*
X161544Y-2319528D01*
X172465Y-2381504D02*
G01*
X194310Y-2403094D01*
X265429Y-2319528D02*
G01*
X229107Y-2319528D01*
X225552Y-2352294D01*
X229107Y-2348737D01*
X240029Y-2344928D01*
X250952Y-2344928D01*
X261873Y-2348737D01*
X269239Y-2355850D01*
X272795Y-2366771D01*
X272795Y-2374137D01*
X269239Y-2385060D01*
X261873Y-2392426D01*
X250952Y-2395981D01*
X240029Y-2395981D01*
X229107Y-2392426D01*
X225552Y-2388615D01*
X221995Y-2381504D01*
X5372100Y-4008628D02*
G01*
X5372100Y-4085081D01*
X5372100Y-4008628D02*
G01*
X5404865Y-4008628D01*
X5415788Y-4012184D01*
X5419343Y-4015994D01*
X5422900Y-4023105D01*
X5422900Y-4030471D01*
X5419343Y-4037837D01*
X5415788Y-4041394D01*
X5404865Y-4044950D01*
X5372100Y-4044950D01*
X5397500Y-4044950D02*
G01*
X5422900Y-4085081D01*
X5447029Y-4023105D02*
G01*
X5454395Y-4019550D01*
X5465063Y-4008628D01*
X5465063Y-4085081D01*
X5524500Y-2294128D02*
G01*
X5524500Y-2370581D01*
X5524500Y-2294128D02*
G01*
X5557265Y-2294128D01*
X5568188Y-2297684D01*
X5571743Y-2301494D01*
X5575300Y-2308605D01*
X5575300Y-2315971D01*
X5571743Y-2323337D01*
X5568188Y-2326894D01*
X5557265Y-2330450D01*
X5524500Y-2330450D01*
X5549900Y-2330450D02*
G01*
X5575300Y-2370581D01*
X5635752Y-2294128D02*
G01*
X5599429Y-2345181D01*
X5654040Y-2345181D01*
X5635752Y-2294128D02*
G01*
X5635752Y-2370581D01*
X6875272Y-3149600D02*
G01*
X6798818Y-3149600D01*
X6875272Y-3149600D02*
G01*
X6875272Y-3182365D01*
X6871715Y-3193287D01*
X6867906Y-3196844D01*
X6860793Y-3200400D01*
X6853427Y-3200400D01*
X6846061Y-3196844D01*
X6842506Y-3193287D01*
X6838950Y-3182365D01*
X6838950Y-3149600D01*
X6838950Y-3175000D02*
G01*
X6798818Y-3200400D01*
X6875272Y-3275329D02*
G01*
X6798818Y-3239007D01*
X6875272Y-3224529D02*
G01*
X6875272Y-3275329D01*
X6875264Y-3378200D02*
G01*
X6798810Y-3378200D01*
X6875264Y-3378200D02*
G01*
X6875264Y-3410965D01*
X6871708Y-3421887D01*
X6867898Y-3425444D01*
X6860786Y-3429000D01*
X6853420Y-3429000D01*
X6846054Y-3425444D01*
X6842498Y-3421887D01*
X6838942Y-3410965D01*
X6838942Y-3378200D01*
X6838942Y-3403600D02*
G01*
X6798810Y-3429000D01*
X6860786Y-3453129D02*
G01*
X6864342Y-3460495D01*
X6875264Y-3471163D01*
X6798810Y-3471163D01*
X6860786Y-3495294D02*
G01*
X6864342Y-3502660D01*
X6875264Y-3513581D01*
X6798810Y-3513581D01*
X6875272Y-3835400D02*
G01*
X6798818Y-3835400D01*
X6875272Y-3835400D02*
G01*
X6875272Y-3868165D01*
X6871715Y-3879087D01*
X6867906Y-3882644D01*
X6860793Y-3886200D01*
X6853427Y-3886200D01*
X6846061Y-3882644D01*
X6842506Y-3879087D01*
X6838950Y-3868165D01*
X6838950Y-3835400D01*
X6838950Y-3860800D02*
G01*
X6798818Y-3886200D01*
X6860793Y-3910329D02*
G01*
X6864350Y-3917695D01*
X6875272Y-3928363D01*
X6798818Y-3928363D01*
X6856984Y-3956050D02*
G01*
X6860793Y-3956050D01*
X6867906Y-3959860D01*
X6871715Y-3963415D01*
X6875272Y-3970781D01*
X6875272Y-3985260D01*
X6871715Y-3992371D01*
X6867906Y-3996181D01*
X6860793Y-3999737D01*
X6853427Y-3999737D01*
X6846061Y-3996181D01*
X6835140Y-3988815D01*
X6798818Y-3952494D01*
X6798818Y-4003294D01*
X6875274Y-3594100D02*
G01*
X6798820Y-3594100D01*
X6875274Y-3594100D02*
G01*
X6875274Y-3626865D01*
X6871718Y-3637787D01*
X6867908Y-3641344D01*
X6860796Y-3644900D01*
X6853430Y-3644900D01*
X6846064Y-3641344D01*
X6842508Y-3637787D01*
X6838952Y-3626865D01*
X6838952Y-3594100D01*
X6838952Y-3619500D02*
G01*
X6798820Y-3644900D01*
X6860796Y-3669029D02*
G01*
X6864352Y-3676395D01*
X6875274Y-3687063D01*
X6798820Y-3687063D01*
X6864352Y-3754881D02*
G01*
X6871718Y-3751071D01*
X6875274Y-3740404D01*
X6875274Y-3733037D01*
X6871718Y-3722115D01*
X6860796Y-3714750D01*
X6842508Y-3711194D01*
X6824220Y-3711194D01*
X6809742Y-3714750D01*
X6802376Y-3722115D01*
X6798820Y-3733037D01*
X6798820Y-3736594D01*
X6802376Y-3747515D01*
X6809742Y-3754881D01*
X6820664Y-3758437D01*
X6824220Y-3758437D01*
X6835142Y-3754881D01*
X6842508Y-3747515D01*
X6846064Y-3736594D01*
X6846064Y-3733037D01*
X6842508Y-3722115D01*
X6835142Y-3714750D01*
X6824220Y-3711194D01*
X4762500Y-1392428D02*
G01*
X4762500Y-1468881D01*
X4762500Y-1392428D02*
G01*
X4795265Y-1392428D01*
X4806188Y-1395984D01*
X4809743Y-1399794D01*
X4813300Y-1406905D01*
X4813300Y-1414271D01*
X4809743Y-1421637D01*
X4806188Y-1425194D01*
X4795265Y-1428750D01*
X4762500Y-1428750D01*
X4787900Y-1428750D02*
G01*
X4813300Y-1468881D01*
X4840986Y-1410715D02*
G01*
X4840986Y-1406905D01*
X4844795Y-1399794D01*
X4848352Y-1395984D01*
X4855463Y-1392428D01*
X4870195Y-1392428D01*
X4877308Y-1395984D01*
X4881118Y-1399794D01*
X4884674Y-1406905D01*
X4884674Y-1414271D01*
X4881118Y-1421637D01*
X4873752Y-1432560D01*
X4837429Y-1468881D01*
X4888229Y-1468881D01*
X4948681Y-1392428D02*
G01*
X4912359Y-1443481D01*
X4966970Y-1443481D01*
X4948681Y-1392428D02*
G01*
X4948681Y-1468881D01*
X4419600Y-1392428D02*
G01*
X4419600Y-1468881D01*
X4419600Y-1392428D02*
G01*
X4452365Y-1392428D01*
X4463288Y-1395984D01*
X4466843Y-1399794D01*
X4470400Y-1406905D01*
X4470400Y-1414271D01*
X4466843Y-1421637D01*
X4463288Y-1425194D01*
X4452365Y-1428750D01*
X4419600Y-1428750D01*
X4445000Y-1428750D02*
G01*
X4470400Y-1468881D01*
X4498086Y-1410715D02*
G01*
X4498086Y-1406905D01*
X4501895Y-1399794D01*
X4505452Y-1395984D01*
X4512563Y-1392428D01*
X4527295Y-1392428D01*
X4534408Y-1395984D01*
X4538218Y-1399794D01*
X4541774Y-1406905D01*
X4541774Y-1414271D01*
X4538218Y-1421637D01*
X4530852Y-1432560D01*
X4494529Y-1468881D01*
X4545329Y-1468881D01*
X4613147Y-1392428D02*
G01*
X4576572Y-1392428D01*
X4573015Y-1425194D01*
X4576572Y-1421637D01*
X4587493Y-1417828D01*
X4598415Y-1417828D01*
X4609338Y-1421637D01*
X4616704Y-1428750D01*
X4620259Y-1439671D01*
X4620259Y-1447037D01*
X4616704Y-1457960D01*
X4609338Y-1465326D01*
X4598415Y-1468881D01*
X4587493Y-1468881D01*
X4576572Y-1465326D01*
X4573015Y-1461515D01*
X4569459Y-1454404D01*
X4000500Y-3348228D02*
G01*
X4000500Y-3424681D01*
X4000500Y-3348228D02*
G01*
X4033265Y-3348228D01*
X4044188Y-3351784D01*
X4047743Y-3355594D01*
X4051300Y-3362705D01*
X4051300Y-3370071D01*
X4047743Y-3377437D01*
X4044188Y-3380994D01*
X4033265Y-3384550D01*
X4000500Y-3384550D01*
X4025900Y-3384550D02*
G01*
X4051300Y-3424681D01*
X4082795Y-3348228D02*
G01*
X4122674Y-3348228D01*
X4100829Y-3377437D01*
X4111752Y-3377437D01*
X4119118Y-3380994D01*
X4122674Y-3384550D01*
X4126229Y-3395471D01*
X4126229Y-3402837D01*
X4122674Y-3413760D01*
X4115308Y-3421126D01*
X4104386Y-3424681D01*
X4093463Y-3424681D01*
X4082795Y-3421126D01*
X4078986Y-3417315D01*
X4075429Y-3410204D01*
X6756400Y-935228D02*
G01*
X6756400Y-1011681D01*
X6756400Y-935228D02*
G01*
X6789165Y-935228D01*
X6800088Y-938784D01*
X6803643Y-942594D01*
X6807200Y-949705D01*
X6807200Y-957071D01*
X6803643Y-964437D01*
X6800088Y-967994D01*
X6789165Y-971550D01*
X6756400Y-971550D01*
X6781800Y-971550D02*
G01*
X6807200Y-1011681D01*
X6831329Y-949705D02*
G01*
X6838695Y-946150D01*
X6849363Y-935228D01*
X6849363Y-1011681D01*
X6880859Y-935228D02*
G01*
X6920738Y-935228D01*
X6898893Y-964437D01*
X6909815Y-964437D01*
X6917181Y-967994D01*
X6920738Y-971550D01*
X6924293Y-982471D01*
X6924293Y-989837D01*
X6920738Y-1000760D01*
X6913372Y-1008126D01*
X6902704Y-1011681D01*
X6891781Y-1011681D01*
X6880859Y-1008126D01*
X6877050Y-1004315D01*
X6873493Y-997204D01*
X1490471Y-3746500D02*
G01*
X1414018Y-3746500D01*
X1490471Y-3746500D02*
G01*
X1490471Y-3779265D01*
X1486915Y-3790187D01*
X1483105Y-3793744D01*
X1475994Y-3797300D01*
X1468628Y-3797300D01*
X1461262Y-3793744D01*
X1457705Y-3790187D01*
X1454150Y-3779265D01*
X1454150Y-3746500D01*
X1454150Y-3771900D02*
G01*
X1414018Y-3797300D01*
X1475994Y-3821429D02*
G01*
X1479550Y-3828795D01*
X1490471Y-3839463D01*
X1414018Y-3839463D01*
X1490471Y-3881881D02*
G01*
X1486915Y-3870960D01*
X1479550Y-3867150D01*
X1472184Y-3867150D01*
X1465071Y-3870960D01*
X1461262Y-3878071D01*
X1457705Y-3892804D01*
X1454150Y-3903471D01*
X1446784Y-3910837D01*
X1439418Y-3914394D01*
X1428495Y-3914394D01*
X1421384Y-3910837D01*
X1417573Y-3907281D01*
X1414018Y-3896360D01*
X1414018Y-3881881D01*
X1417573Y-3870960D01*
X1421384Y-3867150D01*
X1428495Y-3863594D01*
X1439418Y-3863594D01*
X1446784Y-3867150D01*
X1454150Y-3874515D01*
X1457705Y-3885437D01*
X1461262Y-3899915D01*
X1465071Y-3907281D01*
X1472184Y-3910837D01*
X1479550Y-3910837D01*
X1486915Y-3907281D01*
X1490471Y-3896360D01*
X1490471Y-3881881D01*
X1562100Y-1709928D02*
G01*
X1562100Y-1786381D01*
X1562100Y-1709928D02*
G01*
X1594865Y-1709928D01*
X1605787Y-1713484D01*
X1609344Y-1717294D01*
X1612900Y-1724405D01*
X1612900Y-1731771D01*
X1609344Y-1739137D01*
X1605787Y-1742694D01*
X1594865Y-1746250D01*
X1562100Y-1746250D01*
X1587500Y-1746250D02*
G01*
X1612900Y-1786381D01*
X1640586Y-1728215D02*
G01*
X1640586Y-1724405D01*
X1644395Y-1717294D01*
X1647952Y-1713484D01*
X1655063Y-1709928D01*
X1669795Y-1709928D01*
X1676907Y-1713484D01*
X1680718Y-1717294D01*
X1684273Y-1724405D01*
X1684273Y-1731771D01*
X1680718Y-1739137D01*
X1673352Y-1750060D01*
X1637029Y-1786381D01*
X1687829Y-1786381D01*
X1762760Y-1709928D02*
G01*
X1726437Y-1786381D01*
X1711960Y-1709928D02*
G01*
X1762760Y-1709928D01*
X5689600Y-2459228D02*
G01*
X5689600Y-2535681D01*
X5689600Y-2459228D02*
G01*
X5722365Y-2459228D01*
X5733288Y-2462784D01*
X5736843Y-2466594D01*
X5740400Y-2473705D01*
X5740400Y-2481071D01*
X5736843Y-2488437D01*
X5733288Y-2491994D01*
X5722365Y-2495550D01*
X5689600Y-2495550D01*
X5715000Y-2495550D02*
G01*
X5740400Y-2535681D01*
X5808218Y-2470150D02*
G01*
X5804408Y-2462784D01*
X5793486Y-2459228D01*
X5786374Y-2459228D01*
X5775452Y-2462784D01*
X5768086Y-2473705D01*
X5764529Y-2491994D01*
X5764529Y-2510281D01*
X5768086Y-2524760D01*
X5775452Y-2532126D01*
X5786374Y-2535681D01*
X5789929Y-2535681D01*
X5800852Y-2532126D01*
X5808218Y-2524760D01*
X5811774Y-2513837D01*
X5811774Y-2510281D01*
X5808218Y-2499360D01*
X5800852Y-2491994D01*
X5789929Y-2488437D01*
X5786374Y-2488437D01*
X5775452Y-2491994D01*
X5768086Y-2499360D01*
X5764529Y-2510281D01*
X6769087Y-427228D02*
G01*
X6769087Y-503681D01*
X6769087Y-427228D02*
G01*
X6801853Y-427228D01*
X6812775Y-430784D01*
X6816331Y-434594D01*
X6819887Y-441705D01*
X6819887Y-449071D01*
X6816331Y-456437D01*
X6812775Y-459994D01*
X6801853Y-463550D01*
X6769087Y-463550D01*
X6794487Y-463550D02*
G01*
X6819887Y-503681D01*
X6891261Y-452628D02*
G01*
X6887705Y-463550D01*
X6880339Y-470915D01*
X6869417Y-474471D01*
X6865861Y-474471D01*
X6854939Y-470915D01*
X6847573Y-463550D01*
X6844017Y-452628D01*
X6844017Y-449071D01*
X6847573Y-438150D01*
X6854939Y-430784D01*
X6865861Y-427228D01*
X6869417Y-427228D01*
X6880339Y-430784D01*
X6887705Y-438150D01*
X6891261Y-452628D01*
X6891261Y-470915D01*
X6887705Y-489204D01*
X6880339Y-500126D01*
X6869417Y-503681D01*
X6862051Y-503681D01*
X6851383Y-500126D01*
X6847573Y-492760D01*
X5842000Y-3627628D02*
G01*
X5842000Y-3704081D01*
X5842000Y-3627628D02*
G01*
X5874765Y-3627628D01*
X5885688Y-3631184D01*
X5889243Y-3634994D01*
X5892800Y-3642105D01*
X5892800Y-3649471D01*
X5889243Y-3656837D01*
X5885688Y-3660394D01*
X5874765Y-3663950D01*
X5842000Y-3663950D01*
X5867400Y-3663950D02*
G01*
X5892800Y-3704081D01*
X5916929Y-3642105D02*
G01*
X5924295Y-3638550D01*
X5934963Y-3627628D01*
X5934963Y-3704081D01*
X5980938Y-3627628D02*
G01*
X5970015Y-3631184D01*
X5962650Y-3642105D01*
X5959093Y-3660394D01*
X5959093Y-3671315D01*
X5962650Y-3689604D01*
X5970015Y-3700526D01*
X5980938Y-3704081D01*
X5988304Y-3704081D01*
X5998972Y-3700526D01*
X6006338Y-3689604D01*
X6009893Y-3671315D01*
X6009893Y-3660394D01*
X6006338Y-3642105D01*
X5998972Y-3631184D01*
X5988304Y-3627628D01*
X5980938Y-3627628D01*
X5803900Y-3297428D02*
G01*
X5803900Y-3373881D01*
X5803900Y-3297428D02*
G01*
X5836665Y-3297428D01*
X5847588Y-3300984D01*
X5851143Y-3304794D01*
X5854700Y-3311905D01*
X5854700Y-3319271D01*
X5851143Y-3326637D01*
X5847588Y-3330194D01*
X5836665Y-3333750D01*
X5803900Y-3333750D01*
X5829300Y-3333750D02*
G01*
X5854700Y-3373881D01*
X5878829Y-3311905D02*
G01*
X5886195Y-3308350D01*
X5896863Y-3297428D01*
X5896863Y-3373881D01*
X5964681Y-3297428D02*
G01*
X5928359Y-3297428D01*
X5924550Y-3330194D01*
X5928359Y-3326637D01*
X5939281Y-3322828D01*
X5950204Y-3322828D01*
X5960872Y-3326637D01*
X5968238Y-3333750D01*
X5971793Y-3344671D01*
X5971793Y-3352037D01*
X5968238Y-3362960D01*
X5960872Y-3370326D01*
X5950204Y-3373881D01*
X5939281Y-3373881D01*
X5928359Y-3370326D01*
X5924550Y-3366515D01*
X5920993Y-3359404D01*
X5791200Y-2967228D02*
G01*
X5791200Y-3043681D01*
X5791200Y-2967228D02*
G01*
X5823965Y-2967228D01*
X5834888Y-2970784D01*
X5838443Y-2974594D01*
X5842000Y-2981705D01*
X5842000Y-2989071D01*
X5838443Y-2996437D01*
X5834888Y-2999994D01*
X5823965Y-3003550D01*
X5791200Y-3003550D01*
X5816600Y-3003550D02*
G01*
X5842000Y-3043681D01*
X5866129Y-2981705D02*
G01*
X5873495Y-2978150D01*
X5884163Y-2967228D01*
X5884163Y-3043681D01*
X5959093Y-2967228D02*
G01*
X5922772Y-3043681D01*
X5908293Y-2967228D02*
G01*
X5959093Y-2967228D01*
X5054600Y-592328D02*
G01*
X5054600Y-668781D01*
X5054600Y-592328D02*
G01*
X5087365Y-592328D01*
X5098288Y-595884D01*
X5101843Y-599694D01*
X5105400Y-606805D01*
X5105400Y-614171D01*
X5101843Y-621537D01*
X5098288Y-625094D01*
X5087365Y-628650D01*
X5054600Y-628650D01*
X5080000Y-628650D02*
G01*
X5105400Y-668781D01*
X5129529Y-606805D02*
G01*
X5136895Y-603250D01*
X5147563Y-592328D01*
X5147563Y-668781D01*
X5218938Y-617728D02*
G01*
X5215381Y-628650D01*
X5208015Y-636015D01*
X5197093Y-639571D01*
X5193538Y-639571D01*
X5182615Y-636015D01*
X5175250Y-628650D01*
X5171693Y-617728D01*
X5171693Y-614171D01*
X5175250Y-603250D01*
X5182615Y-595884D01*
X5193538Y-592328D01*
X5197093Y-592328D01*
X5208015Y-595884D01*
X5215381Y-603250D01*
X5218938Y-617728D01*
X5218938Y-636015D01*
X5215381Y-654304D01*
X5208015Y-665226D01*
X5197093Y-668781D01*
X5189981Y-668781D01*
X5179059Y-665226D01*
X5175250Y-657860D01*
X4127500Y-1608328D02*
G01*
X4127500Y-1684781D01*
X4127500Y-1608328D02*
G01*
X4160265Y-1608328D01*
X4171188Y-1611884D01*
X4174743Y-1615694D01*
X4178300Y-1622805D01*
X4178300Y-1630171D01*
X4174743Y-1637537D01*
X4171188Y-1641094D01*
X4160265Y-1644650D01*
X4127500Y-1644650D01*
X4152900Y-1644650D02*
G01*
X4178300Y-1684781D01*
X4205986Y-1626615D02*
G01*
X4205986Y-1622805D01*
X4209795Y-1615694D01*
X4213352Y-1611884D01*
X4220463Y-1608328D01*
X4235195Y-1608328D01*
X4242308Y-1611884D01*
X4246118Y-1615694D01*
X4249674Y-1622805D01*
X4249674Y-1630171D01*
X4246118Y-1637537D01*
X4238752Y-1648460D01*
X4202429Y-1684781D01*
X4253229Y-1684781D01*
X4277359Y-1622805D02*
G01*
X4284472Y-1619250D01*
X4295393Y-1608328D01*
X4295393Y-1684781D01*
X3822700Y-1481328D02*
G01*
X3822700Y-1557781D01*
X3822700Y-1481328D02*
G01*
X3855465Y-1481328D01*
X3866388Y-1484884D01*
X3869943Y-1488694D01*
X3873500Y-1495805D01*
X3873500Y-1503171D01*
X3869943Y-1510537D01*
X3866388Y-1514094D01*
X3855465Y-1517650D01*
X3822700Y-1517650D01*
X3848100Y-1517650D02*
G01*
X3873500Y-1557781D01*
X3901186Y-1499615D02*
G01*
X3901186Y-1495805D01*
X3904995Y-1488694D01*
X3908552Y-1484884D01*
X3915663Y-1481328D01*
X3930395Y-1481328D01*
X3937508Y-1484884D01*
X3941318Y-1488694D01*
X3944874Y-1495805D01*
X3944874Y-1503171D01*
X3941318Y-1510537D01*
X3933952Y-1521460D01*
X3897629Y-1557781D01*
X3948429Y-1557781D01*
X3976115Y-1499615D02*
G01*
X3976115Y-1495805D01*
X3979672Y-1488694D01*
X3983481Y-1484884D01*
X3990593Y-1481328D01*
X4005325Y-1481328D01*
X4012438Y-1484884D01*
X4016247Y-1488694D01*
X4019804Y-1495805D01*
X4019804Y-1503171D01*
X4016247Y-1510537D01*
X4008881Y-1521460D01*
X3972559Y-1557781D01*
X4023359Y-1557781D01*
X4513072Y-1079500D02*
G01*
X4436618Y-1079500D01*
X4513072Y-1079500D02*
G01*
X4513072Y-1112265D01*
X4509515Y-1123187D01*
X4505706Y-1126744D01*
X4498593Y-1130300D01*
X4491227Y-1130300D01*
X4483861Y-1126744D01*
X4480306Y-1123187D01*
X4476750Y-1112265D01*
X4476750Y-1079500D01*
X4476750Y-1104900D02*
G01*
X4436618Y-1130300D01*
X4494784Y-1157986D02*
G01*
X4498593Y-1157986D01*
X4505706Y-1161795D01*
X4509515Y-1165352D01*
X4513072Y-1172463D01*
X4513072Y-1187195D01*
X4509515Y-1194307D01*
X4505706Y-1198118D01*
X4498593Y-1201673D01*
X4491227Y-1201673D01*
X4483861Y-1198118D01*
X4472940Y-1190752D01*
X4436618Y-1154429D01*
X4436618Y-1205229D01*
X4513072Y-1236471D02*
G01*
X4513072Y-1276604D01*
X4483861Y-1254760D01*
X4483861Y-1265681D01*
X4480306Y-1273047D01*
X4476750Y-1276604D01*
X4465827Y-1280160D01*
X4458461Y-1280160D01*
X4447540Y-1276604D01*
X4440174Y-1269237D01*
X4436618Y-1258315D01*
X4436618Y-1247394D01*
X4440174Y-1236471D01*
X4443984Y-1232915D01*
X4451095Y-1229360D01*
X309371Y-2032000D02*
G01*
X232918Y-2032000D01*
X309371Y-2032000D02*
G01*
X309371Y-2064765D01*
X305815Y-2075687D01*
X302005Y-2079244D01*
X294894Y-2082800D01*
X287528Y-2082800D01*
X280162Y-2079244D01*
X276605Y-2075687D01*
X273050Y-2064765D01*
X273050Y-2032000D01*
X273050Y-2057400D02*
G01*
X232918Y-2082800D01*
X291084Y-2110486D02*
G01*
X294894Y-2110486D01*
X302005Y-2114295D01*
X305815Y-2117852D01*
X309371Y-2124963D01*
X309371Y-2139695D01*
X305815Y-2146807D01*
X302005Y-2150618D01*
X294894Y-2154173D01*
X287528Y-2154173D01*
X280162Y-2150618D01*
X269239Y-2143252D01*
X232918Y-2106929D01*
X232918Y-2157729D01*
X298450Y-2225547D02*
G01*
X305815Y-2221737D01*
X309371Y-2210815D01*
X309371Y-2203704D01*
X305815Y-2192781D01*
X294894Y-2185415D01*
X276605Y-2181860D01*
X258318Y-2181860D01*
X243839Y-2185415D01*
X236473Y-2192781D01*
X232918Y-2203704D01*
X232918Y-2207260D01*
X236473Y-2218181D01*
X243839Y-2225547D01*
X254762Y-2229104D01*
X258318Y-2229104D01*
X269239Y-2225547D01*
X276605Y-2218181D01*
X280162Y-2207260D01*
X280162Y-2203704D01*
X276605Y-2192781D01*
X269239Y-2185415D01*
X258318Y-2181860D01*
X487171Y-2032000D02*
G01*
X410718Y-2032000D01*
X487171Y-2032000D02*
G01*
X487171Y-2064765D01*
X483615Y-2075687D01*
X479805Y-2079244D01*
X472694Y-2082800D01*
X465328Y-2082800D01*
X457962Y-2079244D01*
X454405Y-2075687D01*
X450850Y-2064765D01*
X450850Y-2032000D01*
X450850Y-2057400D02*
G01*
X410718Y-2082800D01*
X468884Y-2110486D02*
G01*
X472694Y-2110486D01*
X479805Y-2114295D01*
X483615Y-2117852D01*
X487171Y-2124963D01*
X487171Y-2139695D01*
X483615Y-2146807D01*
X479805Y-2150618D01*
X472694Y-2154173D01*
X465328Y-2154173D01*
X457962Y-2150618D01*
X447039Y-2143252D01*
X410718Y-2106929D01*
X410718Y-2157729D01*
X461771Y-2229104D02*
G01*
X450850Y-2225547D01*
X443484Y-2218181D01*
X439928Y-2207260D01*
X439928Y-2203704D01*
X443484Y-2192781D01*
X450850Y-2185415D01*
X461771Y-2181860D01*
X465328Y-2181860D01*
X476250Y-2185415D01*
X483615Y-2192781D01*
X487171Y-2203704D01*
X487171Y-2207260D01*
X483615Y-2218181D01*
X476250Y-2225547D01*
X461771Y-2229104D01*
X443484Y-2229104D01*
X425195Y-2225547D01*
X414273Y-2218181D01*
X410718Y-2207260D01*
X410718Y-2199894D01*
X414273Y-2188971D01*
X421639Y-2185415D01*
X3517900Y-1151128D02*
G01*
X3517900Y-1227581D01*
X3517900Y-1151128D02*
G01*
X3550665Y-1151128D01*
X3561588Y-1154684D01*
X3565143Y-1158494D01*
X3568700Y-1165605D01*
X3568700Y-1172971D01*
X3565143Y-1180337D01*
X3561588Y-1183894D01*
X3550665Y-1187450D01*
X3517900Y-1187450D01*
X3543300Y-1187450D02*
G01*
X3568700Y-1227581D01*
X3600195Y-1151128D02*
G01*
X3640074Y-1151128D01*
X3618229Y-1180337D01*
X3629152Y-1180337D01*
X3636518Y-1183894D01*
X3640074Y-1187450D01*
X3643629Y-1198371D01*
X3643629Y-1205737D01*
X3640074Y-1216660D01*
X3632708Y-1224026D01*
X3621786Y-1227581D01*
X3610863Y-1227581D01*
X3600195Y-1224026D01*
X3596386Y-1220215D01*
X3592829Y-1213104D01*
X3689604Y-1151128D02*
G01*
X3678681Y-1154684D01*
X3671315Y-1165605D01*
X3667759Y-1183894D01*
X3667759Y-1194815D01*
X3671315Y-1213104D01*
X3678681Y-1224026D01*
X3689604Y-1227581D01*
X3696715Y-1227581D01*
X3707638Y-1224026D01*
X3715004Y-1213104D01*
X3718559Y-1194815D01*
X3718559Y-1183894D01*
X3715004Y-1165605D01*
X3707638Y-1154684D01*
X3696715Y-1151128D01*
X3689604Y-1151128D01*
X1460500Y-2256028D02*
G01*
X1460500Y-2310637D01*
X1464055Y-2321560D01*
X1471421Y-2328926D01*
X1482344Y-2332481D01*
X1489710Y-2332481D01*
X1500378Y-2328926D01*
X1507744Y-2321560D01*
X1511300Y-2310637D01*
X1511300Y-2256028D01*
X1538986Y-2274315D02*
G01*
X1538986Y-2270505D01*
X1542795Y-2263394D01*
X1546352Y-2259584D01*
X1553463Y-2256028D01*
X1568195Y-2256028D01*
X1575307Y-2259584D01*
X1579118Y-2263394D01*
X1582673Y-2270505D01*
X1582673Y-2277871D01*
X1579118Y-2285237D01*
X1571752Y-2296160D01*
X1535429Y-2332481D01*
X1586229Y-2332481D01*
X6324600Y-3526028D02*
G01*
X6324600Y-3580637D01*
X6328156Y-3591560D01*
X6335522Y-3598926D01*
X6346443Y-3602481D01*
X6353809Y-3602481D01*
X6364477Y-3598926D01*
X6371843Y-3591560D01*
X6375400Y-3580637D01*
X6375400Y-3526028D01*
X6443218Y-3536950D02*
G01*
X6439408Y-3529584D01*
X6428486Y-3526028D01*
X6421374Y-3526028D01*
X6410452Y-3529584D01*
X6403086Y-3540505D01*
X6399529Y-3558794D01*
X6399529Y-3577081D01*
X6403086Y-3591560D01*
X6410452Y-3598926D01*
X6421374Y-3602481D01*
X6424929Y-3602481D01*
X6435852Y-3598926D01*
X6443218Y-3591560D01*
X6446774Y-3580637D01*
X6446774Y-3577081D01*
X6443218Y-3566160D01*
X6435852Y-3558794D01*
X6424929Y-3555237D01*
X6421374Y-3555237D01*
X6410452Y-3558794D01*
X6403086Y-3566160D01*
X6399529Y-3577081D01*
X4076700Y-4008628D02*
G01*
X4076700Y-4063237D01*
X4080256Y-4074160D01*
X4087622Y-4081526D01*
X4098543Y-4085081D01*
X4105909Y-4085081D01*
X4116577Y-4081526D01*
X4123943Y-4074160D01*
X4127500Y-4063237D01*
X4127500Y-4008628D01*
X4187952Y-4008628D02*
G01*
X4151629Y-4059681D01*
X4206240Y-4059681D01*
X4187952Y-4008628D02*
G01*
X4187952Y-4085081D01*
X4508500Y-4008628D02*
G01*
X4508500Y-4063237D01*
X4512056Y-4074160D01*
X4519422Y-4081526D01*
X4530343Y-4085081D01*
X4537709Y-4085081D01*
X4548377Y-4081526D01*
X4555743Y-4074160D01*
X4559300Y-4063237D01*
X4559300Y-4008628D01*
X4634229Y-4008628D02*
G01*
X4597908Y-4085081D01*
X4583429Y-4008628D02*
G01*
X4634229Y-4008628D01*
X6096000Y-2865628D02*
G01*
X6096000Y-2920237D01*
X6099556Y-2931160D01*
X6106922Y-2938526D01*
X6117843Y-2942081D01*
X6125209Y-2942081D01*
X6135877Y-2938526D01*
X6143243Y-2931160D01*
X6146800Y-2920237D01*
X6146800Y-2865628D01*
X6188963Y-2865628D02*
G01*
X6178295Y-2869184D01*
X6174486Y-2876550D01*
X6174486Y-2883915D01*
X6178295Y-2891028D01*
X6185408Y-2894837D01*
X6199886Y-2898394D01*
X6210808Y-2901950D01*
X6218174Y-2909315D01*
X6221729Y-2916681D01*
X6221729Y-2927604D01*
X6218174Y-2934715D01*
X6214618Y-2938526D01*
X6203695Y-2942081D01*
X6188963Y-2942081D01*
X6178295Y-2938526D01*
X6174486Y-2934715D01*
X6170929Y-2927604D01*
X6170929Y-2916681D01*
X6174486Y-2909315D01*
X6181852Y-2901950D01*
X6192774Y-2898394D01*
X6207252Y-2894837D01*
X6214618Y-2891028D01*
X6218174Y-2883915D01*
X6218174Y-2876550D01*
X6214618Y-2869184D01*
X6203695Y-2865628D01*
X6188963Y-2865628D01*
X6210300Y-1443228D02*
G01*
X6210300Y-1497837D01*
X6213856Y-1508760D01*
X6221222Y-1516126D01*
X6232143Y-1519681D01*
X6239509Y-1519681D01*
X6250177Y-1516126D01*
X6257543Y-1508760D01*
X6261100Y-1497837D01*
X6261100Y-1443228D01*
X6328918Y-1443228D02*
G01*
X6292595Y-1443228D01*
X6288786Y-1475994D01*
X6292595Y-1472437D01*
X6303263Y-1468628D01*
X6314186Y-1468628D01*
X6325108Y-1472437D01*
X6332474Y-1479550D01*
X6336029Y-1490471D01*
X6336029Y-1497837D01*
X6332474Y-1508760D01*
X6325108Y-1516126D01*
X6314186Y-1519681D01*
X6303263Y-1519681D01*
X6292595Y-1516126D01*
X6288786Y-1512315D01*
X6285229Y-1505204D01*
X3124200Y-1544828D02*
G01*
X3124200Y-1599437D01*
X3127756Y-1610360D01*
X3135122Y-1617726D01*
X3146043Y-1621281D01*
X3153409Y-1621281D01*
X3164077Y-1617726D01*
X3171443Y-1610360D01*
X3175000Y-1599437D01*
X3175000Y-1544828D01*
X3246374Y-1570228D02*
G01*
X3242818Y-1581150D01*
X3235452Y-1588515D01*
X3224529Y-1592071D01*
X3220974Y-1592071D01*
X3210052Y-1588515D01*
X3202686Y-1581150D01*
X3199129Y-1570228D01*
X3199129Y-1566671D01*
X3202686Y-1555750D01*
X3210052Y-1548384D01*
X3220974Y-1544828D01*
X3224529Y-1544828D01*
X3235452Y-1548384D01*
X3242818Y-1555750D01*
X3246374Y-1570228D01*
X3246374Y-1588515D01*
X3242818Y-1606804D01*
X3235452Y-1617726D01*
X3224529Y-1621281D01*
X3217163Y-1621281D01*
X3206495Y-1617726D01*
X3202686Y-1610360D01*
X723900Y-2154428D02*
G01*
X723900Y-2209037D01*
X727455Y-2219960D01*
X734821Y-2227326D01*
X745744Y-2230881D01*
X753110Y-2230881D01*
X763778Y-2227326D01*
X771144Y-2219960D01*
X774700Y-2209037D01*
X774700Y-2154428D01*
X798829Y-2168905D02*
G01*
X806195Y-2165350D01*
X816863Y-2154428D01*
X816863Y-2230881D01*
X848360Y-2154428D02*
G01*
X888237Y-2154428D01*
X866394Y-2183637D01*
X877315Y-2183637D01*
X884681Y-2187194D01*
X888237Y-2190750D01*
X891794Y-2201671D01*
X891794Y-2209037D01*
X888237Y-2219960D01*
X880871Y-2227326D01*
X870204Y-2230881D01*
X859281Y-2230881D01*
X848360Y-2227326D01*
X844550Y-2223515D01*
X840994Y-2216404D01*
X4673600Y-3246628D02*
G01*
X4673600Y-3323081D01*
X4673600Y-3246628D02*
G01*
X4706365Y-3246628D01*
X4717288Y-3250184D01*
X4720843Y-3253994D01*
X4724400Y-3261105D01*
X4724400Y-3268471D01*
X4720843Y-3275837D01*
X4717288Y-3279394D01*
X4706365Y-3282950D01*
X4673600Y-3282950D01*
X4699000Y-3282950D02*
G01*
X4724400Y-3323081D01*
X4752086Y-3264915D02*
G01*
X4752086Y-3261105D01*
X4755895Y-3253994D01*
X4759452Y-3250184D01*
X4766563Y-3246628D01*
X4781295Y-3246628D01*
X4788408Y-3250184D01*
X4792218Y-3253994D01*
X4795774Y-3261105D01*
X4795774Y-3268471D01*
X4792218Y-3275837D01*
X4784852Y-3286760D01*
X4748529Y-3323081D01*
X4799329Y-3323081D01*
X4845304Y-3246628D02*
G01*
X4834381Y-3250184D01*
X4827015Y-3261105D01*
X4823459Y-3279394D01*
X4823459Y-3290315D01*
X4827015Y-3308604D01*
X4834381Y-3319526D01*
X4845304Y-3323081D01*
X4852415Y-3323081D01*
X4863338Y-3319526D01*
X4870704Y-3308604D01*
X4874259Y-3290315D01*
X4874259Y-3279394D01*
X4870704Y-3261105D01*
X4863338Y-3250184D01*
X4852415Y-3246628D01*
X4845304Y-3246628D01*
X4938522Y-3632962D02*
G01*
X4902200Y-3728465D01*
X4938522Y-3632962D02*
G01*
X4974843Y-3728465D01*
X4915915Y-3696462D02*
G01*
X4961381Y-3696462D01*
X5073141Y-3655568D02*
G01*
X5068570Y-3646423D01*
X5059425Y-3637534D01*
X5050281Y-3632962D01*
X5032247Y-3632962D01*
X5023104Y-3637534D01*
X5013959Y-3646423D01*
X5009388Y-3655568D01*
X5004815Y-3669284D01*
X5004815Y-3691889D01*
X5009388Y-3705605D01*
X5013959Y-3714750D01*
X5023104Y-3723894D01*
X5032247Y-3728465D01*
X5050281Y-3728465D01*
X5059425Y-3723894D01*
X5068570Y-3714750D01*
X5073141Y-3705605D01*
X5134863Y-3632962D02*
G01*
X5134863Y-3728465D01*
X5103113Y-3632962D02*
G01*
X5166868Y-3632962D01*
G36*
X6249619Y-560425D02*
G01*
X6249619Y-590905D01*
X6279134Y-590905D01*
X6279134Y-560425D01*
G37*
G36*
X6090666Y-560425D02*
G01*
X6090666Y-590905D01*
X6120180Y-590905D01*
X6120180Y-560425D01*
G37*
G36*
X2802636Y-1106220D02*
G01*
X2802636Y-1136700D01*
X2837891Y-1136700D01*
X2837891Y-1106220D01*
G37*
G36*
X2927908Y-1106220D02*
G01*
X2927908Y-1136700D01*
X2963164Y-1136700D01*
X2963164Y-1106220D01*
G37*
X6271519Y-583283D02*
G01*
X6271519Y-864516D01*
X6271519Y-864516D02*
G01*
X6254719Y-864516D01*
X6098280Y-583283D02*
G01*
X6098280Y-864516D01*
X6098280Y-864516D02*
G01*
X6115080Y-864516D01*
X6271519Y-618970D02*
G01*
X6098280Y-618970D01*
X1720809Y-1276479D02*
G01*
X1720809Y-1140487D01*
X1504990Y-1140487D01*
X1504990Y-1276479D01*
X1720809Y-1466720D02*
G01*
X1720809Y-1602712D01*
X1504990Y-1602712D01*
X1504990Y-1466720D01*
X1669920Y-2203409D02*
G01*
X1805912Y-2203409D01*
X1805912Y-1987590D01*
X1669920Y-1987590D01*
X1479679Y-2203409D02*
G01*
X1343687Y-2203409D01*
X1343687Y-1987590D01*
X1479679Y-1987590D01*
D12*
X1956201Y-3115198D02*
G01*
X1956201Y-3965196D01*
X3276198Y-3965196D01*
X3276198Y-3115198D01*
X1956201Y-3115198D01*
X3621907Y-90764D02*
G01*
X3621907Y-138363D01*
X3621907Y-90764D02*
G01*
X3921907Y-90764D01*
X3921907Y-138363D01*
X3505207Y-141564D02*
G01*
X4035549Y-141564D01*
X4121906Y-443964D02*
G01*
X4121906Y-337954D01*
X3403607Y-446364D02*
G01*
X3403607Y-341787D01*
X3478796Y-443964D02*
G01*
X3421908Y-443964D01*
X3898795Y-443964D02*
G01*
X3645019Y-443964D01*
X4121906Y-443964D02*
G01*
X4065018Y-443964D01*
X6489700Y-1617299D02*
G01*
X6743700Y-1617299D01*
X6489700Y-2675300D02*
G01*
X6489700Y-1617299D01*
X6489700Y-2397947D02*
G01*
X6743700Y-2397947D01*
X6743700Y-2675300D02*
G01*
X6743700Y-1617299D01*
X6489700Y-2675300D02*
G01*
X6743700Y-2675300D01*
D11*
X4644880Y-3125660D02*
G01*
X4785880Y-3125660D01*
X4785880Y-2944939D02*
G01*
X4644880Y-2944939D01*
X4629640Y-2960179D02*
G01*
X4629640Y-3110420D01*
X5007119Y-3125660D02*
G01*
X4866119Y-3125660D01*
X4866119Y-2944939D02*
G01*
X5007119Y-2944939D01*
X5022359Y-2960179D02*
G01*
X5022359Y-3110420D01*
X5056060Y-2644919D02*
G01*
X5056060Y-2503919D01*
X4875339Y-2503919D02*
G01*
X4875339Y-2644919D01*
X4890579Y-2660159D02*
G01*
X5040820Y-2660159D01*
X5056060Y-2282680D02*
G01*
X5056060Y-2423680D01*
X4875339Y-2423680D02*
G01*
X4875339Y-2282680D01*
X4890579Y-2267440D02*
G01*
X5040820Y-2267440D01*
D13*
X292100Y-1333500D02*
G01*
X368300Y-1333500D01*
X292100Y-1612900D02*
G01*
X368300Y-1612900D01*
X393700Y-1511300D02*
G01*
X393700Y-1587500D01*
X266700Y-1511300D02*
G01*
X266700Y-1587500D01*
X393700Y-1435100D02*
G01*
X393700Y-1358900D01*
X266700Y-1435100D02*
G01*
X266700Y-1358900D01*
D12*
X5378597Y-2767901D02*
G01*
X5238600Y-2767901D01*
X5378597Y-2997903D02*
G01*
X5238600Y-2997903D01*
X5378597Y-2767901D02*
G01*
X5378597Y-2777091D01*
X5378597Y-2858706D02*
G01*
X5378597Y-2907093D01*
X5378597Y-2988706D02*
G01*
X5378597Y-2997903D01*
X5238600Y-2767901D02*
G01*
X5238600Y-2777086D01*
X5238600Y-2988713D02*
G01*
X5238600Y-2997903D01*
D11*
X6613519Y-809259D02*
G01*
X6742013Y-809259D01*
X6742013Y-625840D01*
X6613519Y-625840D01*
X6518280Y-809259D02*
G01*
X6389786Y-809259D01*
X6389786Y-625840D01*
X6518280Y-625840D01*
D12*
X60998Y-3547465D02*
G01*
X-183001Y-3547465D01*
X-183001Y-3689306D01*
X60998Y-3689306D01*
X60998Y-3280308D02*
G01*
X60998Y-3823307D01*
X247685Y-3213308D02*
G01*
X162808Y-3213308D01*
X343997Y-3246064D02*
G01*
X343997Y-3231421D01*
X343997Y-3546063D02*
G01*
X343997Y-3380552D01*
X343997Y-3696063D02*
G01*
X343997Y-3680551D01*
X343997Y-3855191D02*
G01*
X343997Y-3830551D01*
X162808Y-3873306D02*
G01*
X247685Y-3873306D01*
D11*
X4449521Y-2885460D02*
G01*
X4545408Y-2885460D01*
X4545408Y-2753339D01*
X4449521Y-2753339D01*
X4364278Y-2885460D02*
G01*
X4268391Y-2885460D01*
X4268391Y-2753339D01*
X4364278Y-2753339D01*
X4364278Y-2956539D02*
G01*
X4268391Y-2956539D01*
X4268391Y-3088660D01*
X4364278Y-3088660D01*
X4449521Y-2956539D02*
G01*
X4545408Y-2956539D01*
X4545408Y-3088660D01*
X4449521Y-3088660D01*
X4364278Y-2308839D02*
G01*
X4268391Y-2308839D01*
X4268391Y-2440960D01*
X4364278Y-2440960D01*
X4449521Y-2308839D02*
G01*
X4545408Y-2308839D01*
X4545408Y-2440960D01*
X4449521Y-2440960D01*
X4364278Y-2537439D02*
G01*
X4268391Y-2537439D01*
X4268391Y-2669560D01*
X4364278Y-2669560D01*
X4449521Y-2537439D02*
G01*
X4545408Y-2537439D01*
X4545408Y-2669560D01*
X4449521Y-2669560D01*
D12*
X2514602Y-1676397D02*
G01*
X2438402Y-1752597D01*
X2438402Y-1612897D01*
X2438402Y-1600197D01*
X2451102Y-1612897D01*
X2514602Y-1676397D01*
X2159002Y-1612897D02*
G01*
X2159002Y-1485897D01*
X2222502Y-1549397D02*
G01*
X2095502Y-1549397D01*
X1892302Y-1474508D02*
G01*
X1892302Y-1878284D01*
X2476502Y-1295397D02*
G01*
X2070102Y-1295397D01*
X2654302Y-1879597D02*
G01*
X2654302Y-1485897D01*
X2070102Y-2057397D02*
G01*
X2476502Y-2057397D01*
X1143002Y-991186D02*
G01*
X1143002Y-507413D01*
X770387Y-1155700D02*
G01*
X381002Y-1155700D01*
X381002Y-1066800D01*
X533402Y-1066800D01*
X533402Y-927100D01*
X533402Y-576186D02*
G01*
X533402Y-431800D01*
X381002Y-431800D01*
X381002Y-342900D01*
X770387Y-342900D01*
D13*
X2955521Y-938575D02*
G01*
X2934898Y-938575D01*
X2810278Y-938575D02*
G01*
X2829900Y-938575D01*
D11*
X2810278Y-1113820D02*
G01*
X2810278Y-938575D01*
X2955521Y-1113820D02*
G01*
X2955521Y-938575D01*
X2810278Y-1073376D02*
G01*
X2955521Y-1073376D01*
D12*
X2965599Y-1778099D02*
G01*
X2965599Y-1864499D01*
X2965599Y-1864499D02*
G01*
X2865597Y-1864499D01*
X2825600Y-1683103D02*
G01*
X2825600Y-1745896D01*
X2965599Y-1564500D02*
G01*
X2965599Y-1650900D01*
X2965599Y-1564500D02*
G01*
X2865597Y-1564500D01*
X5904801Y-3846222D02*
G01*
X5904801Y-3926225D01*
X5793826Y-3815237D02*
G01*
X5873823Y-3815237D01*
X5793826Y-3957203D02*
G01*
X5873823Y-3957203D01*
X5736236Y-3814655D02*
G01*
X5656237Y-3814655D01*
X5625254Y-3845638D02*
G01*
X5625254Y-3925636D01*
X5736236Y-3956616D02*
G01*
X5656237Y-3956616D01*
D14*
X1059848Y-3444692D02*
G01*
X1059848Y-3443696D01*
X1092852Y-3410691D01*
X1127851Y-3444692D02*
G01*
X1126853Y-3444692D01*
X1092852Y-3410691D01*
X1127851Y-3444692D02*
G01*
X1059848Y-3444692D01*
X1167858Y-3446696D02*
G01*
X1167858Y-3561697D01*
X1017846Y-3446696D02*
G01*
X1017846Y-3561697D01*
X1167848Y-3561697D02*
G01*
X1019855Y-3561697D01*
X1017615Y-3408695D02*
G01*
X1017615Y-3303684D01*
X1057622Y-3273689D02*
G01*
X1047620Y-3273689D01*
X1017615Y-3303684D01*
X1127617Y-3273689D02*
G01*
X1057622Y-3273689D01*
X1127617Y-3273689D02*
G01*
X1137632Y-3273689D01*
X1167627Y-3303684D01*
X1167627Y-3408695D02*
G01*
X1167627Y-3303684D01*
X1092852Y-3444692D02*
G01*
X1092852Y-3410691D01*
D12*
X1243901Y-1534822D02*
G01*
X1243901Y-1614825D01*
X1132926Y-1503837D02*
G01*
X1212923Y-1503837D01*
X1132926Y-1645803D02*
G01*
X1212923Y-1645803D01*
X1075336Y-1503255D02*
G01*
X995337Y-1503255D01*
X964354Y-1534238D02*
G01*
X964354Y-1614236D01*
X1075336Y-1645216D02*
G01*
X995337Y-1645216D01*
X1282001Y-2068222D02*
G01*
X1282001Y-2148225D01*
X1171026Y-2037237D02*
G01*
X1251023Y-2037237D01*
X1171026Y-2179203D02*
G01*
X1251023Y-2179203D01*
X1113436Y-2036655D02*
G01*
X1033437Y-2036655D01*
X1002454Y-2067638D02*
G01*
X1002454Y-2147636D01*
X1113436Y-2178616D02*
G01*
X1033437Y-2178616D01*
D11*
X4969019Y-557339D02*
G01*
X4828019Y-557339D01*
X4828019Y-738060D02*
G01*
X4969019Y-738060D01*
X4984259Y-722820D02*
G01*
X4984259Y-572579D01*
X4606780Y-557339D02*
G01*
X4747780Y-557339D01*
X4747780Y-738060D02*
G01*
X4606780Y-738060D01*
X4591540Y-722820D02*
G01*
X4591540Y-572579D01*
X5515119Y-760539D02*
G01*
X5374119Y-760539D01*
X5374119Y-941260D02*
G01*
X5515119Y-941260D01*
X5530359Y-926020D02*
G01*
X5530359Y-775779D01*
X5152880Y-760539D02*
G01*
X5293880Y-760539D01*
X5293880Y-941260D02*
G01*
X5152880Y-941260D01*
X5137640Y-926020D02*
G01*
X5137640Y-775779D01*
X5997719Y-544639D02*
G01*
X5856719Y-544639D01*
X5856719Y-725360D02*
G01*
X5997719Y-725360D01*
X6012959Y-710120D02*
G01*
X6012959Y-559879D01*
X5635480Y-544639D02*
G01*
X5776480Y-544639D01*
X5776480Y-725360D02*
G01*
X5635480Y-725360D01*
X5620240Y-710120D02*
G01*
X5620240Y-559879D01*
D12*
X4888801Y-849022D02*
G01*
X4888801Y-929025D01*
X4777826Y-818037D02*
G01*
X4857823Y-818037D01*
X4777826Y-960003D02*
G01*
X4857823Y-960003D01*
X4720236Y-817455D02*
G01*
X4640237Y-817455D01*
X4609254Y-848438D02*
G01*
X4609254Y-928436D01*
X4720236Y-959416D02*
G01*
X4640237Y-959416D01*
X3751107Y-2248598D02*
G01*
X3831109Y-2248598D01*
X3720122Y-2359573D02*
G01*
X3720122Y-2279576D01*
X3862087Y-2359573D02*
G01*
X3862087Y-2279576D01*
X3719540Y-2417163D02*
G01*
X3719540Y-2497162D01*
X3750523Y-2528145D02*
G01*
X3830520Y-2528145D01*
X3861501Y-2417163D02*
G01*
X3861501Y-2497162D01*
X699198Y-3113377D02*
G01*
X699198Y-3033374D01*
X810173Y-3144362D02*
G01*
X730176Y-3144362D01*
X810173Y-3002396D02*
G01*
X730176Y-3002396D01*
X867763Y-3144944D02*
G01*
X947762Y-3144944D01*
X978745Y-3113961D02*
G01*
X978745Y-3033963D01*
X867763Y-3002983D02*
G01*
X947762Y-3002983D01*
X3503322Y-2248598D02*
G01*
X3583325Y-2248598D01*
X3472337Y-2359573D02*
G01*
X3472337Y-2279576D01*
X3614303Y-2359573D02*
G01*
X3614303Y-2279576D01*
X3471755Y-2417163D02*
G01*
X3471755Y-2497162D01*
X3502738Y-2528145D02*
G01*
X3582736Y-2528145D01*
X3613716Y-2417163D02*
G01*
X3613716Y-2497162D01*
X699198Y-2567277D02*
G01*
X699198Y-2487274D01*
X810173Y-2598262D02*
G01*
X730176Y-2598262D01*
X810173Y-2456296D02*
G01*
X730176Y-2456296D01*
X867763Y-2598844D02*
G01*
X947762Y-2598844D01*
X978745Y-2567861D02*
G01*
X978745Y-2487863D01*
X867763Y-2456883D02*
G01*
X947762Y-2456883D01*
X977201Y-2760911D02*
G01*
X977201Y-2840913D01*
X866226Y-2729925D02*
G01*
X946223Y-2729925D01*
X866226Y-2871891D02*
G01*
X946223Y-2871891D01*
X808636Y-2729344D02*
G01*
X728637Y-2729344D01*
X697654Y-2760327D02*
G01*
X697654Y-2840324D01*
X808636Y-2871304D02*
G01*
X728637Y-2871304D01*
X4078307Y-2528150D02*
G01*
X3998305Y-2528150D01*
X4109293Y-2417175D02*
G01*
X4109293Y-2497173D01*
X3967327Y-2417175D02*
G01*
X3967327Y-2497173D01*
X4109874Y-2359586D02*
G01*
X4109874Y-2279586D01*
X4078892Y-2248603D02*
G01*
X3998894Y-2248603D01*
X3967914Y-2359586D02*
G01*
X3967914Y-2279586D01*
X1729077Y-3822001D02*
G01*
X1649074Y-3822001D01*
X1760062Y-3711026D02*
G01*
X1760062Y-3791023D01*
X1618096Y-3711026D02*
G01*
X1618096Y-3791023D01*
X1760644Y-3653436D02*
G01*
X1760644Y-3573437D01*
X1729661Y-3542454D02*
G01*
X1649663Y-3542454D01*
X1618683Y-3653436D02*
G01*
X1618683Y-3573437D01*
X4966398Y-1208377D02*
G01*
X4966398Y-1128374D01*
X5077373Y-1239362D02*
G01*
X4997376Y-1239362D01*
X5077373Y-1097396D02*
G01*
X4997376Y-1097396D01*
X5134963Y-1239944D02*
G01*
X5214962Y-1239944D01*
X5245945Y-1208961D02*
G01*
X5245945Y-1128963D01*
X5134963Y-1097983D02*
G01*
X5214962Y-1097983D01*
X1729077Y-3479101D02*
G01*
X1649074Y-3479101D01*
X1760062Y-3368126D02*
G01*
X1760062Y-3448123D01*
X1618096Y-3368126D02*
G01*
X1618096Y-3448123D01*
X1760644Y-3310536D02*
G01*
X1760644Y-3230537D01*
X1729661Y-3199554D02*
G01*
X1649663Y-3199554D01*
X1618683Y-3310536D02*
G01*
X1618683Y-3230537D01*
X6793801Y-1369722D02*
G01*
X6793801Y-1449725D01*
X6682826Y-1338737D02*
G01*
X6762823Y-1338737D01*
X6682826Y-1480703D02*
G01*
X6762823Y-1480703D01*
X6625236Y-1338155D02*
G01*
X6545237Y-1338155D01*
X6514254Y-1369138D02*
G01*
X6514254Y-1449136D01*
X6625236Y-1480116D02*
G01*
X6545237Y-1480116D01*
X4900322Y-1727898D02*
G01*
X4980325Y-1727898D01*
X4869337Y-1838873D02*
G01*
X4869337Y-1758876D01*
X5011303Y-1838873D02*
G01*
X5011303Y-1758876D01*
X4868755Y-1896463D02*
G01*
X4868755Y-1976462D01*
X4899738Y-2007445D02*
G01*
X4979736Y-2007445D01*
X5010716Y-1896463D02*
G01*
X5010716Y-1976462D01*
X4671722Y-1727898D02*
G01*
X4751725Y-1727898D01*
X4640737Y-1838873D02*
G01*
X4640737Y-1758876D01*
X4782703Y-1838873D02*
G01*
X4782703Y-1758876D01*
X4640155Y-1896463D02*
G01*
X4640155Y-1976462D01*
X4671138Y-2007445D02*
G01*
X4751136Y-2007445D01*
X4782116Y-1896463D02*
G01*
X4782116Y-1976462D01*
X3339401Y-887122D02*
G01*
X3339401Y-967125D01*
X3228426Y-856137D02*
G01*
X3308423Y-856137D01*
X3228426Y-998103D02*
G01*
X3308423Y-998103D01*
X3170836Y-855555D02*
G01*
X3090837Y-855555D01*
X3059854Y-886538D02*
G01*
X3059854Y-966536D01*
X3170836Y-997516D02*
G01*
X3090837Y-997516D01*
X3453701Y-1865022D02*
G01*
X3453701Y-1945025D01*
X3342726Y-1834037D02*
G01*
X3422723Y-1834037D01*
X3342726Y-1976003D02*
G01*
X3422723Y-1976003D01*
X3285136Y-1833455D02*
G01*
X3205137Y-1833455D01*
X3174154Y-1864438D02*
G01*
X3174154Y-1944436D01*
X3285136Y-1975416D02*
G01*
X3205137Y-1975416D01*
X4443122Y-1727898D02*
G01*
X4523125Y-1727898D01*
X4412137Y-1838873D02*
G01*
X4412137Y-1758876D01*
X4554103Y-1838873D02*
G01*
X4554103Y-1758876D01*
X4411555Y-1896463D02*
G01*
X4411555Y-1976462D01*
X4442538Y-2007445D02*
G01*
X4522536Y-2007445D01*
X4553516Y-1896463D02*
G01*
X4553516Y-1976462D01*
D11*
X5651720Y-3413269D02*
G01*
X5651720Y-3241530D01*
X5548558Y-3241530D01*
X5346479Y-3413269D02*
G01*
X5346479Y-3241530D01*
X5449641Y-3241530D01*
X5544639Y-3413269D02*
G01*
X5453560Y-3413269D01*
X6651769Y-2755679D02*
G01*
X6480030Y-2755679D01*
X6480030Y-2858841D01*
X6651769Y-3060920D02*
G01*
X6480030Y-3060920D01*
X6480030Y-2957758D01*
X6651769Y-2862760D02*
G01*
X6651769Y-2953839D01*
D14*
X5653001Y-1012200D02*
G01*
X5632381Y-1012200D01*
X5632381Y-1427444D01*
X5652000Y-1427200D01*
X6031999Y-1426199D02*
G01*
X6051550Y-1426210D01*
X6051550Y-1010920D01*
X6030000Y-1011199D01*
D13*
X5370464Y-1041232D02*
G01*
X5370464Y-1117432D01*
X5370464Y-1294234D02*
G01*
X5370464Y-1218034D01*
X5502584Y-1294234D02*
G01*
X5502584Y-1218034D01*
D11*
X5502584Y-1294234D02*
G01*
X5487342Y-1309463D01*
X5385699Y-1309463D01*
X5370464Y-1294234D01*
D13*
X5502584Y-1041232D02*
G01*
X5502584Y-1117432D01*
D11*
X5370464Y-1041232D02*
G01*
X5385699Y-1025989D01*
X5487342Y-1025989D01*
X5502584Y-1041232D01*
D13*
X1284335Y-2832267D02*
G01*
X1284335Y-2756067D01*
X1284335Y-2579265D02*
G01*
X1284335Y-2655465D01*
X1152215Y-2579265D02*
G01*
X1152215Y-2655465D01*
D11*
X1152215Y-2579265D02*
G01*
X1167457Y-2564036D01*
X1269100Y-2564036D01*
X1284335Y-2579265D01*
D13*
X1152215Y-2832267D02*
G01*
X1152215Y-2756067D01*
D11*
X1284335Y-2832267D02*
G01*
X1269100Y-2847510D01*
X1167457Y-2847510D01*
X1152215Y-2832267D01*
D13*
X5765632Y-916035D02*
G01*
X5841832Y-916035D01*
X6018634Y-916035D02*
G01*
X5942434Y-916035D01*
X6018634Y-783915D02*
G01*
X5942434Y-783915D01*
D11*
X6018634Y-783915D02*
G01*
X6033863Y-799157D01*
X6033863Y-900800D01*
X6018634Y-916035D01*
D13*
X5765632Y-783915D02*
G01*
X5841832Y-783915D01*
D11*
X5765632Y-916035D02*
G01*
X5750389Y-900800D01*
X5750389Y-799157D01*
X5765632Y-783915D01*
D12*
X3727599Y-3873599D02*
G01*
X3727599Y-3959999D01*
X3727599Y-3959999D02*
G01*
X3627597Y-3959999D01*
X3587600Y-3778603D02*
G01*
X3587600Y-3841396D01*
X3727599Y-3660000D02*
G01*
X3727599Y-3746400D01*
X3727599Y-3660000D02*
G01*
X3627597Y-3660000D01*
D11*
X3908021Y-1663479D02*
G01*
X3762778Y-1663479D01*
X3762778Y-1766641D01*
X3908021Y-1968720D02*
G01*
X3762778Y-1968720D01*
X3762778Y-1865558D01*
X3908021Y-1770560D02*
G01*
X3908021Y-1861639D01*
X4140420Y-1253721D02*
G01*
X4140420Y-1108478D01*
X4037258Y-1108478D01*
X3835179Y-1253721D02*
G01*
X3835179Y-1108478D01*
X3938341Y-1108478D01*
X4033339Y-1253721D02*
G01*
X3942260Y-1253721D01*
X508220Y-2612621D02*
G01*
X508220Y-2467378D01*
X405058Y-2467378D01*
X202979Y-2612621D02*
G01*
X202979Y-2467378D01*
X306141Y-2467378D01*
X401139Y-2612621D02*
G01*
X310060Y-2612621D01*
X5452821Y-3964960D02*
G01*
X5548708Y-3964960D01*
X5548708Y-3832839D01*
X5452821Y-3832839D01*
X5367578Y-3964960D02*
G01*
X5271691Y-3964960D01*
X5271691Y-3832839D01*
X5367578Y-3832839D01*
X5641360Y-2510078D02*
G01*
X5641360Y-2414191D01*
X5509239Y-2414191D01*
X5509239Y-2510078D01*
X5641360Y-2595321D02*
G01*
X5641360Y-2691208D01*
X5509239Y-2691208D01*
X5509239Y-2595321D01*
X6659321Y-3291860D02*
G01*
X6755208Y-3291860D01*
X6755208Y-3159739D01*
X6659321Y-3159739D01*
X6574078Y-3291860D02*
G01*
X6478191Y-3291860D01*
X6478191Y-3159739D01*
X6574078Y-3159739D01*
X6574078Y-3388339D02*
G01*
X6478191Y-3388339D01*
X6478191Y-3520460D01*
X6574078Y-3520460D01*
X6659321Y-3388339D02*
G01*
X6755208Y-3388339D01*
X6755208Y-3520460D01*
X6659321Y-3520460D01*
X6574078Y-3845539D02*
G01*
X6478191Y-3845539D01*
X6478191Y-3977660D01*
X6574078Y-3977660D01*
X6659321Y-3845539D02*
G01*
X6755208Y-3845539D01*
X6755208Y-3977660D01*
X6659321Y-3977660D01*
X6659321Y-3749060D02*
G01*
X6755208Y-3749060D01*
X6755208Y-3616939D01*
X6659321Y-3616939D01*
X6574078Y-3749060D02*
G01*
X6478191Y-3749060D01*
X6478191Y-3616939D01*
X6574078Y-3616939D01*
X4919421Y-1640860D02*
G01*
X5015308Y-1640860D01*
X5015308Y-1508739D01*
X4919421Y-1508739D01*
X4834178Y-1640860D02*
G01*
X4738291Y-1640860D01*
X4738291Y-1508739D01*
X4834178Y-1508739D01*
X4589221Y-1640860D02*
G01*
X4685108Y-1640860D01*
X4685108Y-1508739D01*
X4589221Y-1508739D01*
X4503978Y-1640860D02*
G01*
X4408091Y-1640860D01*
X4408091Y-1508739D01*
X4503978Y-1508739D01*
X4373321Y-3456960D02*
G01*
X4469208Y-3456960D01*
X4469208Y-3324839D01*
X4373321Y-3324839D01*
X4288078Y-3456960D02*
G01*
X4192191Y-3456960D01*
X4192191Y-3324839D01*
X4288078Y-3324839D01*
X6523278Y-899139D02*
G01*
X6427391Y-899139D01*
X6427391Y-1031260D01*
X6523278Y-1031260D01*
X6608521Y-899139D02*
G01*
X6704408Y-899139D01*
X6704408Y-1031260D01*
X6608521Y-1031260D01*
X1526560Y-3513378D02*
G01*
X1526560Y-3417491D01*
X1394439Y-3417491D01*
X1394439Y-3513378D01*
X1526560Y-3598621D02*
G01*
X1526560Y-3694508D01*
X1394439Y-3694508D01*
X1394439Y-3598621D01*
X1354378Y-1686539D02*
G01*
X1258491Y-1686539D01*
X1258491Y-1818660D01*
X1354378Y-1818660D01*
X1439621Y-1686539D02*
G01*
X1535508Y-1686539D01*
X1535508Y-1818660D01*
X1439621Y-1818660D01*
X5687039Y-2773121D02*
G01*
X5687039Y-2869008D01*
X5819160Y-2869008D01*
X5819160Y-2773121D01*
X5687039Y-2687878D02*
G01*
X5687039Y-2591991D01*
X5819160Y-2591991D01*
X5819160Y-2687878D01*
X6535978Y-403839D02*
G01*
X6440091Y-403839D01*
X6440091Y-535960D01*
X6535978Y-535960D01*
X6621221Y-403839D02*
G01*
X6717108Y-403839D01*
X6717108Y-535960D01*
X6621221Y-535960D01*
X5681421Y-3736360D02*
G01*
X5777308Y-3736360D01*
X5777308Y-3604239D01*
X5681421Y-3604239D01*
X5596178Y-3736360D02*
G01*
X5500291Y-3736360D01*
X5500291Y-3604239D01*
X5596178Y-3604239D01*
X5837478Y-3413739D02*
G01*
X5741591Y-3413739D01*
X5741591Y-3545860D01*
X5837478Y-3545860D01*
X5922721Y-3413739D02*
G01*
X6018608Y-3413739D01*
X6018608Y-3545860D01*
X5922721Y-3545860D01*
X5824778Y-3108939D02*
G01*
X5728891Y-3108939D01*
X5728891Y-3241060D01*
X5824778Y-3241060D01*
X5910021Y-3108939D02*
G01*
X6005908Y-3108939D01*
X6005908Y-3241060D01*
X5910021Y-3241060D01*
X5440121Y-688360D02*
G01*
X5536008Y-688360D01*
X5536008Y-556239D01*
X5440121Y-556239D01*
X5354878Y-688360D02*
G01*
X5258991Y-688360D01*
X5258991Y-556239D01*
X5354878Y-556239D01*
X4257060Y-1836978D02*
G01*
X4257060Y-1741091D01*
X4124939Y-1741091D01*
X4124939Y-1836978D01*
X4257060Y-1922221D02*
G01*
X4257060Y-2018108D01*
X4124939Y-2018108D01*
X4124939Y-1922221D01*
X3589578Y-1445239D02*
G01*
X3493691Y-1445239D01*
X3493691Y-1577360D01*
X3589578Y-1577360D01*
X3674821Y-1445239D02*
G01*
X3770708Y-1445239D01*
X3770708Y-1577360D01*
X3674821Y-1577360D01*
X4226539Y-1223721D02*
G01*
X4226539Y-1319608D01*
X4358660Y-1319608D01*
X4358660Y-1223721D01*
X4226539Y-1138478D02*
G01*
X4226539Y-1042591D01*
X4358660Y-1042591D01*
X4358660Y-1138478D01*
X213339Y-1896821D02*
G01*
X213339Y-1992708D01*
X345460Y-1992708D01*
X345460Y-1896821D01*
X213339Y-1811578D02*
G01*
X213339Y-1715691D01*
X345460Y-1715691D01*
X345460Y-1811578D01*
X403839Y-1896821D02*
G01*
X403839Y-1992708D01*
X535960Y-1992708D01*
X535960Y-1896821D01*
X403839Y-1811578D02*
G01*
X403839Y-1715691D01*
X535960Y-1715691D01*
X535960Y-1811578D01*
X3589578Y-1280139D02*
G01*
X3493691Y-1280139D01*
X3493691Y-1412260D01*
X3589578Y-1412260D01*
X3674821Y-1280139D02*
G01*
X3770708Y-1280139D01*
X3770708Y-1412260D01*
X3674821Y-1412260D01*
X1690319Y-2627607D02*
G01*
X1690319Y-2452367D01*
X1586158Y-2452367D01*
X1383080Y-2627607D02*
G01*
X1383080Y-2452367D01*
X1487241Y-2452367D01*
X1582239Y-2627607D02*
G01*
X1491160Y-2627607D01*
X6402019Y-3821407D02*
G01*
X6402019Y-3646167D01*
X6297858Y-3646167D01*
X6094780Y-3821407D02*
G01*
X6094780Y-3646167D01*
X6198941Y-3646167D01*
X6293939Y-3821407D02*
G01*
X6202860Y-3821407D01*
D12*
X4037500Y-3616909D02*
G01*
X4217502Y-3616909D01*
X4037500Y-3926911D02*
G01*
X4217502Y-3926911D01*
X4482000Y-3616909D02*
G01*
X4662002Y-3616909D01*
X4482000Y-3926911D02*
G01*
X4662002Y-3926911D01*
X6068009Y-3315799D02*
G01*
X6068009Y-3135797D01*
X6378011Y-3315799D02*
G01*
X6378011Y-3135797D01*
D11*
X6427718Y-1295420D02*
G01*
X6427718Y-1117579D01*
X6119881Y-1295420D02*
G01*
X6119881Y-1117579D01*
X3102579Y-1180879D02*
G01*
X3272820Y-1180879D01*
X3102579Y-1486120D02*
G01*
X3272820Y-1486120D01*
X3272820Y-1381140D02*
G01*
X3272820Y-1285859D01*
D12*
X657809Y-2007699D02*
G01*
X657809Y-1827697D01*
X967811Y-2007699D02*
G01*
X967811Y-1827697D01*
D11*
X5084521Y-3355360D02*
G01*
X5180408Y-3355360D01*
X5180408Y-3223239D01*
X5084521Y-3223239D01*
X4999278Y-3355360D02*
G01*
X4903391Y-3355360D01*
X4903391Y-3223239D01*
X4999278Y-3223239D01*
D14*
X5019857Y-3498248D02*
G01*
X5020853Y-3498248D01*
X5053858Y-3531252D01*
X5019857Y-3566251D02*
G01*
X5019857Y-3565253D01*
X5053858Y-3531252D01*
X5019857Y-3566251D02*
G01*
X5019857Y-3498248D01*
X5017853Y-3606258D02*
G01*
X4902852Y-3606258D01*
X5017853Y-3456246D02*
G01*
X4902852Y-3456246D01*
X4902852Y-3606248D02*
G01*
X4902852Y-3458255D01*
X5055854Y-3456015D02*
G01*
X5160865Y-3456015D01*
X5190860Y-3496022D02*
G01*
X5190860Y-3486020D01*
X5160865Y-3456015D01*
X5190860Y-3566017D02*
G01*
X5190860Y-3496022D01*
X5190860Y-3566017D02*
G01*
X5190860Y-3576032D01*
X5160865Y-3606027D01*
X5055854Y-3606027D02*
G01*
X5160865Y-3606027D01*
X5019857Y-3531252D02*
G01*
X5053858Y-3531252D01*
D11*
G75*
G01*
X4644880Y-2944940D02*
G03*
X4629640Y-2960180I0J-15240D01*
G75*
G01*
X4629640Y-3110420D02*
G03*
X4644880Y-3125660I15240J0D01*
G75*
G01*
X5007120Y-2944940D02*
G02*
X5022360Y-2960180I0J-15240D01*
G75*
G01*
X5022360Y-3110420D02*
G02*
X5007120Y-3125660I-15240J0D01*
G75*
G01*
X4875340Y-2644920D02*
G03*
X4890579Y-2660160I15240J0D01*
G75*
G01*
X5040821Y-2660160D02*
G03*
X5056060Y-2644920I-1J15240D01*
G75*
G01*
X4875340Y-2282680D02*
G02*
X4890579Y-2267440I15240J0D01*
G75*
G01*
X5040821Y-2267440D02*
G02*
X5056060Y-2282680I-1J-15240D01*
D13*
G75*
G01*
X336550Y-1476375D02*
G02*
X292100Y-1460500I-20513J12732D01*
G75*
G01*
X336550Y-1476286D02*
G02*
X381000Y-1485900I21628J-7565D01*
D12*
G75*
G01*
X5625249Y-3845639D02*
G02*
X5656232Y-3814656I30983J0D01*
G75*
G01*
X5656232Y-3956622D02*
G02*
X5625249Y-3925636I0J30983D01*
G75*
G01*
X5873819Y-3815237D02*
G02*
X5904801Y-3846223I0J-30983D01*
G75*
G01*
X5904801Y-3926220D02*
G02*
X5873819Y-3957203I-30982J0D01*
G75*
G01*
X964349Y-1534239D02*
G02*
X995332Y-1503256I30983J0D01*
G75*
G01*
X995332Y-1645222D02*
G02*
X964349Y-1614236I0J30983D01*
G75*
G01*
X1212919Y-1503837D02*
G02*
X1243901Y-1534823I0J-30983D01*
G75*
G01*
X1243901Y-1614820D02*
G02*
X1212919Y-1645803I-30982J0D01*
G75*
G01*
X1002449Y-2067639D02*
G02*
X1033432Y-2036656I30983J0D01*
G75*
G01*
X1033432Y-2178622D02*
G02*
X1002449Y-2147636I0J30983D01*
G75*
G01*
X1251019Y-2037237D02*
G02*
X1282001Y-2068223I0J-30983D01*
G75*
G01*
X1282001Y-2148220D02*
G02*
X1251019Y-2179203I-30982J0D01*
D11*
G75*
G01*
X4969020Y-738060D02*
G03*
X4984260Y-722820I0J15240D01*
G75*
G01*
X4984260Y-572580D02*
G03*
X4969020Y-557340I-15240J0D01*
G75*
G01*
X4606780Y-738060D02*
G02*
X4591540Y-722820I0J15240D01*
G75*
G01*
X4591540Y-572580D02*
G02*
X4606780Y-557340I15240J0D01*
G75*
G01*
X5515120Y-941260D02*
G03*
X5530360Y-926020I0J15240D01*
G75*
G01*
X5530360Y-775780D02*
G03*
X5515120Y-760540I-15240J0D01*
G75*
G01*
X5152880Y-941260D02*
G02*
X5137640Y-926020I0J15240D01*
G75*
G01*
X5137640Y-775780D02*
G02*
X5152880Y-760540I15240J0D01*
G75*
G01*
X5997720Y-725360D02*
G03*
X6012960Y-710120I0J15240D01*
G75*
G01*
X6012960Y-559880D02*
G03*
X5997720Y-544640I-15240J0D01*
G75*
G01*
X5635480Y-725360D02*
G02*
X5620240Y-710120I0J15240D01*
G75*
G01*
X5620240Y-559880D02*
G02*
X5635480Y-544640I15240J0D01*
D12*
G75*
G01*
X4609249Y-848439D02*
G02*
X4640232Y-817456I30983J0D01*
G75*
G01*
X4640232Y-959422D02*
G02*
X4609249Y-928436I0J30983D01*
G75*
G01*
X4857819Y-818037D02*
G02*
X4888801Y-849023I0J-30983D01*
G75*
G01*
X4888801Y-929020D02*
G02*
X4857819Y-960003I-30982J0D01*
G75*
G01*
X3750523Y-2528151D02*
G02*
X3719540Y-2497168I0J30983D01*
G75*
G01*
X3861506Y-2497168D02*
G02*
X3830521Y-2528151I-30983J0D01*
G75*
G01*
X3720122Y-2279581D02*
G02*
X3751108Y-2248599I30983J0D01*
G75*
G01*
X3831105Y-2248599D02*
G02*
X3862088Y-2279581I0J-30982D01*
G75*
G01*
X978751Y-3113961D02*
G02*
X947768Y-3144944I-30983J0D01*
G75*
G01*
X947768Y-3002978D02*
G02*
X978751Y-3033964I0J-30983D01*
G75*
G01*
X730181Y-3144363D02*
G02*
X699199Y-3113377I0J30983D01*
G75*
G01*
X699199Y-3033380D02*
G02*
X730181Y-3002397I30982J0D01*
G75*
G01*
X3502739Y-2528151D02*
G02*
X3471756Y-2497168I0J30983D01*
G75*
G01*
X3613722Y-2497168D02*
G02*
X3582736Y-2528151I-30983J0D01*
G75*
G01*
X3472337Y-2279581D02*
G02*
X3503323Y-2248599I30983J0D01*
G75*
G01*
X3583320Y-2248599D02*
G02*
X3614303Y-2279581I0J-30982D01*
G75*
G01*
X978751Y-2567861D02*
G02*
X947768Y-2598844I-30983J0D01*
G75*
G01*
X947768Y-2456878D02*
G02*
X978751Y-2487864I0J-30983D01*
G75*
G01*
X730181Y-2598263D02*
G02*
X699199Y-2567277I0J30983D01*
G75*
G01*
X699199Y-2487280D02*
G02*
X730181Y-2456297I30982J0D01*
G75*
G01*
X697649Y-2760327D02*
G02*
X728632Y-2729344I30983J0D01*
G75*
G01*
X728632Y-2871310D02*
G02*
X697649Y-2840325I0J30983D01*
G75*
G01*
X946219Y-2729926D02*
G02*
X977201Y-2760911I0J-30983D01*
G75*
G01*
X977201Y-2840909D02*
G02*
X946219Y-2871892I-30982J0D01*
G75*
G01*
X4078892Y-2248599D02*
G02*
X4109875Y-2279581I0J-30982D01*
G75*
G01*
X3967909Y-2279581D02*
G02*
X3998895Y-2248599I30983J0D01*
G75*
G01*
X4109293Y-2497168D02*
G02*
X4078308Y-2528151I-30983J0D01*
G75*
G01*
X3998311Y-2528151D02*
G02*
X3967328Y-2497168I0J30983D01*
G75*
G01*
X1729661Y-3542449D02*
G02*
X1760644Y-3573432I0J-30983D01*
G75*
G01*
X1618678Y-3573432D02*
G02*
X1649664Y-3542449I30983J0D01*
G75*
G01*
X1760063Y-3791019D02*
G02*
X1729077Y-3822001I-30983J0D01*
G75*
G01*
X1649080Y-3822001D02*
G02*
X1618097Y-3791019I0J30982D01*
G75*
G01*
X5245951Y-1208961D02*
G02*
X5214968Y-1239944I-30983J0D01*
G75*
G01*
X5214968Y-1097978D02*
G02*
X5245951Y-1128964I0J-30983D01*
G75*
G01*
X4997381Y-1239363D02*
G02*
X4966399Y-1208377I0J30983D01*
G75*
G01*
X4966399Y-1128380D02*
G02*
X4997381Y-1097397I30982J0D01*
G75*
G01*
X1729661Y-3199549D02*
G02*
X1760644Y-3230532I0J-30983D01*
G75*
G01*
X1618678Y-3230532D02*
G02*
X1649664Y-3199549I30983J0D01*
G75*
G01*
X1760063Y-3448119D02*
G02*
X1729077Y-3479101I-30983J0D01*
G75*
G01*
X1649080Y-3479101D02*
G02*
X1618097Y-3448119I0J30982D01*
G75*
G01*
X6514249Y-1369139D02*
G02*
X6545232Y-1338156I30983J0D01*
G75*
G01*
X6545232Y-1480122D02*
G02*
X6514249Y-1449136I0J30983D01*
G75*
G01*
X6762819Y-1338737D02*
G02*
X6793801Y-1369723I0J-30983D01*
G75*
G01*
X6793801Y-1449720D02*
G02*
X6762819Y-1480703I-30982J0D01*
G75*
G01*
X4899739Y-2007451D02*
G02*
X4868756Y-1976468I0J30983D01*
G75*
G01*
X5010722Y-1976468D02*
G02*
X4979736Y-2007451I-30983J0D01*
G75*
G01*
X4869337Y-1758881D02*
G02*
X4900323Y-1727899I30983J0D01*
G75*
G01*
X4980320Y-1727899D02*
G02*
X5011303Y-1758881I0J-30982D01*
G75*
G01*
X4671139Y-2007451D02*
G02*
X4640156Y-1976468I0J30983D01*
G75*
G01*
X4782122Y-1976468D02*
G02*
X4751136Y-2007451I-30983J0D01*
G75*
G01*
X4640737Y-1758881D02*
G02*
X4671723Y-1727899I30983J0D01*
G75*
G01*
X4751720Y-1727899D02*
G02*
X4782703Y-1758881I0J-30982D01*
G75*
G01*
X3059849Y-886539D02*
G02*
X3090832Y-855556I30983J0D01*
G75*
G01*
X3090832Y-997522D02*
G02*
X3059849Y-966536I0J30983D01*
G75*
G01*
X3308419Y-856137D02*
G02*
X3339401Y-887123I0J-30983D01*
G75*
G01*
X3339401Y-967120D02*
G02*
X3308419Y-998103I-30982J0D01*
G75*
G01*
X3174149Y-1864439D02*
G02*
X3205132Y-1833456I30983J0D01*
G75*
G01*
X3205132Y-1975422D02*
G02*
X3174149Y-1944436I0J30983D01*
G75*
G01*
X3422719Y-1834037D02*
G02*
X3453701Y-1865023I0J-30983D01*
G75*
G01*
X3453701Y-1945020D02*
G02*
X3422719Y-1976003I-30982J0D01*
G75*
G01*
X4442539Y-2007451D02*
G02*
X4411556Y-1976468I0J30983D01*
G75*
G01*
X4553522Y-1976468D02*
G02*
X4522536Y-2007451I-30983J0D01*
G75*
G01*
X4412137Y-1758881D02*
G02*
X4443123Y-1727899I30983J0D01*
G75*
G01*
X4523120Y-1727899D02*
G02*
X4554103Y-1758881I0J-30982D01*
G75*
G01
X5207000Y-2755900D02*
G03X5207000Y-2755900I-12700J0D01*
G75*
G01
X2230857Y-1549400D02*
G03X2230857Y-1549400I-71831J0D01*
G75*
G01
X457200Y-965200D02*
G03X457200Y-965200I-12700J0D01*
G75*
G01
X4279900Y-3937000D02*
G03X4279900Y-3937000I-12700J0D01*
G75*
G01
X4724400Y-3937000D02*
G03X4724400Y-3937000I-12700J0D01*
G75*
G01
X6400800Y-3086100D02*
G03X6400800Y-3086100I-12700J0D01*
D15*
G75*
G01
X6121984Y-1336650D02*
G03X6121984Y-1336650I-15011J0D01*
G75*
G01
X3088411Y-1168400D02*
G03X3088411Y-1168400I-15011J0D01*
D12*
G75*
G01
X990600Y-1778000D02*
G03X990600Y-1778000I-12700J0D01*
X1257300Y-469900D02*
G01*
X1587500Y-469900D01*
X1587500Y-990600D01*
X1257300Y-990600D01*
X1257300Y-469900D01*
X1955800Y-2222500D02*
G01*
X3263900Y-2222500D01*
X3263900Y-2705100D01*
X1955800Y-2705100D01*
X1955800Y-2222500D01*
X660400Y-3219450D02*
G01*
X939800Y-3219450D01*
X939800Y-3943350D01*
X660400Y-3943350D01*
X660400Y-3219450D01*
X5976238Y-1638045D02*
G01*
X6363588Y-1638045D01*
X6363588Y-2666745D01*
X5976238Y-2666745D01*
X5976238Y-1638045D01*
X4838700Y-3416300D02*
G01*
X5245100Y-3416300D01*
X5245100Y-3822700D01*
X4838700Y-3822700D01*
X4838700Y-3416300D01*
X1882775Y-965200D02*
G01*
X2663825Y-965200D01*
X2663825Y-1193800D01*
X1882775Y-1193800D01*
X1882775Y-965200D01*
X3390900Y-558800D02*
G01*
X4127500Y-558800D01*
X4127500Y-787400D01*
X3390900Y-787400D01*
X3390900Y-558800D01*
X939800Y-3219450D02*
G01*
X1219200Y-3219450D01*
X1219200Y-3943350D01*
X939800Y-3943350D01*
X939800Y-3219450D01*
M02*
